<?xml version="1.0" encoding="utf-8"?>
<!-- Generator: Adobe Illustrator 18.1.1, SVG Export Plug-In . SVG Version: 6.00 Build 0)  -->
<svg version="1.1" id="Layer_1" xmlns="http://www.w3.org/2000/svg" xmlns:xlink="http://www.w3.org/1999/xlink" x="0px" y="0px"
	 viewBox="0 0 357.1 199.1" enable-background="new 0 0 357.1 199.1" xml:space="preserve">
<g>
	<g>
		<path fill="#FFFFFF" d="M27.2,116h-6.5v20h-4.4v-20H9.5v-3.6h18.7L27.2,116z"/>
		<path fill="#FFFFFF" d="M37.4,123c-0.7-0.4-1.5-0.5-2-0.5c-1,0-2.1,0.5-3.3,1.5v12h-4.3v-17h3.6l0.5,1.8c1.7-1.5,3.1-2.2,4.7-2.2
			c0.8,0,1.7,0.3,2.4,0.7L37.4,123z"/>
		<path fill="#FFFFFF" d="M50.5,136l-0.7-1.5c-1.1,1-2.7,1.9-4.9,1.9c-3.1,0-5.6-2.1-5.6-5.5c0-3.5,2.8-5.4,7.1-5.6l3-0.1
			c0-0.1,0-0.3,0-0.4c0-2-1.5-2.9-3.3-2.9c-1.8,0-3.3,0.6-4.4,1.3l-1.4-2.7c2.3-1.5,4.4-1.9,6.6-1.9c4.2,0,6.7,1.7,6.7,6.2v6.7
			c0,2.4,0.1,3.7,0.3,4.5H50.5z M49.5,128.2l-2.4,0.1c-2.3,0.1-3.4,0.9-3.4,2.3c0,1.4,1,2.4,2.8,2.4c1.5,0,2.5-0.6,3.1-1.1V128.2z"
			/>
		<path fill="#FFFFFF" d="M65.5,136.1h-3.1l-7-17.1h4.4l4.2,11.6h0.1l4.3-11.6h4.2L65.5,136.1z"/>
		<path fill="#FFFFFF" d="M77.8,128.6c0.1,2.5,2.2,4.3,4.8,4.3c1.6,0,2.9-0.4,4.4-1.2l1,2.8c-1.9,1.3-4.2,1.9-6.2,1.9
			c-5.9,0-8.4-4.3-8.4-8.9c0-4.8,2.9-8.9,7.7-8.9c4.6,0,7.6,3.5,7.6,8.8c0,0.3,0,0.7,0,1.3H77.8z M81,121.9c-2.1,0-3.3,1.9-3.3,3.7
			h6.6C84.2,123.8,83.2,121.9,81,121.9z"/>
		<path fill="#FFFFFF" d="M95.9,136.4c-2.8,0-3.9-1.6-3.9-3.7v-22.1h4.3v20.1c0,1.3,0.3,1.8,1.1,1.8c0.3,0,0.6,0,1.3-0.2l0.5,3.2
			C98,136.2,96.9,136.4,95.9,136.4z"/>
		<path fill="#FFFFFF" d="M128.8,136.1h-3.3l-3.8-11.6h-0.1l-3.8,11.6h-3.3l-6.2-17.1h4.4l3.6,11.5h0.1l3.7-11.5h3.3l3.8,11.5h0.1
			L131,119h4.1L128.8,136.1z"/>
		<path fill="#FFFFFF" d="M139.9,116.4c-1.5,0-2.7-1.1-2.7-2.6c0-1.4,1.1-2.6,2.7-2.6c1.5,0,2.7,1.1,2.7,2.6
			C142.5,115.2,141.4,116.4,139.9,116.4z M137.7,136v-17h4.3v17H137.7z"/>
		<path fill="#FFFFFF" d="M152.3,136.4c-3,0-4.2-1.7-4.2-4v-10.1h-3V119h3v-3.9l4.3-1.3v5.2h5.3l-1.3,3.2h-4v8.5
			c0,1.3,0.5,1.9,1.6,1.9c1.1,0,2.2-0.5,2.8-0.9l1.1,2.7C156.2,135.8,153.9,136.4,152.3,136.4z"/>
		<path fill="#FFFFFF" d="M171.4,136v-9.9c0-1.9-0.3-3.7-2.6-3.7c-1.5,0-3,0.8-4.1,1.8V136h-4.3v-25.4h4.3v10.3
			c1.6-1.3,3.4-2.2,5.6-2.2c2.6,0,5.4,1.3,5.4,6.2V136H171.4z"/>
		<path fill="#FFFFFF" d="M195.8,136.4c-5.5,0-8.4-4-8.4-8.8c0-5.2,3.7-9,8.8-9c2.3,0,3.9,0.6,4.8,1.2l-0.1,3.5
			c-1.2-0.9-2.5-1.4-4.3-1.4c-2.9,0-5,2.3-5,5.5c0,2.9,1.6,5.5,5,5.5c1.6,0,2.8-0.5,4-1.2l1.1,2.8
			C200.4,135.5,198.1,136.4,195.8,136.4z"/>
		<path fill="#FFFFFF" d="M218,133.9c-1.5,1.5-3.6,2.4-6.1,2.4c-2.4,0-4.4-0.8-5.9-2.1c-1.7-1.6-2.6-3.9-2.6-6.6
			c0-2.7,0.9-5,2.5-6.6c1.5-1.5,3.6-2.4,6-2.4c2.6,0,4.7,0.9,6.2,2.4c1.5,1.6,2.3,3.8,2.3,6.4C220.5,130,219.6,132.3,218,133.9z
			 M211.9,122c-2.7,0-4.1,2.3-4.1,5.5c0,3.3,1.5,5.5,4.2,5.5c2.7,0,4.1-2.3,4.1-5.5C216,124.2,214.5,122,211.9,122z"/>
		<path fill="#FFFFFF" d="M234.9,136v-10c0-1.8-0.3-3.7-2.5-3.7c-1.5,0-3,0.8-4.3,1.8V136h-4.3v-17h3.7l0.5,1.8
			c1.8-1.4,3.7-2.2,6-2.2c2.6,0,5.4,1.5,5.4,6.1V136H234.9z"/>
		<path fill="#FFFFFF" d="M252.9,114.5c-0.7-0.3-1.4-0.5-2.2-0.5c-1.4,0-2,0.8-2,2.3v2.7h4.5l-1.1,3.3h-3.4V136h-4.3v-13.7H242V119
			h2.5v-2.4c0-5,3.6-6.1,6-6.1c0.9,0,2.2,0.2,3.3,0.8L252.9,114.5z"/>
		<path fill="#FFFFFF" d="M258.3,116.4c-1.5,0-2.7-1.1-2.7-2.6c0-1.4,1.1-2.6,2.7-2.6c1.5,0,2.7,1.1,2.7,2.6
			C261,115.2,259.8,116.4,258.3,116.4z M256.2,136v-17h4.3v17H256.2z"/>
		<path fill="#FFFFFF" d="M273.5,136.4c-5.1,0-9.2-3-9.2-8.7c0-5.3,3.9-9,9.4-9c0.9,0,1.5,0,2.2,0.1v-8.2h4.3V135
			C278.5,135.8,276.4,136.4,273.5,136.4z M275.8,122.3c-0.6-0.1-1.1-0.3-2-0.3c-3.1,0-5.2,2-5.2,5.4c0,3.1,2,5.4,5.3,5.4
			c0.7,0,1.4-0.1,1.9-0.3V122.3z"/>
		<path fill="#FFFFFF" d="M287.7,128.6c0.1,2.5,2.2,4.3,4.8,4.3c1.6,0,2.9-0.4,4.4-1.2l1,2.8c-1.9,1.3-4.2,1.9-6.2,1.9
			c-5.9,0-8.4-4.3-8.4-8.9c0-4.8,2.9-8.9,7.7-8.9c4.6,0,7.6,3.5,7.6,8.8c0,0.3,0,0.7,0,1.3H287.7z M290.9,121.9
			c-2.1,0-3.3,1.9-3.3,3.7h6.6C294.1,123.8,293.1,121.9,290.9,121.9z"/>
		<path fill="#FFFFFF" d="M313,136v-10c0-1.8-0.3-3.7-2.5-3.7c-1.5,0-3,0.8-4.3,1.8V136h-4.3v-17h3.7l0.5,1.8c1.8-1.4,3.7-2.2,6-2.2
			c2.6,0,5.4,1.5,5.4,6.1V136H313z"/>
		<path fill="#FFFFFF" d="M328.8,136.4c-5.5,0-8.4-4-8.4-8.8c0-5.2,3.7-9,8.8-9c2.3,0,3.9,0.6,4.8,1.2l-0.1,3.5
			c-1.2-0.9-2.5-1.4-4.3-1.4c-2.9,0-5,2.3-5,5.5c0,2.9,1.6,5.5,5,5.5c1.6,0,2.8-0.5,4-1.2l1.1,2.8
			C333.5,135.5,331.2,136.4,328.8,136.4z"/>
		<path fill="#FFFFFF" d="M340.9,128.6c0.1,2.5,2.2,4.3,4.8,4.3c1.6,0,2.9-0.4,4.4-1.2l1,2.8c-1.9,1.3-4.2,1.9-6.2,1.9
			c-5.9,0-8.4-4.3-8.4-8.9c0-4.8,2.9-8.9,7.7-8.9c4.6,0,7.6,3.5,7.6,8.8c0,0.3,0,0.7,0,1.3H340.9z M344.1,121.9
			c-2.1,0-3.3,1.9-3.3,3.7h6.6C347.3,123.8,346.3,121.9,344.1,121.9z"/>
	</g>
	<g>
		<g>
			<path fill="#FFFFFF" d="M203.7,90.7h-25.3V10.8h25c16.1,0,23.5,11,23.5,20.7c0,7.6-3.2,12.7-9.6,16.6v0.2
				c9.2,2.1,14.8,8.5,14.8,18.2C232,78,223.8,90.7,203.7,90.7z M201.2,23.2H193V44h7.7c6.6,0,11.4-4.2,11.4-10.9
				C212.1,27.5,208.3,23.2,201.2,23.2z M204,56.3h-11v22.1h9.3c9.8,0,14.6-4.4,14.6-11.6C217,60.5,212.3,56.3,204,56.3z"/>
			<path fill="#FFFFFF" d="M290.8,23.1h-21.3v67.6h-14.8V23.1h-23.1V10.8h63.9L290.8,23.1z"/>
			<path fill="#FFFFFF" d="M156,90.7l-7.9-20h-28.5l-7.4,20H97.6l30.9-79.8h11l32,79.8H156z M137.1,40.3c-1.5-4-2.4-7.3-3-9.9H134
				c-0.5,2.8-1.6,5.9-2.9,9.7l-6.9,18.6h19.4L137.1,40.3z"/>
			<path fill="#FFFFFF" d="M338.9,90.7l-7.9-20h-28.5l-7.4,20h-14.7l30.9-79.8h11l32,79.8H338.9z M320,40.3c-1.5-4-2.4-7.3-3-9.9
				h-0.1c-0.5,2.8-1.6,5.9-2.9,9.7L307,58.7h19.4L320,40.3z"/>
		</g>
		<g>
			<g>
				<path fill="#FFFFFF" d="M39.2,39.1v-3.7L16.1,12.4c-1.3,1.2-2.5,2.4-3.7,3.6l23.1,23.1H39.2z"/>
				<path fill="#FFFFFF" d="M39.2,57.1v3.7L16.1,83.8c-1.3-1.2-2.5-2.4-3.7-3.7l23.1-23.1H39.2z"/>
				<path fill="#FFFFFF" d="M39.2,43.7h-39c-0.1,1.5-0.2,3-0.2,4.5c0,1.5,0.1,3,0.2,4.5h39V43.7z"/>
			</g>
			<g>
				<g>
					<path fill="#FFFFFF" d="M48.3,0c-1.5,0-3,0.1-4.5,0.2V8h0v85.2h0v3c1.5,0.1,3,0.2,4.5,0.2c26.6,0,48.2-21.6,48.2-48.3
						C96.5,21.6,74.9,0,48.3,0z M65.9,52.6c-0.2,3.1-0.6,6.1-1.2,9H53.4v-9H65.9z M53.4,43.6v-9h11.2c0.6,2.9,1,5.9,1.2,9H53.4z
						 M75.4,52.6h11.3c-0.4,3.1-1.1,6.1-2.1,9H74.2C74.8,58.7,75.2,55.7,75.4,52.6z M75.4,43.6c-0.2-3.1-0.6-6.1-1.3-9h10.4
						c1.1,2.9,1.8,5.9,2.2,9H75.4z M79.6,25.6h-8.1c-1.6-4.4-3.7-8.4-6.1-12.1C71,16.3,75.9,20.5,79.6,25.6z M62,25.6h-8.7V9.9
						C57,14.5,59.9,19.8,62,25.6z M53.4,86.6V70.7h8.7C60,76.6,57,81.9,53.4,86.6C53.4,86.6,53.4,86.6,53.4,86.6z M65.4,82.9
						c2.5-3.7,4.5-7.8,6.2-12.3h8.2C76.1,75.8,71.2,80.1,65.4,82.9z"/>
				</g>
				<path fill="#FFFFFF" d="M9.9,19.1C5.5,24.9,2.4,31.7,1,39.1h29L9.9,19.1z"/>
				<path fill="#FFFFFF" d="M39.2,29.9v-29c-7.4,1.4-14.2,4.5-20,8.9L39.2,29.9z"/>
				<path fill="#FFFFFF" d="M19.1,86.4c5.8,4.4,12.6,7.5,20,8.9v-29L19.1,86.4z"/>
				<path fill="#FFFFFF" d="M29.9,57.1H1c1.4,7.4,4.5,14.3,8.9,20.1L29.9,57.1z"/>
			</g>
		</g>
	</g>
	<g>
		<g>
			<path fill="#FFFFFF" d="M3.9,198.5l13.7-35.8h5.1l14.6,35.8H32l-4.2-10.8h-15l-3.9,10.8H3.9z M14.2,183.8h12.1l-3.7-9.9
				c-1.1-3-2-5.5-2.5-7.4c-0.5,2.3-1.1,4.6-1.9,6.8L14.2,183.8z"/>
			<path fill="#FFFFFF" d="M41,198.5v-35.8h13.4c2.7,0,4.9,0.4,6.6,1.1c1.7,0.7,2.9,1.8,3.9,3.3c0.9,1.5,1.4,3.1,1.4,4.7
				c0,1.5-0.4,3-1.2,4.3c-0.8,1.4-2.1,2.4-3.8,3.3c2.2,0.6,3.8,1.7,5,3.2c1.2,1.5,1.7,3.3,1.7,5.4c0,1.7-0.4,3.2-1.1,4.7
				c-0.7,1.4-1.6,2.6-2.6,3.3c-1,0.8-2.3,1.4-3.9,1.8c-1.6,0.4-3.5,0.6-5.8,0.6H41z M45.7,177.7h7.7c2.1,0,3.6-0.1,4.5-0.4
				c1.2-0.4,2.1-1,2.7-1.8s0.9-1.9,0.9-3.1c0-1.2-0.3-2.2-0.9-3.1c-0.6-0.9-1.4-1.5-2.4-1.9c-1.1-0.3-2.9-0.5-5.4-0.5h-7.2V177.7z
				 M45.7,194.3h8.9c1.5,0,2.6-0.1,3.2-0.2c1.1-0.2,2-0.5,2.7-1c0.7-0.5,1.3-1.1,1.8-2c0.5-0.9,0.7-1.9,0.7-3c0-1.3-0.3-2.5-1-3.5
				c-0.7-1-1.6-1.7-2.8-2.1c-1.2-0.4-3-0.6-5.2-0.6h-8.3V194.3z"/>
			<path fill="#FFFFFF" d="M81.7,198.5v-31.6H69.9v-4.2h28.4v4.2H86.4v31.6H81.7z"/>
			<path fill="#FFFFFF" d="M93.5,198.5l13.7-35.8h5.1l14.6,35.8h-5.4l-4.2-10.8h-15l-3.9,10.8H93.5z M103.8,183.8h12.1l-3.7-9.9
				c-1.1-3-2-5.5-2.5-7.4c-0.5,2.3-1.1,4.6-1.9,6.8L103.8,183.8z"/>
			<path fill="#FFFFFF" d="M141.8,198.5v-35.8h4.9l18.8,28.1v-28.1h4.5v35.8h-4.9l-18.8-28.1v28.1H141.8z"/>
			<path fill="#FFFFFF" d="M175.8,185.5c0-4.8,1.3-8.4,4-10.7c2.2-1.9,4.9-2.9,8.2-2.9c3.6,0,6.5,1.2,8.7,3.5
				c2.3,2.3,3.4,5.6,3.4,9.7c0,3.3-0.5,6-1.5,7.9c-1,1.9-2.5,3.4-4.4,4.5c-1.9,1.1-4,1.6-6.3,1.6c-3.6,0-6.6-1.2-8.8-3.5
				C176.9,193.3,175.8,189.9,175.8,185.5z M180.3,185.5c0,3.3,0.7,5.8,2.2,7.5c1.4,1.7,3.3,2.5,5.5,2.5c2.2,0,4-0.8,5.4-2.5
				c1.4-1.7,2.2-4.2,2.2-7.6c0-3.2-0.7-5.6-2.2-7.3c-1.5-1.7-3.3-2.5-5.4-2.5c-2.2,0-4,0.8-5.5,2.5
				C181,179.7,180.3,182.2,180.3,185.5z"/>
			<path fill="#FFFFFF" d="M206.5,198.5v-5h5v5H206.5z"/>
			<path fill="#FFFFFF" d="M228.9,198.5L215,162.7h5.1l9.3,26c0.7,2.1,1.4,4,1.9,5.9c0.6-2,1.2-3.9,1.9-5.9l9.7-26h4.8l-14,35.8
				H228.9z"/>
			<path fill="#FFFFFF" d="M250.2,189.1l4.6-0.4c0.3,2.2,1.1,3.9,2.4,5.1c1.2,1.1,2.7,1.7,4.5,1.7c2.1,0,3.9-0.8,5.4-2.4
				c1.5-1.6,2.2-3.7,2.2-6.3c0-2.5-0.7-4.5-2.1-5.9c-1.4-1.4-3.3-2.2-5.5-2.2c-1.4,0-2.7,0.3-3.8,1c-1.1,0.6-2,1.5-2.7,2.5l-4.1-0.5
				l3.5-18.4h17.8v4.2H258l-1.9,9.6c2.1-1.5,4.4-2.2,6.8-2.2c3.1,0,5.8,1.1,7.9,3.2c2.1,2.2,3.2,4.9,3.2,8.3c0,3.2-0.9,6-2.8,8.4
				c-2.3,2.9-5.4,4.3-9.4,4.3c-3.3,0-5.9-0.9-8-2.7C251.7,194.5,250.5,192.1,250.2,189.1z"/>
			<path fill="#FFFFFF" d="M294.6,198.5h-4.4v-28c-1.1,1-2.4,2-4.2,3c-1.7,1-3.3,1.8-4.6,2.3v-4.2c2.5-1.2,4.6-2.6,6.4-4.2
				c1.8-1.6,3.1-3.2,3.9-4.8h2.8V198.5z"/>
			<path fill="#FFFFFF" d="M329,194.3v4.2h-23.7c0-1.1,0.1-2.1,0.5-3.1c0.6-1.6,1.6-3.2,2.9-4.8c1.3-1.6,3.2-3.4,5.7-5.4
				c3.9-3.2,6.5-5.7,7.9-7.6c1.4-1.9,2.1-3.6,2.1-5.3c0-1.7-0.6-3.2-1.9-4.4c-1.2-1.2-2.9-1.8-4.9-1.8c-2.1,0-3.8,0.6-5.1,1.9
				s-1.9,3-1.9,5.3l-4.5-0.5c0.3-3.4,1.5-5.9,3.5-7.7c2-1.8,4.7-2.6,8.1-2.6c3.4,0,6.2,1,8.2,2.9s3,4.3,3,7.1c0,1.4-0.3,2.8-0.9,4.2
				c-0.6,1.4-1.6,2.8-2.9,4.4c-1.4,1.5-3.6,3.6-6.8,6.3c-2.6,2.2-4.3,3.7-5.1,4.5c-0.7,0.8-1.4,1.6-1.9,2.4H329z"/>
			<path fill="#FFFFFF" d="M356.5,171.5l-4.4,0.3c-0.4-1.7-0.9-3-1.7-3.8c-1.2-1.3-2.7-1.9-4.4-1.9c-1.4,0-2.6,0.4-3.7,1.2
				c-1.4,1-2.5,2.5-3.3,4.4c-0.8,1.9-1.2,4.7-1.2,8.3c1.1-1.6,2.4-2.8,3.9-3.6c1.5-0.8,3.1-1.2,4.8-1.2c2.9,0,5.4,1.1,7.5,3.2
				c2.1,2.2,3.1,4.9,3.1,8.4c0,2.2-0.5,4.3-1.5,6.3c-1,1.9-2.3,3.4-4,4.4c-1.7,1-3.6,1.5-5.8,1.5c-3.7,0-6.6-1.3-9-4
				c-2.3-2.7-3.5-7.1-3.5-13.3c0-6.9,1.3-11.9,3.8-15.1c2.2-2.7,5.2-4.1,9-4.1c2.8,0,5.1,0.8,6.9,2.4
				C355,166.5,356.1,168.7,356.5,171.5z M338.5,186.9c0,1.5,0.3,3,1,4.3c0.6,1.4,1.5,2.4,2.7,3.2c1.2,0.7,2.4,1.1,3.6,1.1
				c1.9,0,3.5-0.7,4.8-2.2c1.3-1.5,2-3.5,2-6.1c0-2.5-0.7-4.4-2-5.8c-1.3-1.4-3-2.1-5-2.1c-2,0-3.7,0.7-5.1,2.1
				C339.2,182.7,338.5,184.6,338.5,186.9z"/>
		</g>
	</g>
</g>
</svg>
