<?xml version="1.0" encoding="utf-8"?>
<!-- Generator: Adobe Illustrator 16.2.0, SVG Export Plug-In . SVG Version: 6.00 Build 0)  -->
<!DOCTYPE svg PUBLIC "-//W3C//DTD SVG 1.1//EN" "http://www.w3.org/Graphics/SVG/1.1/DTD/svg11.dtd">
<svg version="1.1" id="Layer_1" xmlns="http://www.w3.org/2000/svg" xmlns:xlink="http://www.w3.org/1999/xlink" x="0px" y="0px"
	 width="22.531px" height="22.758px" viewBox="0 0 22.531 22.758" enable-background="new 0 0 22.531 22.758" xml:space="preserve">
<g>
	<path fill="#FFFFFF" d="M14.73,3.815l0.729-0.846l0.004,0.002c-0.01,0.07-0.078,0.41-0.174,0.945L14.73,3.815z M15.145,4.741
		l0.445,0.078l0.084-0.488l0.248,0.047l0.061-0.338l-0.25-0.047l0.24-1.375l-0.502-0.09l-1.059,1.191l-0.064,0.375l0.883,0.16
		L15.145,4.741z M13.178,3.489c-0.549,0.26-0.615,0.527-0.676,0.781l1.531,0.271l0.07-0.385l-0.975-0.172
		c0.066-0.094,0.24-0.164,0.572-0.314c0.244-0.107,0.527-0.26,0.594-0.635c0.078-0.447-0.219-0.756-0.65-0.832
		c-0.197-0.037-0.742-0.068-0.867,0.648l0.428,0.076c0.033-0.162,0.086-0.412,0.395-0.357c0.215,0.039,0.281,0.223,0.256,0.367
		C13.811,3.19,13.631,3.272,13.178,3.489 M11.468,4.147c0.661,0.117,0.901-0.346,0.954-0.646c0.088-0.506-0.256-0.777-0.555-0.834
		c-0.219-0.035-0.332,0.012-0.424,0.053l0.165-0.463l0.91,0.162l0.066-0.367l-1.233-0.219l-0.365,1.18l0.391,0.092
		c0.113-0.141,0.266-0.115,0.323-0.107c0.236,0.045,0.297,0.258,0.262,0.453c-0.041,0.236-0.195,0.389-0.406,0.354
		c-0.196-0.035-0.272-0.172-0.26-0.355l-0.443-0.08C10.796,3.815,11.117,4.083,11.468,4.147 M10.587,3.532L9.617,3.36
		c0.066-0.094,0.24-0.166,0.574-0.316c0.242-0.107,0.523-0.256,0.592-0.635c0.078-0.447-0.221-0.754-0.65-0.832
		C9.931,1.542,9.388,1.508,9.263,2.225l0.43,0.076c0.031-0.16,0.086-0.412,0.395-0.355c0.215,0.037,0.281,0.225,0.254,0.367
		c-0.043,0.25-0.223,0.332-0.68,0.549C9.117,3.124,9.05,3.389,8.99,3.645l1.531,0.271L10.587,3.532z M14.963,18.465
		c-0.023-0.045-0.051-0.086-0.07-0.133s-0.023-0.096-0.035-0.145l-1.658,0.658c0.025,0.041,0.051,0.086,0.068,0.129
		c0.02,0.049,0.027,0.1,0.039,0.146c0.158-0.088,0.352-0.193,0.58-0.281l0.777,2c0.078-0.039,0.154-0.082,0.234-0.113
		c0.08-0.033,0.164-0.055,0.246-0.08l-0.775-1.998C14.566,18.569,14.766,18.516,14.963,18.465 M3.712,13.25l0.055,0.209
		c0.049,0.176-0.092,0.361-0.357,0.436c-0.205,0.057-0.416,0.029-0.535-0.174c-0.035-0.066-0.059-0.145-0.084-0.219L3.712,13.25z
		 M3.611,14.401c0.377-0.104,0.494-0.408,0.369-0.875l-0.225-0.828l-2.287,0.627c0.029,0.086,0.061,0.166,0.084,0.25
		c0.021,0.082,0.035,0.17,0.051,0.256l1.004-0.275C2.771,14.163,3.015,14.565,3.611,14.401 M3.621,15.581l0.799-0.475
		c0.107,0.186,0.26,0.396,0.041,0.592c-0.055,0.049-0.098,0.078-0.141,0.104C4.015,15.983,3.773,15.915,3.621,15.581 M4.64,16.239
		c0.201-0.119,0.285-0.289,0.273-0.514c-0.006-0.164-0.143-0.383-0.223-0.525l-0.375-0.643l-2.045,1.215
		c0.049,0.07,0.102,0.143,0.148,0.217c0.041,0.076,0.078,0.156,0.115,0.236l0.955-0.57l0.016,0.023
		c-0.074,0.135-0.166,0.299-0.219,0.393l-0.42,0.73c0.061,0.086,0.121,0.17,0.174,0.26c0.055,0.094,0.098,0.189,0.146,0.283
		l0.115-0.227c0.172-0.344,0.338-0.695,0.527-1.031C4.052,16.333,4.347,16.411,4.64,16.239 M6.111,18.489
		c-0.377,0.434-0.906,0.682-1.309,0.328c-0.391-0.348-0.229-0.844,0.066-1.188c0.512-0.586,0.967-0.672,1.326-0.354
		C6.585,17.622,6.406,18.149,6.111,18.489 M6.347,17.133c-0.646-0.574-1.391-0.482-1.844,0.039
		c-0.518,0.594-0.426,1.281,0.148,1.789c0.639,0.563,1.406,0.473,1.848-0.041C6.851,18.51,7.089,17.79,6.347,17.133 M7.427,18.053
		c-0.014,0.047-0.023,0.096-0.043,0.143s-0.049,0.088-0.074,0.129c0.176,0.049,0.385,0.115,0.609,0.215L7.076,20.51
		c0.082,0.027,0.166,0.053,0.244,0.088c0.078,0.031,0.154,0.08,0.23,0.121l0.846-1.973c0.193,0.082,0.371,0.188,0.547,0.293
		c0.014-0.047,0.023-0.098,0.045-0.145c0.018-0.047,0.047-0.088,0.074-0.129L7.427,18.053z M17.414,18.918
		c-0.154,0.145-0.338,0.295-0.625,0.504l-0.508-0.725l0.295-0.209c0.129-0.09,0.252-0.16,0.365-0.223
		c-0.033-0.035-0.072-0.07-0.1-0.111s-0.049-0.09-0.07-0.133c-0.094,0.088-0.203,0.182-0.33,0.273l-0.293,0.207l-0.428-0.611
		c0.283-0.211,0.49-0.324,0.68-0.426c-0.035-0.035-0.07-0.07-0.1-0.111c-0.029-0.039-0.049-0.09-0.072-0.133l-1.074,0.766
		l1.355,1.943l1.078-0.768c-0.035-0.037-0.072-0.072-0.1-0.113C17.459,19.01,17.439,18.961,17.414,18.918 M9.017,21.18l1.301,0.219
		c0.002-0.049,0-0.102,0.008-0.148c0.006-0.049,0.025-0.098,0.039-0.148c-0.211-0.006-0.445-0.025-0.795-0.084l0.148-0.873
		l0.354,0.061c0.152,0.023,0.291,0.063,0.416,0.102c0.002-0.049-0.002-0.102,0.006-0.152c0.01-0.049,0.027-0.098,0.041-0.145
		c-0.129-0.006-0.27-0.014-0.422-0.041l-0.354-0.061l0.123-0.742c0.35,0.055,0.576,0.121,0.779,0.186
		c0.002-0.051-0.002-0.102,0.008-0.152c0.008-0.045,0.025-0.098,0.043-0.145l-1.299-0.223L9.017,21.18z M12.549,21.196
		c-0.531,0.053-0.859-0.338-0.918-0.93c-0.047-0.512,0.131-1.088,0.701-1.143c0.223-0.021,0.457,0.088,0.602,0.264l0.049-0.006
		c0.016-0.123,0.025-0.244,0.045-0.365c-0.209-0.094-0.492-0.123-0.717-0.102c-0.752,0.074-1.331,0.547-1.245,1.455
		c0.068,0.715,0.67,1.117,1.405,1.045c0.232-0.023,0.473-0.09,0.668-0.215l0.049-0.309l-0.047-0.016
		C12.998,21.04,12.762,21.174,12.549,21.196 M18.766,17.667l-0.184,0.23l-1.531-1.223l0.211-0.27
		c0.303-0.387,0.693-0.469,1.203-0.063C19.1,16.85,19.061,17.288,18.766,17.667 M17.305,16.022l-0.734,0.936l1.848,1.477
		l0.602-0.768c0.439-0.561,0.418-1.289-0.197-1.777C18.381,15.536,17.787,15.454,17.305,16.022 M21.645,13.227
		c-1.01,5.779-6.484,9.652-12.209,8.635c-5.723-1.02-9.557-6.553-8.547-12.33c1.01-5.779,6.484-9.654,12.208-8.635
		C18.818,1.918,22.652,7.446,21.645,13.227 M13.221,0.174C7.105-0.916,1.251,3.223,0.171,9.401
		c-1.076,6.18,3.023,12.096,9.137,13.184c6.12,1.088,11.973-3.053,13.051-9.23c0.117-0.664,0.172-1.328,0.172-1.98
		C22.531,5.959,18.68,1.145,13.221,0.174 M7.572,13.813l0.553,0.1l-0.193-0.486L7.572,13.813z M14.826,15.549l-1.533-0.275
		l0.195-1.111l0.455,0.082l-0.16,0.912l1.078,0.191L14.826,15.549z M13.043,14.655c-0.035,0.199-0.17,0.332-0.41,0.4
		c-0.18,0.055-0.424,0.057-0.736,0s-0.543-0.141-0.69-0.258c-0.205-0.146-0.289-0.318-0.254-0.518
		c0.039-0.205,0.174-0.338,0.414-0.4c0.18-0.055,0.426-0.055,0.737,0s0.541,0.141,0.691,0.258
		C12.996,14.278,13.078,14.45,13.043,14.655 M10.832,13.887l-0.65-0.115l-0.16,0.914l-0.459-0.082l0.162-0.914l-0.656-0.117
		l0.035-0.197l1.766,0.318L10.832,13.887z M8.32,14.379l-0.1-0.252l-0.807-0.145l-0.188,0.201l-0.475-0.086l0.969-0.971l0.518,0.094
		l0.574,1.248L8.32,14.379z M15.559,13.491c0,0-2.955,0.363-5.116-1.912C8.283,9.301,8.265,6.59,9.621,4.114l-1.797-0.32
		l-2.01,11.514l9.137,1.625L15.559,13.491z M12.07,14.077c-0.18-0.033-0.332-0.023-0.451,0.025c-0.12,0.047-0.19,0.135-0.213,0.258
		c-0.021,0.127,0.018,0.234,0.112,0.318c0.094,0.088,0.232,0.148,0.412,0.182c0.184,0.031,0.332,0.021,0.449-0.027
		c0.117-0.047,0.186-0.135,0.209-0.258c0.021-0.127-0.014-0.234-0.107-0.32C12.385,14.168,12.248,14.11,12.07,14.077 M11.779,10.325
		c1.287,2.586,3.875,2.619,3.875,2.619l1.322-7.523l-3.277-0.59C13.699,4.831,10.003,6.752,11.779,10.325"/>
</g>
</svg>
