<?xml version="1.0" encoding="utf-8"?>
<!-- Generator: Adobe Illustrator 20.1.0, SVG Export Plug-In . SVG Version: 6.00 Build 0)  -->
<svg version="1.1" id="Ebene_1" xmlns="http://www.w3.org/2000/svg" xmlns:xlink="http://www.w3.org/1999/xlink" x="0px" y="0px"
	 viewBox="290.2 0 379.5 560" style="enable-background:new 290.2 0 379.5 560;" xml:space="preserve">
<style type="text/css">
	.st0{fill:#BFE2F2;}
	.st1{fill:#193D6F;}
	.st2{fill:#EF0001;}
</style>
<g>
	<g>
		<rect x="290.2" class="st0" width="379.5" height="560"/>
	</g>
	<g>
		<path class="st1" d="M360.9,111c0,0.1,0,0.2,0,0.3c0,0.1-0.1,0.3-0.1,0.5l-6.3,23.4c0,0.1-0.1,0.3-0.1,0.4
			c-0.1,0.1-0.1,0.2-0.2,0.2c-0.1,0.1-0.3,0.1-0.4,0.1c-0.2,0-0.4,0-0.7,0s-0.6,0-0.7,0c-0.2,0-0.3-0.1-0.5-0.1
			c-0.1-0.1-0.2-0.1-0.3-0.2s-0.1-0.2-0.1-0.4l-4.5-16.2l-4.5,16.2c0,0.1-0.1,0.3-0.1,0.4c-0.1,0.1-0.1,0.2-0.3,0.2
			c-0.1,0.1-0.3,0.1-0.5,0.1c-0.2,0-0.4,0-0.7,0c-0.3,0-0.6,0-0.8,0c-0.2,0-0.3-0.1-0.5-0.1c-0.1-0.1-0.2-0.1-0.3-0.2
			c-0.1-0.1-0.1-0.2-0.1-0.4l-6.5-23.4c0-0.1-0.1-0.3-0.1-0.4c0-0.1,0-0.2,0-0.3c0-0.1,0.1-0.3,0.2-0.4c0.2-0.1,0.5-0.2,1-0.2
			c0.4,0,0.7,0,0.8,0.1c0.2,0,0.3,0.1,0.4,0.2c0.2,0.1,0.3,0.3,0.4,0.7l5.5,20.8l4.8-17.4l-0.8-2.8c-0.1-0.2-0.1-0.4-0.1-0.5
			c0-0.1,0-0.2,0-0.3c0-0.1,0.1-0.3,0.2-0.4c0.2-0.1,0.5-0.2,1-0.2c0.4,0,0.7,0,0.8,0.1c0.2,0,0.3,0.1,0.4,0.2
			c0.1,0.1,0.1,0.1,0.2,0.3c0.1,0.1,0.1,0.3,0.2,0.5l5.5,20.7l5.2-20.8c0.1-0.3,0.2-0.6,0.4-0.7c0.1-0.1,0.2-0.1,0.4-0.1
			c0.2,0,0.4,0,0.8,0c0.5,0,0.8,0,0.9,0.1C360.8,110.7,360.9,110.8,360.9,111z"/>
		<path class="st1" d="M380.8,134c0,0.2,0,0.4,0,0.6c0,0.2,0,0.3-0.1,0.4c-0.1,0.3-0.2,0.5-0.3,0.6c-0.1,0-0.1,0.1-0.2,0.1
			c-0.1,0-0.2,0-0.3,0h-12.7c-0.4,0-0.6,0-0.8-0.1c-0.2-0.1-0.3-0.1-0.3-0.2c-0.1-0.2-0.2-0.4-0.2-0.8v-23c0-0.4,0.1-0.6,0.2-0.8
			c0.1-0.1,0.2-0.1,0.3-0.2c0.2-0.1,0.4-0.1,0.8-0.1h12.9c0.1,0,0.2,0,0.3,0c0.1,0,0.1,0.1,0.2,0.1c0,0.1,0.1,0.1,0.1,0.2
			c0,0.1,0,0.2,0,0.3c0,0.2,0,0.4,0,0.6c0,0.2,0,0.3-0.1,0.4c-0.1,0.3-0.2,0.5-0.3,0.6c-0.1,0.1-0.3,0.1-0.5,0.1h-11.2v7.8h9.9
			c0.1,0,0.2,0,0.3,0c0.1,0,0.1,0.1,0.1,0.1c0,0.1,0.1,0.1,0.1,0.2c0,0.1,0,0.2,0,0.3c0,0.2,0,0.4,0,0.6c0,0.2-0.1,0.3-0.1,0.4
			c-0.1,0.3-0.2,0.5-0.3,0.6c-0.1,0.1-0.3,0.1-0.5,0.1h-9.5v10.1h11.8c0.1,0,0.2,0,0.3,0c0.1,0,0.1,0.1,0.2,0.1
			c0,0.1,0.1,0.1,0.1,0.2C380.8,133.7,380.8,133.8,380.8,134z"/>
		<path class="st1" d="M400.6,134c0,0.2,0,0.4,0,0.6c0,0.2,0,0.3-0.1,0.4c-0.1,0.3-0.2,0.5-0.3,0.6c-0.1,0.1-0.3,0.1-0.5,0.1h-12.2
			c-0.4,0-0.6,0-0.8-0.1c-0.2-0.1-0.3-0.1-0.3-0.2c-0.1-0.2-0.2-0.4-0.2-0.8v-23.4c0-0.2,0-0.3,0-0.4c0-0.1,0.1-0.2,0.1-0.2
			s0.2-0.1,0.4-0.2c0.2,0,0.4-0.1,0.8-0.1c0.4,0,0.6,0,0.8,0.1c0.2,0,0.3,0.1,0.3,0.2c0.1,0.1,0.1,0.1,0.2,0.2
			c0,0.1,0.1,0.2,0.1,0.4v22h11.2c0.1,0,0.2,0,0.3,0c0.1,0,0.1,0.1,0.1,0.1c0,0.1,0.1,0.1,0.1,0.2
			C400.6,133.7,400.6,133.8,400.6,134z"/>
		<path class="st1" d="M420.6,134.1c0,0.2-0.1,0.3-0.2,0.4c-0.1,0.1-0.3,0.2-0.5,0.3c-0.1,0.1-0.4,0.2-0.8,0.4
			c-0.4,0.2-0.8,0.3-1.4,0.5c-0.6,0.2-1.2,0.3-1.9,0.4c-0.7,0.1-1.5,0.2-2.4,0.2c-1.5,0-2.8-0.3-4.1-0.9s-2.4-1.4-3.4-2.5
			c-1-1.1-1.7-2.5-2.3-4.1c-0.6-1.6-0.8-3.5-0.8-5.6s0.3-4,0.9-5.6c0.6-1.6,1.3-3,2.3-4.1c1-1.1,2.1-2,3.4-2.5
			c1.3-0.6,2.7-0.9,4.1-0.9c0.8,0,1.5,0,2.1,0.1c0.6,0.1,1.2,0.2,1.6,0.3c0.5,0.1,0.9,0.2,1.3,0.4c0.4,0.2,0.7,0.3,1,0.4
			c0.3,0.1,0.4,0.3,0.6,0.3c0.1,0.1,0.2,0.2,0.2,0.4c0,0.1,0,0.2-0.1,0.4s-0.2,0.4-0.3,0.6c-0.1,0.2-0.3,0.4-0.4,0.6
			c-0.1,0.1-0.3,0.2-0.4,0.2c-0.2,0-0.4-0.1-0.7-0.2c-0.3-0.2-0.6-0.3-1-0.5c-0.4-0.1-0.9-0.3-1.5-0.4c-0.6-0.2-1.4-0.2-2.4-0.2
			c-1.2,0-2.3,0.2-3.3,0.7s-1.8,1.2-2.5,2.1c-0.7,0.9-1.2,2-1.5,3.4c-0.4,1.3-0.5,2.8-0.5,4.5s0.2,3.2,0.6,4.5
			c0.4,1.3,0.9,2.4,1.6,3.3c0.7,0.9,1.5,1.6,2.5,2.1c1,0.5,2,0.7,3.1,0.7c0.8,0,1.5-0.1,2.1-0.2c0.7-0.1,1.2-0.3,1.8-0.5
			c0.5-0.2,0.9-0.4,1.2-0.5c0.3-0.2,0.5-0.2,0.7-0.2c0.2,0,0.3,0.1,0.4,0.2c0.1,0.1,0.2,0.3,0.4,0.5c0.1,0.2,0.2,0.4,0.3,0.6
			C420.6,133.8,420.6,134,420.6,134.1z"/>
		<path class="st1" d="M444.6,123.2c0,2.1-0.3,4-0.8,5.6s-1.3,3-2.2,4.1c-0.9,1.1-2.1,1.9-3.3,2.5s-2.7,0.9-4.2,0.9
			c-1.5,0-3-0.3-4.3-0.9c-1.3-0.6-2.4-1.4-3.4-2.5c-0.9-1.1-1.7-2.5-2.2-4.1c-0.5-1.6-0.8-3.5-0.8-5.6s0.3-4,0.8-5.6
			c0.5-1.6,1.3-3,2.2-4.1c0.9-1.1,2.1-2,3.4-2.5c1.3-0.6,2.7-0.9,4.3-0.9c1.5,0,2.9,0.3,4.2,0.9c1.3,0.6,2.4,1.4,3.3,2.5
			c0.9,1.1,1.7,2.5,2.2,4.1C444.3,119.2,444.6,121.1,444.6,123.2z M441.7,123.2c0-1.7-0.2-3.2-0.5-4.5c-0.3-1.3-0.8-2.5-1.5-3.4
			c-0.7-0.9-1.5-1.7-2.4-2.1c-0.9-0.5-2-0.8-3.2-0.8c-1.2,0-2.3,0.3-3.3,0.8c-1,0.5-1.8,1.2-2.4,2.1c-0.7,0.9-1.2,2.1-1.5,3.4
			c-0.3,1.3-0.5,2.8-0.5,4.5s0.2,3.1,0.5,4.5c0.3,1.3,0.8,2.4,1.5,3.4c0.7,0.9,1.5,1.6,2.4,2.1c1,0.5,2,0.7,3.3,0.7
			c1.2,0,2.3-0.2,3.2-0.7c0.9-0.5,1.7-1.2,2.4-2.1c0.7-0.9,1.2-2.1,1.5-3.4C441.5,126.3,441.7,124.8,441.7,123.2z"/>
		<path class="st1" d="M472.3,135c0,0.2,0,0.3-0.1,0.4c0,0.1-0.1,0.2-0.2,0.2c-0.1,0.1-0.2,0.1-0.3,0.2c-0.1,0-0.4,0.1-0.8,0.1
			c-0.3,0-0.6,0-0.7-0.1c-0.2,0-0.3-0.1-0.3-0.2c-0.1-0.1-0.2-0.3-0.2-0.6v-19.8l-6.1,10.6c-0.1,0.2-0.2,0.4-0.4,0.5
			c-0.1,0.1-0.2,0.2-0.3,0.3c-0.1,0-0.2,0.1-0.4,0.1c-0.2,0-0.5,0.1-0.8,0.1s-0.7,0-0.8-0.1c-0.2,0-0.3-0.1-0.4-0.1
			c-0.1-0.1-0.2-0.2-0.3-0.3c-0.1-0.1-0.2-0.3-0.3-0.5l-6.1-9.8v19c0,0.2,0,0.3-0.1,0.4c0,0.1-0.1,0.2-0.2,0.2
			c-0.1,0.1-0.2,0.1-0.3,0.2c-0.2,0-0.4,0.1-0.8,0.1c-0.3,0-0.6,0-0.7-0.1c-0.2,0-0.3-0.1-0.3-0.2c-0.1-0.1-0.2-0.3-0.2-0.6v-22.2
			l-0.8-1.1c-0.1-0.1-0.2-0.3-0.2-0.4c-0.1-0.1-0.1-0.2-0.1-0.4c0-0.1,0.1-0.3,0.3-0.4s0.6-0.1,1.2-0.1c0.6,0,1,0,1.3,0.1
			c0.3,0.1,0.5,0.2,0.7,0.5l8.3,12.9l7.7-13c0.1-0.2,0.3-0.4,0.5-0.4c0.2-0.1,0.5-0.1,0.9-0.1c0.4,0,0.6,0,0.8,0.1
			c0.2,0,0.3,0.1,0.4,0.2c0.1,0.1,0.1,0.1,0.2,0.2c0,0.1,0.1,0.2,0.1,0.4V135L472.3,135z"/>
		<path class="st1" d="M495,134c0,0.2,0,0.4,0,0.6c0,0.2,0,0.3-0.1,0.4c-0.1,0.3-0.2,0.5-0.3,0.6c-0.1,0-0.1,0.1-0.2,0.1
			c-0.1,0-0.2,0-0.3,0h-12.7c-0.4,0-0.6,0-0.8-0.1c-0.2-0.1-0.3-0.1-0.3-0.2c-0.1-0.2-0.2-0.4-0.2-0.8v-23c0-0.4,0.1-0.6,0.2-0.8
			c0.1-0.1,0.2-0.1,0.3-0.2c0.2-0.1,0.4-0.1,0.8-0.1h12.9c0.1,0,0.2,0,0.3,0c0.1,0,0.1,0.1,0.2,0.1c0,0.1,0.1,0.1,0.1,0.2
			c0,0.1,0,0.2,0,0.3c0,0.2,0,0.4,0,0.6c0,0.2-0.1,0.3-0.1,0.4c-0.1,0.3-0.2,0.5-0.3,0.6c-0.1,0.1-0.3,0.1-0.5,0.1h-11.2v7.8h9.9
			c0.1,0,0.2,0,0.3,0c0.1,0,0.1,0.1,0.1,0.1c0.1,0.1,0.1,0.1,0.1,0.2c0,0.1,0,0.2,0,0.3c0,0.2,0,0.4,0,0.6c0,0.2-0.1,0.3-0.1,0.4
			c-0.1,0.3-0.2,0.5-0.3,0.6c-0.1,0.1-0.3,0.1-0.5,0.1h-9.5v10.1h11.8c0.1,0,0.2,0,0.3,0c0.1,0,0.1,0.1,0.2,0.1
			c0,0.1,0.1,0.1,0.1,0.2C495,133.7,495,133.8,495,134z"/>
		<path class="st1" d="M525.3,111.2c0,0.1,0,0.3,0,0.5s-0.1,0.4-0.1,0.5c-0.1,0.3-0.2,0.5-0.3,0.5c-0.1,0.1-0.3,0.1-0.5,0.1h-7.2
			V135c0,0.2,0,0.3-0.1,0.4c0,0.1-0.1,0.2-0.2,0.2c-0.1,0.1-0.2,0.1-0.4,0.2c-0.2,0-0.4,0.1-0.8,0.1c-0.3,0-0.6,0-0.8-0.1
			c-0.2,0-0.3-0.1-0.4-0.2c-0.1-0.1-0.2-0.3-0.2-0.6v-22.1h-7.6c-0.1,0-0.2,0-0.3,0c-0.1,0-0.1-0.1-0.2-0.1c0-0.1-0.1-0.1-0.1-0.2
			c0-0.1,0-0.2,0-0.3c0-0.1,0-0.3,0-0.5c0-0.2,0-0.4,0.1-0.5c0-0.1,0.1-0.2,0.1-0.3c0.1-0.1,0.1-0.2,0.2-0.2
			c0.1-0.1,0.3-0.1,0.5-0.1h17.5c0.1,0,0.2,0,0.3,0c0.1,0,0.1,0.1,0.1,0.1c0,0,0.1,0.1,0.1,0.2C525.3,111,525.3,111.1,525.3,111.2z"
			/>
		<path class="st1" d="M548.3,123.2c0,2.1-0.3,4-0.8,5.6c-0.5,1.6-1.3,3-2.2,4.1c-0.9,1.1-2.1,1.9-3.3,2.5c-1.3,0.6-2.7,0.9-4.2,0.9
			c-1.5,0-3-0.3-4.3-0.9c-1.3-0.6-2.4-1.4-3.4-2.5c-0.9-1.1-1.7-2.5-2.2-4.1c-0.5-1.6-0.8-3.5-0.8-5.6s0.3-4,0.8-5.6
			c0.5-1.6,1.3-3,2.2-4.1c0.9-1.1,2.1-2,3.4-2.5c1.3-0.6,2.7-0.9,4.3-0.9c1.5,0,2.9,0.3,4.2,0.9c1.3,0.6,2.4,1.4,3.3,2.5
			c0.9,1.1,1.7,2.5,2.2,4.1C548.1,119.2,548.3,121.1,548.3,123.2z M545.4,123.2c0-1.7-0.2-3.2-0.5-4.5c-0.3-1.3-0.8-2.5-1.5-3.4
			c-0.7-0.9-1.5-1.7-2.4-2.1c-0.9-0.5-2-0.8-3.2-0.8c-1.2,0-2.3,0.3-3.3,0.8c-1,0.5-1.8,1.2-2.4,2.1c-0.7,0.9-1.2,2.1-1.5,3.4
			c-0.3,1.3-0.5,2.8-0.5,4.5s0.2,3.1,0.5,4.5c0.3,1.3,0.8,2.4,1.5,3.4c0.7,0.9,1.5,1.6,2.4,2.1c1,0.5,2,0.7,3.3,0.7
			c1.2,0,2.3-0.2,3.2-0.7c0.9-0.5,1.7-1.2,2.4-2.1c0.7-0.9,1.2-2.1,1.5-3.4C545.3,126.3,545.4,124.8,545.4,123.2z"/>
		<path class="st1" d="M579.9,111.2c0,0.1,0,0.3,0,0.5s-0.1,0.4-0.1,0.5c-0.1,0.3-0.2,0.5-0.3,0.5c-0.1,0.1-0.3,0.1-0.5,0.1h-7.2
			V135c0,0.2,0,0.3-0.1,0.4s-0.1,0.2-0.2,0.2c-0.1,0.1-0.2,0.1-0.4,0.2c-0.2,0-0.4,0.1-0.8,0.1c-0.3,0-0.6,0-0.8-0.1
			c-0.2,0-0.3-0.1-0.4-0.2c-0.1-0.1-0.2-0.3-0.2-0.6v-22.1h-7.6c-0.1,0-0.2,0-0.3,0c-0.1,0-0.1-0.1-0.2-0.1c0-0.1-0.1-0.1-0.1-0.2
			c0-0.1,0-0.2,0-0.3c0-0.1,0-0.3,0-0.5c0-0.2,0-0.4,0.1-0.5c0-0.1,0.1-0.2,0.1-0.3c0.1-0.1,0.1-0.2,0.2-0.2
			c0.1-0.1,0.3-0.1,0.5-0.1h17.5c0.1,0,0.2,0,0.3,0c0.1,0,0.1,0.1,0.1,0.1c0,0,0.1,0.1,0.1,0.2C579.8,111,579.9,111.1,579.9,111.2z"
			/>
		<path class="st1" d="M602.6,135c0,0.2,0,0.3-0.1,0.4s-0.1,0.2-0.2,0.2c-0.1,0.1-0.2,0.1-0.3,0.2c-0.2,0-0.4,0.1-0.8,0.1
			c-0.3,0-0.6,0-0.8-0.1c-0.2,0-0.3-0.1-0.4-0.2c-0.1-0.1-0.1-0.1-0.2-0.2c0-0.1,0-0.2,0-0.4v-11.8h-12.5V135c0,0.2,0,0.3-0.1,0.4
			s-0.1,0.2-0.2,0.2c-0.1,0.1-0.2,0.1-0.3,0.2c-0.2,0-0.4,0.1-0.8,0.1c-0.3,0-0.6,0-0.8-0.1c-0.2,0-0.3-0.1-0.4-0.2
			c-0.1-0.1-0.2-0.3-0.2-0.6v-23.7c0-0.2,0-0.3,0-0.4s0.1-0.2,0.1-0.2s0.2-0.1,0.4-0.2c0.2,0,0.4-0.1,0.8-0.1c0.4,0,0.6,0,0.8,0.1
			c0.2,0,0.3,0.1,0.3,0.2c0.1,0.1,0.1,0.1,0.2,0.2s0.1,0.2,0.1,0.4v9.6H600v-9.6c0-0.2,0-0.3,0-0.4s0.1-0.2,0.2-0.2
			c0.1-0.1,0.2-0.1,0.4-0.2c0.2,0,0.4-0.1,0.8-0.1c0.4,0,0.6,0,0.8,0.1c0.2,0,0.3,0.1,0.3,0.2c0.1,0.1,0.1,0.1,0.2,0.2
			s0.1,0.2,0.1,0.4L602.6,135L602.6,135z"/>
		<path class="st1" d="M625.3,134c0,0.2,0,0.4,0,0.6c0,0.2,0,0.3-0.1,0.4c-0.1,0.3-0.2,0.5-0.3,0.6c-0.1,0-0.1,0.1-0.2,0.1
			c-0.1,0-0.2,0-0.3,0h-12.7c-0.4,0-0.6,0-0.8-0.1c-0.2-0.1-0.3-0.1-0.3-0.2c-0.1-0.2-0.2-0.4-0.2-0.8v-23c0-0.4,0.1-0.6,0.2-0.8
			c0.1-0.1,0.2-0.1,0.3-0.2c0.2-0.1,0.4-0.1,0.8-0.1h12.9c0.1,0,0.2,0,0.3,0c0.1,0,0.1,0.1,0.2,0.1c0,0.1,0.1,0.1,0.1,0.2
			c0,0.1,0,0.2,0,0.3c0,0.2,0,0.4,0,0.6s0,0.3-0.1,0.4c-0.1,0.3-0.2,0.5-0.3,0.6c-0.1,0.1-0.3,0.1-0.5,0.1H613v7.8h9.9
			c0.1,0,0.2,0,0.3,0c0.1,0,0.1,0.1,0.1,0.1c0,0.1,0.1,0.1,0.1,0.2c0,0.1,0,0.2,0,0.3c0,0.2,0,0.4,0,0.6c0,0.2-0.1,0.3-0.1,0.4
			c-0.1,0.3-0.2,0.5-0.3,0.6c-0.1,0.1-0.3,0.1-0.5,0.1H613v10.1h11.8c0.1,0,0.2,0,0.3,0c0.1,0,0.1,0.1,0.2,0.1
			c0,0.1,0.1,0.1,0.1,0.2C625.3,133.7,625.3,133.8,625.3,134z"/>
	</g>
	<g>
		<path class="st1" d="M378.1,153.3c0,0.1,0,0.3-0.1,0.5c0,0.2-0.1,0.5-0.2,0.8l-10.3,39.2c-0.1,0.2-0.1,0.4-0.2,0.6
			c-0.1,0.2-0.2,0.3-0.4,0.4c-0.2,0.1-0.4,0.2-0.7,0.2c-0.3,0-0.7,0.1-1.2,0.1c-0.5,0-0.9,0-1.2-0.1c-0.3-0.1-0.6-0.1-0.8-0.2
			s-0.3-0.2-0.4-0.4c-0.1-0.2-0.2-0.4-0.2-0.6l-7.4-27.2l-7.5,27.2c-0.1,0.2-0.1,0.4-0.2,0.6c-0.1,0.2-0.2,0.3-0.4,0.4
			s-0.4,0.2-0.8,0.2c-0.3,0-0.7,0.1-1.2,0.1c-0.5,0-0.9,0-1.2-0.1c-0.3-0.1-0.6-0.1-0.8-0.2c-0.2-0.1-0.3-0.2-0.4-0.4
			c-0.1-0.2-0.2-0.4-0.2-0.6l-10.6-39.2c-0.1-0.2-0.1-0.5-0.2-0.7s-0.1-0.4-0.1-0.6c0-0.2,0.1-0.5,0.4-0.6c0.3-0.2,0.8-0.3,1.6-0.3
			c0.6,0,1.1,0,1.4,0.1c0.3,0.1,0.5,0.2,0.6,0.3c0.3,0.2,0.5,0.6,0.6,1.1l9,34.8l7.9-29.1l-1.3-4.8c-0.1-0.4-0.2-0.7-0.2-0.9
			c0-0.2-0.1-0.4-0.1-0.6c0-0.2,0.1-0.5,0.4-0.7c0.3-0.2,0.8-0.3,1.6-0.3c0.6,0,1.1,0,1.4,0.1c0.3,0.1,0.5,0.2,0.6,0.3
			c0.1,0.1,0.2,0.3,0.3,0.4c0.1,0.2,0.2,0.5,0.3,0.9l9,34.6l8.6-34.9c0.1-0.6,0.3-0.9,0.6-1.1c0.1-0.1,0.3-0.2,0.6-0.2
			s0.7-0.1,1.3-0.1c0.7,0,1.3,0.1,1.5,0.2C377.9,152.8,378.1,153,378.1,153.3z"/>
		<path class="st1" d="M418.6,173.8c0,3.5-0.4,6.6-1.3,9.3s-2.1,5-3.6,6.9s-3.4,3.3-5.5,4.2c-2.1,1-4.4,1.4-6.9,1.4
			c-2.5,0-4.9-0.5-7-1.4c-2.1-1-4-2.4-5.5-4.2c-1.5-1.9-2.7-4.1-3.6-6.9c-0.9-2.7-1.3-5.8-1.3-9.3s0.4-6.6,1.3-9.4
			c0.9-2.7,2.1-5,3.6-6.9c1.5-1.9,3.4-3.3,5.5-4.3c2.1-1,4.5-1.5,7-1.5c2.5,0,4.8,0.5,6.9,1.5c2.1,1,4,2.4,5.5,4.3
			c1.5,1.9,2.7,4.2,3.6,6.9C418.2,167.2,418.6,170.3,418.6,173.8z M413.8,173.8c0-2.8-0.3-5.3-0.8-7.5c-0.6-2.2-1.4-4.1-2.5-5.7
			c-1.1-1.6-2.4-2.8-4-3.6s-3.3-1.3-5.3-1.3c-2,0-3.8,0.4-5.3,1.3c-1.6,0.8-2.9,2-4,3.6c-1.1,1.6-1.9,3.5-2.5,5.7
			c-0.6,2.2-0.8,4.7-0.8,7.5c0,2.8,0.3,5.3,0.8,7.5c0.6,2.2,1.4,4.1,2.5,5.7s2.4,2.7,4,3.6c1.6,0.8,3.3,1.2,5.3,1.2
			c2,0,3.8-0.4,5.3-1.2c1.6-0.8,2.9-2,4-3.6s1.9-3.4,2.5-5.7C413.6,179.1,413.8,176.6,413.8,173.8z"/>
		<path class="st1" d="M457.7,194.1c0,0.1,0,0.3-0.1,0.4c0,0.1-0.1,0.2-0.3,0.3c-0.1,0.1-0.4,0.1-0.7,0.2c-0.3,0.1-0.9,0.1-1.6,0.1
			c-0.5,0-0.8,0-1.1,0c-0.3,0-0.5-0.1-0.7-0.2c-0.2-0.1-0.4-0.2-0.5-0.3s-0.3-0.3-0.4-0.5l-11.1-17.3c-1.6,0-2.9,0-4.2,0
			c-1.2,0-2.3-0.1-3.4-0.1v17.2c0,0.3,0,0.5-0.1,0.6c-0.1,0.1-0.1,0.3-0.3,0.4c-0.1,0.1-0.3,0.2-0.6,0.3c-0.3,0.1-0.7,0.1-1.2,0.1
			c-0.5,0-0.9,0-1.2-0.1c-0.3-0.1-0.5-0.2-0.6-0.3c-0.2-0.1-0.3-0.5-0.3-1v-39.2c0-0.6,0.1-1.1,0.4-1.3c0.1-0.1,0.3-0.2,0.6-0.3
			c0.3-0.1,0.7-0.1,1.2-0.1h10c2.4,0,4.4,0.3,6.1,0.8c1.7,0.5,3.1,1.2,4.2,2.2c1.1,1,1.9,2.2,2.5,3.6c0.5,1.4,0.8,3,0.8,4.8
			c0,1.4-0.2,2.8-0.5,4c-0.3,1.2-0.8,2.4-1.6,3.4c-0.7,1-1.7,1.9-2.9,2.7c-1.2,0.8-2.7,1.4-4.4,1.9l11.6,17.2
			c0.1,0.2,0.2,0.3,0.2,0.4C457.7,193.9,457.7,194,457.7,194.1z M450.4,164.4c0-2.5-0.7-4.5-2.2-5.8c-1.5-1.4-3.8-2.1-7-2.1h-7.7v16
			c0.9,0,1.9,0.1,3.1,0.2c1.2,0.1,2.4,0.1,3.6,0.1c1.8,0,3.4-0.2,4.7-0.6c1.3-0.4,2.3-0.9,3.1-1.6c0.8-0.7,1.4-1.6,1.8-2.6
			C450.2,167,450.4,165.8,450.4,164.4z"/>
		<path class="st1" d="M490.1,191.9c0,0.3,0,0.6-0.1,1s-0.1,0.6-0.1,0.7c-0.1,0.5-0.3,0.9-0.5,1c-0.2,0.1-0.5,0.2-0.9,0.2h-20
			c-0.6,0-1,0-1.2-0.1c-0.3-0.1-0.4-0.2-0.6-0.3c-0.2-0.3-0.4-0.7-0.4-1.3v-39.2c0-0.3,0-0.5,0.1-0.6c0-0.1,0.1-0.3,0.2-0.4
			c0.1-0.1,0.3-0.2,0.6-0.3c0.3-0.1,0.7-0.1,1.3-0.1c0.6,0,1,0,1.3,0.1c0.3,0.1,0.5,0.2,0.6,0.3c0.1,0.1,0.2,0.2,0.3,0.4
			c0.1,0.1,0.1,0.4,0.1,0.6v36.9h18.5c0.2,0,0.4,0,0.5,0.1c0.1,0,0.2,0.1,0.2,0.2c0.1,0.1,0.1,0.2,0.1,0.3
			C490.1,191.4,490.1,191.6,490.1,191.9z"/>
		<path class="st1" d="M529.7,173.6c0,3.4-0.4,6.4-1.2,9.1c-0.8,2.6-2,4.9-3.6,6.6s-3.4,3.1-5.6,4.1c-2.2,0.9-4.6,1.4-7.3,1.4h-11.5
			c-0.6,0-1,0-1.2-0.1c-0.3-0.1-0.4-0.2-0.6-0.3c-0.2-0.3-0.4-0.7-0.4-1.3v-38.6c0-0.6,0.1-1.1,0.4-1.3c0.1-0.1,0.3-0.2,0.6-0.3
			c0.3-0.1,0.7-0.1,1.2-0.1H512c2.7,0,5.1,0.4,7.3,1.3s4,2.2,5.6,4c1.5,1.8,2.7,3.9,3.6,6.5C529.2,167.2,529.7,170.2,529.7,173.6z
			 M524.9,173.6c0-2.7-0.3-5.1-0.8-7.2c-0.5-2.1-1.4-3.9-2.5-5.3c-1.1-1.5-2.5-2.6-4.1-3.3c-1.7-0.8-3.6-1.1-5.8-1.1h-9v34.1h9.4
			c2.1,0,4-0.4,5.6-1.2s3-1.9,4-3.4s1.9-3.3,2.4-5.4C524.6,178.7,524.9,176.3,524.9,173.6z"/>
		<path class="st1" d="M591.4,173.8c0,3.5-0.4,6.6-1.3,9.3c-0.9,2.7-2.1,5-3.6,6.9s-3.4,3.3-5.5,4.2c-2.1,1-4.4,1.4-6.9,1.4
			c-2.5,0-4.9-0.5-7-1.4c-2.1-1-4-2.4-5.5-4.2c-1.5-1.9-2.7-4.1-3.6-6.9c-0.9-2.7-1.3-5.8-1.3-9.3s0.4-6.6,1.3-9.4
			c0.9-2.7,2.1-5,3.6-6.9c1.5-1.9,3.4-3.3,5.5-4.3c2.1-1,4.5-1.5,7-1.5c2.5,0,4.8,0.5,6.9,1.5c2.1,1,4,2.4,5.5,4.3
			c1.5,1.9,2.7,4.2,3.6,6.9C591,167.2,591.4,170.3,591.4,173.8z M586.6,173.8c0-2.8-0.3-5.3-0.8-7.5c-0.6-2.2-1.4-4.1-2.5-5.7
			c-1.1-1.6-2.4-2.8-4-3.6s-3.3-1.3-5.3-1.3c-2,0-3.8,0.4-5.3,1.3s-2.9,2-4,3.6c-1.1,1.6-1.9,3.5-2.5,5.7c-0.6,2.2-0.8,4.7-0.8,7.5
			c0,2.8,0.3,5.3,0.8,7.5c0.6,2.2,1.4,4.1,2.5,5.7c1.1,1.6,2.4,2.7,4,3.6c1.6,0.8,3.3,1.2,5.3,1.2c2,0,3.8-0.4,5.3-1.2
			c1.6-0.8,2.9-2,4-3.6c1.1-1.6,1.9-3.4,2.5-5.7C586.3,179.1,586.6,176.6,586.6,173.8z"/>
		<path class="st1" d="M625.8,153.8c0,0.3,0,0.6-0.1,1s-0.1,0.6-0.1,0.7c-0.1,0.5-0.3,0.9-0.5,1c-0.2,0.1-0.5,0.2-0.9,0.2h-17.8
			v13.1h15.6c0.2,0,0.4,0,0.5,0.1c0.1,0,0.2,0.1,0.3,0.2c0.1,0.1,0.1,0.2,0.1,0.3c0,0.1,0,0.3,0,0.6c0,0.3,0,0.6-0.1,0.9
			c0,0.3-0.1,0.6-0.1,0.7c-0.1,0.5-0.3,0.9-0.5,1c-0.1,0.1-0.2,0.1-0.3,0.1c-0.1,0-0.3,0-0.5,0h-15v19.8c0,0.3,0,0.5-0.1,0.6
			c-0.1,0.1-0.1,0.3-0.3,0.4c-0.1,0.1-0.3,0.2-0.6,0.3c-0.3,0.1-0.7,0.1-1.3,0.1c-0.6,0-1,0-1.3-0.1c-0.3-0.1-0.5-0.2-0.6-0.3
			c-0.2-0.1-0.3-0.5-0.3-1v-39.2c0-0.6,0.1-1.1,0.4-1.3c0.1-0.1,0.3-0.2,0.6-0.3c0.3-0.1,0.7-0.1,1.2-0.1h20.6c0.2,0,0.4,0,0.5,0.1
			c0.1,0,0.2,0.1,0.2,0.2c0.1,0.1,0.1,0.2,0.1,0.3C625.8,153.4,625.8,153.6,625.8,153.8z"/>
	</g>
	<g>
		<path class="st1" d="M624.8,70.7H335.2c-2.6,0-4.7-2.1-4.7-4.7c0-2.6,2.1-4.7,4.7-4.7h289.6c2.6,0,4.7,2.1,4.7,4.7
			C629.5,68.6,627.4,70.7,624.8,70.7z"/>
	</g>
	<g>
		<path class="st1" d="M624.8,413.1H335.2c-2.6,0-4.7-2.1-4.7-4.7c0-2.6,2.1-4.7,4.7-4.7h289.6c2.6,0,4.7,2.1,4.7,4.7
			C629.5,411,627.4,413.1,624.8,413.1z"/>
	</g>
	<g>
		<g>
			<path class="st2" d="M343.3,271.8h37.6c3.7,0,6.5,1.2,7.5,6.4c1.2,5.8,0.7,9.9-5.8,10.3l-11.8,0.9c8.7,54.8,59.4,72.7,87.1,13.6
				c4.6-9.8,6.1-11.6,11.1-10.3c6.8,1.7,7.7,5.2,4.5,15c-23.9,72.8-104.2,80.1-120-17.1l-9.6,0.7c-7.8,0.5-8.1-6-8.1-9.7
				C335.8,274.4,338.5,271.8,343.3,271.8"/>
		</g>
		<g>
			<path class="st2" d="M479.9,236.6c7.7,0,13.9,6.2,13.9,13.9c0,7.7-6.2,14-13.9,14c-7.7,0-14-6.2-14-14
				C465.9,242.9,472.2,236.6,479.9,236.6"/>
		</g>
		<g>
			<g>
				<path class="st2" d="M554.6,299.4c0,0.4,0,0.8-0.1,1.2c0,0.4-0.3,2.6-0.4,3c-0.1,0.4-0.2,0.8-0.3,1.1s-0.2,0.6-0.3,0.9
					c-0.3,0.4-0.6,0.7-1,0.9c-0.4,0.1-1,0.2-1.7,0.2h-11.4v37.2c0,0.5,0,0.9-0.1,1.2c-0.1,0.2-0.2,0.4-0.5,0.6
					c-0.3,0.2-0.7,0.4-1.4,0.5c-0.6,0.1-1.5,0.2-2.6,0.2c-1.1,0-3.5-0.1-4.2-0.2c-0.6-0.1-1.1-0.3-1.4-0.5c-0.2-0.2-0.4-0.5-0.5-0.7
					c-0.1-0.2-0.1-0.6-0.1-1.1v-37.3h-12.2c-0.5,0-0.9,0-1.2-0.1c-0.2-0.1-0.4-0.1-0.6-0.2c-0.2-0.1-0.4-0.3-0.5-0.6
					c-0.1-0.3-0.1-0.6-0.1-1c0-0.4,0-0.8,0.1-1.2c0-0.4,0.1-2.6,0.2-3c0.1-0.4,0.2-0.8,0.3-1.1c0.1-0.3,0.2-0.6,0.4-0.8
					c0.3-0.4,0.6-0.7,1-0.9c0.4-0.1,1-0.2,1.6-0.2h34.6c0.5,0,0.9,0,1.2,0.1c0.3,0.1,0.5,0.1,0.6,0.2
					C554.4,298,554.6,298.6,554.6,299.4z"/>
			</g>
			<g>
				<path class="st2" d="M602.1,330.5c0,2.4-0.4,4.6-1.1,6.6c-0.7,2-1.9,3.8-3.5,5.3c-1.6,1.5-3.6,2.6-6.2,3.5s-4.7,1.3-8.2,1.3
					c-3.6,0-6.6-0.4-9.1-1.2c-2.5-0.8-4.6-2-6.2-3.4c-1.6-1.5-2.8-3.2-3.5-5.2c-0.7-2-1.1-4.2-1.1-6.6v-30.8c0-0.5,0-0.9,0.1-1.2
					c0.1-0.2,0.3-0.4,0.5-0.6c0.3-0.2,0.7-0.4,1.4-0.5c0.6-0.1,2.9-0.2,4-0.2c1,0,1.9,0.1,2.5,0.2s1.1,0.3,1.4,0.5
					c0.2,0.2,0.4,0.4,0.5,0.7c0.1,0.2,0.1,0.6,0.1,1.1v29.1c0,1.2,0.2,3,0.6,4.1c0.4,1.1,1,2,1.9,2.8c0.9,0.8,1.2,0.9,2,1.2
					c1.3,0.5,3,0.7,4.8,0.7c1.9,0,3.6,0,4.8-0.7c0.6-0.3,0.3-0.1,0.9-0.6c0.9-0.7,1.5-1.7,1.9-2.8c0.4-1.1,0.6-3.5,0.6-4.8v-29
					c0-0.5,0-0.9,0.1-1.2s0.3-0.4,0.5-0.6c0.3-0.2,0.7-0.4,1.3-0.5c0.6-0.1,1.5-0.2,2.6-0.2c1.1,0,3.5,0.1,4.1,0.2
					c0.6,0.1,1.1,0.3,1.4,0.5c0.2,0.2,0.4,0.4,0.5,0.7c0.1,0.2,0.1,0.6,0.1,1.1L602.1,330.5L602.1,330.5z"/>
			</g>
			<g>
				<path class="st2" d="M624.2,343.8c0,0.5-0.1,0.9-0.2,1.2c-0.1,0.2-0.3,0.4-0.5,0.6c-0.3,0.2-0.9,0.4-1.6,0.5
					c-0.8,0.1-1.8,0.2-3.1,0.2c-1.3,0-2.3-0.1-3.1-0.2c-0.8-0.1-1.3-0.3-1.6-0.5c-0.3-0.2-0.5-0.5-0.6-0.7c-0.1-0.2-0.2-0.6-0.2-1.1
					v-44.2c0-0.5,0.1-0.9,0.2-1.2c0.1-0.2,0.3-0.4,0.6-0.6c0.3-0.2,0.9-0.4,1.6-0.5c0.7-0.1,1.7-0.2,3-0.2c1.3,0,2.4,0.1,3.2,0.2
					c0.8,0.1,1.3,0.3,1.6,0.5c0.3,0.2,0.5,0.4,0.6,0.7c0.1,0.2,0.2,0.6,0.2,1.1L624.2,343.8L624.2,343.8z"/>
			</g>
		</g>
	</g>
</g>
</svg>
