<?xml version="1.0" encoding="utf-8"?>
<!-- Generator: Adobe Illustrator 20.0.0, SVG Export Plug-In . SVG Version: 6.00 Build 0)  -->
<svg version="1.1" id="Layer_1" xmlns="http://www.w3.org/2000/svg" xmlns:xlink="http://www.w3.org/1999/xlink" x="0px" y="0px"
	 viewBox="0 0 209.4 224.8" style="enable-background:new 0 0 209.4 224.8;" xml:space="preserve">
<style type="text/css">
	.st0{fill:#FFFFFF;}
</style>
<g>
	<g>
		<g>
			<g>
				<path class="st0" d="M0,10.7c0-1,0-2,0-3h3c0,1,0,2,0,3L0,10.7z"/>
			</g>
		</g>
		<g>
			<g>
				<path class="st0" d="M118.6,121.9c-1.9-0.1-3.9-0.3-5.9-0.6l0.4-3c1.9,0.2,3.9,0.4,5.8,0.6L118.6,121.9z M106.8,120.4
					c-1.9-0.3-3.9-0.7-5.8-1.1l0.6-2.9c1.9,0.4,3.8,0.8,5.7,1.1L106.8,120.4z M95.2,118c-1.9-0.5-3.8-1-5.7-1.6l0.9-2.9
					c1.8,0.5,3.7,1.1,5.6,1.5L95.2,118z M83.9,114.6c-1.9-0.6-3.7-1.3-5.6-2l1.1-2.8c1.8,0.7,3.6,1.4,5.5,2L83.9,114.6z M72.8,110.4
					c-1.8-0.8-3.6-1.6-5.4-2.5l1.3-2.7c1.7,0.8,3.5,1.6,5.3,2.4L72.8,110.4z M62.1,105.2c-1.7-0.9-3.5-1.9-5.2-2.9l1.5-2.6
					c1.7,1,3.4,1.9,5.1,2.8L62.1,105.2z M51.9,99.2c-1.7-1.1-3.3-2.2-4.9-3.3l1.7-2.4c1.6,1.1,3.2,2.2,4.8,3.3L51.9,99.2z
					 M42.2,92.4c-1.6-1.2-3.1-2.5-4.6-3.8l2-2.3c1.5,1.2,3,2.5,4.5,3.7L42.2,92.4z M33.2,84.6c-1.4-1.4-2.9-2.8-4.2-4.2l2.2-2.1
					c1.3,1.4,2.7,2.8,4.1,4.1L33.2,84.6z M25.1,76c-1.3-1.5-2.5-3.1-3.7-4.6l2.4-1.8c1.2,1.5,2.4,3,3.6,4.5L25.1,76z M17.8,66.6
					c-1.1-1.6-2.2-3.3-3.2-5l2.6-1.5c1,1.6,2,3.3,3.1,4.9L17.8,66.6z M11.7,56.4c-0.9-1.8-1.8-3.5-2.6-5.3l2.7-1.2
					c0.8,1.7,1.6,3.5,2.5,5.2L11.7,56.4z M6.8,45.6c-0.7-1.8-1.4-3.7-2-5.6L7.7,39c0.6,1.8,1.2,3.7,1.9,5.4L6.8,45.6z M3.2,34.2
					c-0.5-1.9-0.9-3.9-1.3-5.8l2.9-0.6c0.4,1.9,0.8,3.8,1.3,5.6L3.2,34.2z M1,22.6c-0.3-1.9-0.5-3.9-0.6-5.9l3-0.2
					c0.2,1.9,0.4,3.9,0.6,5.7L1,22.6z"/>
			</g>
		</g>
		<g>
			<g>
				<path class="st0" d="M127.5,122.2c-1,0-2,0-3,0l0.1-3c1,0,2,0,3,0L127.5,122.2L127.5,122.2z"/>
			</g>
		</g>
	</g>
	<g>
		<g>
			<g>
				<path class="st0" d="M126.7,224.7c-0.8,0-1.5,0-2.3,0l0-3c1,0,2,0,3,0l0,3C127.2,224.7,127,224.7,126.7,224.7z"/>
			</g>
		</g>
		<g>
			<g>
				<path class="st0" d="M118.3,224.4c-2.1-0.1-4.1-0.3-6.1-0.6l0.4-3c2,0.2,4,0.4,6,0.5L118.3,224.4z M106,223
					c-2-0.4-4.1-0.8-6.1-1.2l0.7-2.9c1.9,0.5,3.9,0.9,5.9,1.2L106,223z M94,220.1c-2-0.6-4-1.3-5.9-2l1-2.8c1.9,0.7,3.8,1.3,5.7,1.9
					L94,220.1z M82.4,215.9c-1.9-0.8-3.8-1.7-5.6-2.7l1.4-2.7c1.8,0.9,3.6,1.8,5.4,2.6L82.4,215.9z M71.5,210.1
					c-1.7-1.1-3.5-2.2-5.2-3.4l1.7-2.5c1.6,1.1,3.3,2.3,5,3.3L71.5,210.1z M61.3,203c-1.6-1.3-3.2-2.6-4.7-4l2-2.2
					c1.5,1.3,3,2.7,4.6,3.9L61.3,203z M52.2,194.6c-1.4-1.5-2.8-3-4.2-4.5l2.3-2c1.3,1.5,2.7,3,4.1,4.4L52.2,194.6z M44.1,185.4
					c-1.3-1.6-2.5-3.3-3.7-4.9l2.4-1.7c1.2,1.6,2.4,3.3,3.6,4.8L44.1,185.4z M36.9,175.3c-1.1-1.7-2.2-3.5-3.2-5.3l2.6-1.5
					c1,1.8,2.1,3.5,3.2,5.1L36.9,175.3z M30.7,164.7c-1-1.8-1.9-3.6-2.8-5.5l2.7-1.3c0.9,1.8,1.8,3.6,2.8,5.4L30.7,164.7z
					 M25.3,153.6c-0.8-1.8-1.6-3.7-2.4-5.7l2.8-1.1c0.8,1.9,1.6,3.8,2.4,5.6L25.3,153.6z M20.6,142.2c-0.7-1.9-1.4-3.8-2.1-5.8
					l2.8-1c0.7,1.9,1.4,3.8,2.1,5.7L20.6,142.2z M16.6,130.6c-0.6-1.9-1.2-3.9-1.8-5.9l2.9-0.8c0.6,2,1.2,3.9,1.8,5.8L16.6,130.6z
					 M13.2,118.9c-0.5-2-1-3.9-1.5-5.9l2.9-0.7c0.5,2,1,3.9,1.5,5.9L13.2,118.9z M10.2,106.9c-0.4-2-0.9-4-1.3-6l2.9-0.6
					c0.4,2,0.8,4,1.3,5.9L10.2,106.9z M7.8,94.9c-0.4-2-0.7-4-1.1-6l3-0.5c0.3,2,0.7,4,1.1,6L7.8,94.9z M5.7,82.9
					c-0.3-2-0.6-4-0.9-6.1l3-0.4c0.3,2,0.6,4,0.9,6L5.7,82.9z M4,70.7c-0.3-2-0.5-4-0.7-6.1l3-0.3c0.2,2,0.5,4,0.7,6L4,70.7z
					 M2.6,58.6c-0.2-2-0.4-4-0.6-6.1l3-0.3c0.2,2,0.4,4.1,0.6,6.1L2.6,58.6z M1.5,46.4c-0.2-2-0.3-4.1-0.4-6.1l3-0.2
					c0.1,2,0.3,4.1,0.4,6.1L1.5,46.4z M0.7,34.1c-0.1-2-0.2-4.1-0.3-6.1l3-0.1c0.1,2,0.2,4.1,0.3,6.1L0.7,34.1z"/>
			</g>
		</g>
		<g>
			<g>
				<path class="st0" d="M0.1,21.8c0-1-0.1-2-0.1-3l3-0.1c0,1,0.1,2,0.1,3L0.1,21.8z"/>
			</g>
		</g>
	</g>
	<g>
		<path class="st0" d="M46.8,3.5c0,0.5-0.1,0.9-0.3,1.4c-0.2,0.4-0.4,0.8-0.8,1.1S45,6.6,44.5,6.8C43.9,6.9,43.3,7,42.6,7
			c-0.2,0-0.4,0-0.5,0c-0.1,0-0.3,0-0.4,0c-0.1,0-0.2,0-0.3,0c-0.1,0-0.2,0-0.3,0v4c0,0.1,0,0.2,0,0.3c0,0.1-0.1,0.1-0.1,0.1
			c-0.1,0-0.2,0.1-0.3,0.1s-0.3,0-0.6,0c-0.2,0-0.4,0-0.5,0c-0.1,0-0.2-0.1-0.3-0.1c0-0.1-0.1-0.1-0.1-0.2c0-0.1,0-0.1,0-0.3V0.8
			c0-0.1,0-0.2,0-0.3c0-0.1,0.1-0.1,0.1-0.2s0.1-0.1,0.3-0.1c0.1,0,0.3,0,0.5,0h2.6c0.6,0,1.2,0.1,1.7,0.2c0.5,0.1,1,0.3,1.3,0.6
			s0.6,0.6,0.8,1S46.8,3,46.8,3.5z M44.8,3.5c0-0.5-0.2-0.9-0.5-1.2s-0.9-0.4-1.7-0.4h-1.5v3.5c0.2,0,0.4,0,0.6,0c0.2,0,0.4,0,0.7,0
			c0.4,0,0.8,0,1.1-0.1C43.8,5.2,44,5,44.2,4.9c0.2-0.2,0.3-0.4,0.4-0.6S44.8,3.8,44.8,3.5z"/>
		<path class="st0" d="M55.6,10.2c0,0.1,0,0.2,0,0.3c0,0.1,0,0.2,0,0.3c0,0.1,0,0.2-0.1,0.3c0,0.1,0,0.1-0.1,0.2
			c0,0.1-0.1,0.2-0.2,0.2c-0.1,0-0.2,0-0.4,0h-5.4c-0.2,0-0.4,0-0.5,0c-0.1,0-0.2-0.1-0.3-0.1s-0.1-0.1-0.1-0.2c0-0.1,0-0.2,0-0.3
			V0.8c0-0.1,0-0.2,0-0.3c0-0.1,0.1-0.1,0.1-0.1c0.1,0,0.2-0.1,0.3-0.1c0.1,0,0.3,0,0.6,0c0.2,0,0.4,0,0.6,0c0.1,0,0.2,0.1,0.3,0.1
			c0.1,0,0.1,0.1,0.1,0.2s0,0.1,0,0.3v9H55c0.1,0,0.2,0,0.3,0c0.1,0,0.1,0,0.1,0.1c0,0,0.1,0.1,0.1,0.1C55.5,10,55.6,10.1,55.6,10.2
			z"/>
		<path class="st0" d="M65.2,11.1c0,0,0,0.1,0,0.1s-0.1,0.1-0.1,0.1c0,0-0.1,0.1-0.3,0.1c-0.1,0-0.3,0-0.6,0c-0.3,0-0.5,0-0.6,0
			s-0.2-0.1-0.3-0.1c-0.1-0.1-0.2-0.2-0.2-0.4l-0.8-2.3h-4l-0.7,2.2c0,0.1-0.1,0.2-0.1,0.3c0,0.1-0.1,0.1-0.1,0.2
			c-0.1,0-0.2,0.1-0.3,0.1c-0.1,0-0.3,0-0.6,0c-0.2,0-0.4,0-0.5,0c-0.1,0-0.2-0.1-0.3-0.1c-0.1-0.1-0.1-0.1-0.1-0.2c0,0,0-0.1,0-0.2
			s0-0.2,0.1-0.2l3.5-10.1c0-0.1,0.1-0.2,0.1-0.2c0,0,0.1-0.1,0.1-0.1c0.1,0,0.2-0.1,0.3-0.1c0.1,0,0.3,0,0.6,0c0.3,0,0.5,0,0.6,0
			c0.1,0,0.2,0.1,0.3,0.1c0,0,0.1,0.1,0.1,0.1c0,0,0.1,0.1,0.1,0.2l3.6,10.2c0,0.1,0,0.1,0.1,0.2S65.2,11.1,65.2,11.1z M60.4,2.6
			l-1.5,4.5h3L60.4,2.6z"/>
		<path class="st0" d="M74.2,10.5c0,0.1,0,0.2-0.1,0.2c-0.1,0.1-0.2,0.2-0.3,0.3c-0.1,0-0.2,0.1-0.3,0.1c-0.1,0-0.2,0.1-0.3,0.1
			c-0.1,0-0.2,0.1-0.4,0.1c-0.1,0-0.2,0.1-0.3,0.1c-0.2,0-0.5,0.1-0.8,0.1c-0.3,0-0.6,0.1-1,0.1c-0.7,0-1.4-0.1-2-0.4
			c-0.6-0.3-1.2-0.6-1.6-1.1s-0.8-1.1-1.1-1.8c-0.3-0.7-0.4-1.5-0.4-2.5s0.1-1.8,0.4-2.5c0.3-0.7,0.6-1.3,1.1-1.8
			c0.4-0.5,1-0.9,1.6-1.2S70,0,70.7,0c0.4,0,0.7,0,1,0c0.3,0,0.5,0.1,0.7,0.1c0.2,0,0.4,0.1,0.6,0.2c0.2,0.1,0.3,0.1,0.4,0.2
			c0.3,0.1,0.4,0.2,0.5,0.3s0.2,0.2,0.2,0.3c0,0.1,0,0.2-0.1,0.3S74,1.7,73.9,1.9c-0.1,0.1-0.1,0.2-0.2,0.3s-0.1,0.1-0.1,0.2
			s-0.1,0.1-0.1,0.1c0,0-0.1,0-0.1,0c-0.1,0-0.2,0-0.3-0.1c-0.1,0-0.2-0.1-0.3-0.1c0,0-0.1-0.1-0.2-0.1C72.3,2,72.2,2,72,1.9
			s-0.3-0.1-0.5-0.1c-0.2,0-0.4-0.1-0.7-0.1c-0.5,0-0.9,0.1-1.2,0.3c-0.4,0.2-0.7,0.4-0.9,0.8c-0.3,0.3-0.5,0.8-0.6,1.3
			c-0.1,0.5-0.2,1.1-0.2,1.8c0,0.7,0.1,1.3,0.2,1.8c0.2,0.5,0.4,0.9,0.6,1.3c0.3,0.3,0.6,0.6,0.9,0.8s0.7,0.3,1.2,0.3
			c0.3,0,0.5,0,0.7,0c0.2,0,0.4-0.1,0.6-0.1c0.2,0,0.3-0.1,0.4-0.2c0.1-0.1,0.2-0.1,0.3-0.1c0.1-0.1,0.2-0.1,0.3-0.1s0.1,0,0.2,0
			c0.1,0,0.2,0,0.3,0.1c0.1,0.1,0.2,0.2,0.3,0.4C74.1,10.1,74.2,10.3,74.2,10.5z"/>
		<path class="st0" d="M82.9,10.2c0,0.2,0,0.4,0,0.6c0,0.2-0.1,0.4-0.1,0.5c0,0.1-0.1,0.2-0.2,0.2c-0.1,0-0.2,0-0.4,0h-5.6
			c-0.2,0-0.4,0-0.5,0c-0.1,0-0.2-0.1-0.3-0.1s-0.1-0.1-0.1-0.2c0-0.1,0-0.2,0-0.3v-10c0-0.1,0-0.2,0-0.3s0.1-0.1,0.1-0.2
			c0,0,0.1-0.1,0.2-0.1c0.1,0,0.3,0,0.6,0h5.8c0.1,0,0.2,0,0.3,0c0.1,0,0.1,0,0.1,0c0,0,0.1,0.1,0.1,0.1s0,0.1,0,0.2
			c0,0.1,0,0.2,0,0.3c0,0.1,0,0.2,0,0.3c0,0.1,0,0.2-0.1,0.3c0,0.1,0,0.1-0.1,0.2c-0.1,0.1-0.1,0.2-0.2,0.2c-0.1,0-0.2,0-0.4,0h-4.4
			v2.7h4c0.1,0,0.2,0,0.3,0c0.1,0,0.1,0,0.1,0.1c0,0,0.1,0.1,0.1,0.1c0,0.1,0,0.1,0,0.2c0,0.1,0,0.2,0,0.3s0,0.2,0,0.3
			c0,0.1,0,0.2-0.1,0.3c0,0.1,0,0.1-0.1,0.2c-0.1,0.1-0.1,0.2-0.2,0.2s-0.2,0-0.4,0h-3.7v3.5h4.8c0.1,0,0.2,0,0.3,0
			c0.1,0,0.1,0,0.1,0c0,0,0.1,0.1,0.1,0.1C82.9,10,82.9,10.1,82.9,10.2z"/>
		<path class="st0" d="M95.6,0.7c0,0.1,0,0.2,0,0.3c0,0.1,0,0.2,0,0.3c0,0.1,0,0.2-0.1,0.3c0,0.1,0,0.1-0.1,0.2
			c-0.1,0.1-0.1,0.2-0.2,0.2c-0.1,0-0.2,0-0.4,0h-4.4v2.8h3.9c0.1,0,0.2,0,0.3,0s0.1,0,0.1,0.1c0.1,0,0.1,0.1,0.1,0.1
			c0,0.1,0,0.1,0,0.2c0,0.1,0,0.2,0,0.3c0,0.1,0,0.2,0,0.3c0,0.1,0,0.2-0.1,0.3c0,0.1,0,0.1-0.1,0.2c-0.1,0.1-0.1,0.2-0.2,0.2
			c-0.1,0-0.2,0-0.4,0h-3.6v4.6c0,0.1,0,0.2,0,0.3c0,0.1-0.1,0.1-0.1,0.1c-0.1,0-0.2,0.1-0.3,0.1c-0.1,0-0.3,0-0.6,0
			c-0.2,0-0.4,0-0.6,0c-0.1,0-0.2-0.1-0.3-0.1c-0.1,0-0.1-0.1-0.1-0.2s0-0.1,0-0.3V0.9c0-0.1,0-0.2,0-0.3s0.1-0.1,0.1-0.2
			c0.1,0,0.1-0.1,0.3-0.1c0.1,0,0.3,0,0.5,0h5.7c0.1,0,0.2,0,0.3,0c0.1,0,0.1,0,0.1,0c0,0,0.1,0.1,0.1,0.1S95.6,0.6,95.6,0.7z"/>
		<path class="st0" d="M106.2,5.9c0,0.9-0.1,1.7-0.4,2.4c-0.2,0.7-0.6,1.3-1,1.8c-0.4,0.5-1,0.9-1.6,1.1c-0.6,0.3-1.3,0.4-2.1,0.4
			c-0.8,0-1.4-0.1-2.1-0.4c-0.6-0.3-1.1-0.6-1.6-1.1s-0.8-1.1-1-1.8c-0.2-0.7-0.4-1.5-0.4-2.5c0-0.9,0.1-1.7,0.4-2.5s0.6-1.3,1-1.8
			c0.4-0.5,1-0.9,1.6-1.2c0.6-0.3,1.3-0.4,2.1-0.4c0.8,0,1.4,0.1,2.1,0.4c0.6,0.3,1.1,0.7,1.6,1.2c0.4,0.5,0.8,1.1,1,1.8
			C106.1,4.1,106.2,4.9,106.2,5.9z M104.1,5.9c0-0.7-0.1-1.3-0.2-1.8c-0.1-0.5-0.3-0.9-0.6-1.3c-0.2-0.3-0.6-0.6-0.9-0.8
			c-0.4-0.2-0.8-0.3-1.2-0.3c-0.5,0-0.9,0.1-1.2,0.3s-0.7,0.4-0.9,0.8c-0.2,0.3-0.4,0.8-0.6,1.3c-0.1,0.5-0.2,1.1-0.2,1.8
			c0,1.4,0.3,2.4,0.8,3.1c0.5,0.7,1.2,1,2.1,1c0.5,0,0.9-0.1,1.2-0.3c0.4-0.2,0.7-0.4,0.9-0.8c0.2-0.3,0.4-0.8,0.6-1.3
			C104.1,7.1,104.1,6.5,104.1,5.9z"/>
		<path class="st0" d="M116.6,11.1c0,0.1-0.1,0.2-0.2,0.3c-0.1,0-0.2,0.1-0.3,0.1c-0.2,0-0.4,0.1-0.6,0.1c-0.2,0-0.3,0-0.4,0
			c-0.1,0-0.2,0-0.3,0c-0.1,0-0.2-0.1-0.2-0.1c-0.1,0-0.1-0.1-0.2-0.2L111.6,7c-0.2,0-0.3,0-0.5,0c-0.1,0-0.2,0-0.4,0
			c-0.1,0-0.2,0-0.3,0c-0.1,0-0.2,0-0.3,0v4c0,0.1,0,0.2,0,0.3c0,0.1-0.1,0.1-0.1,0.1c-0.1,0-0.2,0.1-0.3,0.1c-0.1,0-0.3,0-0.6,0
			c-0.2,0-0.4,0-0.6,0c-0.1,0-0.2-0.1-0.3-0.1c0-0.1-0.1-0.1-0.1-0.2c0-0.1,0-0.1,0-0.3V0.9c0-0.1,0-0.2,0-0.3
			c0-0.1,0.1-0.1,0.1-0.2c0,0,0.1-0.1,0.2-0.1c0.1,0,0.3,0,0.6,0h2.5c1.3,0,2.3,0.3,3.1,0.8c0.7,0.5,1.1,1.4,1.1,2.5
			c0,0.3,0,0.7-0.1,1c-0.1,0.3-0.2,0.6-0.4,0.9c-0.2,0.3-0.4,0.5-0.7,0.7s-0.6,0.4-1,0.5l2.7,3.9c0.1,0.1,0.2,0.2,0.2,0.3
			S116.6,11,116.6,11.1z M113.7,3.5c0-0.2,0-0.5-0.1-0.7c-0.1-0.2-0.2-0.4-0.4-0.5c-0.2-0.1-0.4-0.3-0.7-0.3c-0.3-0.1-0.6-0.1-1-0.1
			h-1.4v3.5c0.1,0,0.2,0,0.3,0c0.1,0,0.2,0,0.3,0c0.1,0,0.2,0,0.3,0s0.3,0,0.4,0c0.4,0,0.8,0,1.1-0.1c0.3-0.1,0.5-0.2,0.7-0.4
			c0.2-0.2,0.3-0.4,0.4-0.6C113.7,4,113.7,3.8,113.7,3.5z"/>
		<path class="st0" d="M130.6,11.1c0,0.1-0.1,0.2-0.2,0.3c-0.1,0-0.2,0.1-0.3,0.1c-0.2,0-0.4,0.1-0.6,0.1c-0.2,0-0.3,0-0.4,0
			c-0.1,0-0.2,0-0.3,0c-0.1,0-0.2-0.1-0.2-0.1c-0.1,0-0.1-0.1-0.2-0.2L125.6,7c-0.2,0-0.3,0-0.5,0c-0.1,0-0.2,0-0.4,0
			c-0.1,0-0.2,0-0.3,0c-0.1,0-0.2,0-0.3,0v4c0,0.1,0,0.2,0,0.3c0,0.1-0.1,0.1-0.1,0.1c-0.1,0-0.2,0.1-0.3,0.1c-0.1,0-0.3,0-0.6,0
			c-0.2,0-0.4,0-0.6,0c-0.1,0-0.2-0.1-0.3-0.1c0-0.1-0.1-0.1-0.1-0.2c0-0.1,0-0.1,0-0.3V0.9c0-0.1,0-0.2,0-0.3
			c0-0.1,0.1-0.1,0.1-0.2c0,0,0.1-0.1,0.2-0.1c0.1,0,0.3,0,0.6,0h2.5c1.3,0,2.3,0.3,3.1,0.8c0.7,0.5,1.1,1.4,1.1,2.5
			c0,0.3,0,0.7-0.1,1c-0.1,0.3-0.2,0.6-0.4,0.9c-0.2,0.3-0.4,0.5-0.7,0.7s-0.6,0.4-1,0.5l2.7,3.9c0.1,0.1,0.2,0.2,0.2,0.3
			S130.6,11,130.6,11.1z M127.8,3.5c0-0.2,0-0.5-0.1-0.7c-0.1-0.2-0.2-0.4-0.4-0.5c-0.2-0.1-0.4-0.3-0.7-0.3c-0.3-0.1-0.6-0.1-1-0.1
			h-1.4v3.5c0.1,0,0.2,0,0.3,0c0.1,0,0.2,0,0.3,0c0.1,0,0.2,0,0.3,0s0.3,0,0.4,0c0.4,0,0.8,0,1.1-0.1c0.3-0.1,0.5-0.2,0.7-0.4
			c0.2-0.2,0.3-0.4,0.4-0.6C127.7,4,127.8,3.8,127.8,3.5z"/>
		<path class="st0" d="M139.3,10.2c0,0.2,0,0.4,0,0.6c0,0.2-0.1,0.4-0.1,0.5c0,0.1-0.1,0.2-0.2,0.2c-0.1,0-0.2,0-0.4,0h-5.6
			c-0.2,0-0.4,0-0.5,0c-0.1,0-0.2-0.1-0.3-0.1s-0.1-0.1-0.1-0.2c0-0.1,0-0.2,0-0.3v-10c0-0.1,0-0.2,0-0.3s0.1-0.1,0.1-0.2
			c0,0,0.1-0.1,0.2-0.1c0.1,0,0.3,0,0.6,0h5.8c0.1,0,0.2,0,0.3,0c0.1,0,0.1,0,0.1,0c0,0,0.1,0.1,0.1,0.1s0,0.1,0,0.2
			c0,0.1,0,0.2,0,0.3c0,0.1,0,0.2,0,0.3c0,0.1,0,0.2-0.1,0.3c0,0.1,0,0.1-0.1,0.2c-0.1,0.1-0.1,0.2-0.2,0.2c-0.1,0-0.2,0-0.4,0H134
			v2.7h4c0.1,0,0.2,0,0.3,0c0.1,0,0.1,0,0.1,0.1c0,0,0.1,0.1,0.1,0.1c0,0.1,0,0.1,0,0.2c0,0.1,0,0.2,0,0.3s0,0.2,0,0.3
			c0,0.1,0,0.2-0.1,0.3c0,0.1,0,0.1-0.1,0.2c-0.1,0.1-0.1,0.2-0.2,0.2s-0.2,0-0.4,0H134v3.5h4.8c0.1,0,0.2,0,0.3,0
			c0.1,0,0.1,0,0.1,0c0,0,0.1,0.1,0.1,0.1C139.3,10,139.3,10.1,139.3,10.2z"/>
		<path class="st0" d="M147.8,10.2c0,0.1,0,0.2,0,0.3c0,0.1,0,0.2,0,0.3c0,0.1,0,0.2-0.1,0.3c0,0.1,0,0.1-0.1,0.2
			c0,0.1-0.1,0.2-0.2,0.2c-0.1,0-0.2,0-0.4,0h-5.4c-0.2,0-0.4,0-0.5,0c-0.1,0-0.2-0.1-0.3-0.1s-0.1-0.1-0.1-0.2c0-0.1,0-0.2,0-0.3
			V0.8c0-0.1,0-0.2,0-0.3c0-0.1,0.1-0.1,0.1-0.1c0.1,0,0.2-0.1,0.3-0.1c0.1,0,0.3,0,0.6,0c0.2,0,0.4,0,0.6,0c0.1,0,0.2,0.1,0.3,0.1
			c0.1,0,0.1,0.1,0.1,0.2s0,0.1,0,0.3v9h4.6c0.1,0,0.2,0,0.3,0c0.1,0,0.1,0,0.1,0.1c0,0,0.1,0.1,0.1,0.1
			C147.7,10,147.8,10.1,147.8,10.2z"/>
		<path class="st0" d="M157.4,11.1c0,0,0,0.1,0,0.1s-0.1,0.1-0.1,0.1c0,0-0.1,0.1-0.3,0.1c-0.1,0-0.3,0-0.6,0c-0.3,0-0.5,0-0.6,0
			s-0.2-0.1-0.3-0.1c-0.1-0.1-0.2-0.2-0.2-0.4l-0.8-2.3h-4l-0.7,2.2c0,0.1-0.1,0.2-0.1,0.3c0,0.1-0.1,0.1-0.1,0.2
			c-0.1,0-0.2,0.1-0.3,0.1c-0.1,0-0.3,0-0.6,0c-0.2,0-0.4,0-0.5,0c-0.1,0-0.2-0.1-0.3-0.1c-0.1-0.1-0.1-0.1-0.1-0.2c0,0,0-0.1,0-0.2
			s0-0.2,0.1-0.2l3.5-10.1c0-0.1,0.1-0.2,0.1-0.2c0,0,0.1-0.1,0.1-0.1c0.1,0,0.2-0.1,0.3-0.1c0.1,0,0.3,0,0.6,0c0.3,0,0.5,0,0.6,0
			c0.1,0,0.2,0.1,0.3,0.1c0,0,0.1,0.1,0.1,0.1c0,0,0.1,0.1,0.1,0.2l3.6,10.2c0,0.1,0,0.1,0.1,0.2S157.4,11.1,157.4,11.1z M152.6,2.6
			l-1.5,4.5h3L152.6,2.6z"/>
		<path class="st0" d="M166.7,11.1c0,0.1,0,0.1,0,0.2c0,0-0.1,0.1-0.1,0.1c0,0-0.1,0.1-0.3,0.1c-0.1,0-0.3,0.1-0.6,0.1
			c-0.3,0-0.6,0-0.7-0.1c-0.2,0-0.3-0.1-0.4-0.3l-2.4-3.8l-2.4,3.8c-0.1,0.1-0.1,0.2-0.2,0.2s-0.1,0.1-0.2,0.1c-0.1,0-0.2,0-0.3,0.1
			c-0.1,0-0.3,0-0.4,0c-0.2,0-0.4,0-0.6,0c-0.1,0-0.2-0.1-0.3-0.1c0,0-0.1-0.1-0.1-0.1c0,0,0-0.1,0-0.1c0-0.1,0-0.1,0.1-0.2
			c0-0.1,0.1-0.2,0.2-0.3l3.2-4.9l-3-4.7c-0.1-0.1-0.1-0.2-0.2-0.3c0-0.1-0.1-0.1-0.1-0.2s0-0.1,0-0.2s0.1-0.1,0.1-0.1
			c0.1,0,0.1-0.1,0.3-0.1c0.1,0,0.3-0.1,0.6-0.1c0.2,0,0.3,0,0.4,0c0.1,0,0.2,0,0.3,0.1c0.1,0,0.2,0.1,0.2,0.1s0.1,0.1,0.2,0.2
			l2.3,3.7l2.3-3.6c0.1-0.1,0.1-0.2,0.2-0.2c0.1-0.1,0.1-0.1,0.2-0.1s0.2,0,0.3-0.1c0.1,0,0.2,0,0.4,0c0.3,0,0.4,0,0.6,0
			c0.1,0,0.2,0.1,0.2,0.1c0.1,0.1,0.2,0.1,0.2,0.3c0,0.1,0,0.1-0.1,0.2c0,0.1-0.1,0.2-0.2,0.3l-3,4.6l3.2,4.9
			C166.7,10.9,166.7,11,166.7,11.1z"/>
		<path class="st0" d="M176.5,11.1c0,0,0,0.1,0,0.1s-0.1,0.1-0.1,0.1c0,0-0.1,0.1-0.3,0.1c-0.1,0-0.3,0-0.6,0c-0.3,0-0.5,0-0.6,0
			s-0.2-0.1-0.3-0.1c-0.1-0.1-0.2-0.2-0.2-0.4l-0.8-2.3h-4l-0.7,2.2c0,0.1-0.1,0.2-0.1,0.3c0,0.1-0.1,0.1-0.1,0.2
			c-0.1,0-0.2,0.1-0.3,0.1c-0.1,0-0.3,0-0.6,0c-0.2,0-0.4,0-0.5,0c-0.1,0-0.2-0.1-0.3-0.1c-0.1-0.1-0.1-0.1-0.1-0.2c0,0,0-0.1,0-0.2
			s0-0.2,0.1-0.2l3.5-10.1c0-0.1,0.1-0.2,0.1-0.2c0,0,0.1-0.1,0.1-0.1c0.1,0,0.2-0.1,0.3-0.1c0.1,0,0.3,0,0.6,0c0.3,0,0.5,0,0.6,0
			c0.1,0,0.2,0.1,0.3,0.1c0,0,0.1,0.1,0.1,0.1c0,0,0.1,0.1,0.1,0.2l3.6,10.2c0,0.1,0,0.1,0.1,0.2S176.5,11.1,176.5,11.1z M171.7,2.6
			l-1.5,4.5h3L171.7,2.6z"/>
		<path class="st0" d="M184.4,0.7c0,0.1,0,0.2,0,0.3s0,0.2,0,0.3c0,0.1,0,0.2-0.1,0.3c0,0.1,0,0.1-0.1,0.2c-0.1,0.1-0.1,0.2-0.2,0.2
			s-0.2,0-0.4,0h-2.7v9c0,0.1,0,0.2,0,0.3c0,0.1-0.1,0.1-0.1,0.1c-0.1,0-0.2,0.1-0.3,0.1c-0.1,0-0.3,0-0.6,0c-0.2,0-0.4,0-0.6,0
			c-0.1,0-0.2-0.1-0.3-0.1c-0.1-0.1-0.1-0.1-0.1-0.2c0-0.1,0-0.1,0-0.3v-9h-3c-0.1,0-0.2,0-0.3,0c-0.1,0-0.1,0-0.1-0.1
			c-0.1,0-0.1-0.1-0.1-0.1c0-0.1,0-0.1,0-0.2c0-0.1,0-0.2,0-0.3c0-0.1,0-0.2,0-0.3c0-0.1,0-0.2,0.1-0.3c0-0.1,0-0.1,0.1-0.2
			c0.1-0.1,0.1-0.2,0.2-0.2s0.2,0,0.4,0h7.8c0.1,0,0.2,0,0.3,0c0.1,0,0.1,0,0.1,0C184.3,0.4,184.4,0.5,184.4,0.7z"/>
		<path class="st0" d="M187.7,10.9c0,0.1,0,0.2,0,0.3c0,0.1-0.1,0.1-0.1,0.1c-0.1,0-0.2,0.1-0.3,0.1s-0.3,0-0.6,0
			c-0.2,0-0.4,0-0.6,0c-0.1,0-0.2-0.1-0.3-0.1c0-0.1-0.1-0.1-0.1-0.2c0-0.1,0-0.1,0-0.3V0.8c0-0.1,0-0.2,0-0.3
			c0-0.1,0.1-0.1,0.1-0.1c0.1,0,0.2-0.1,0.3-0.1c0.1,0,0.3,0,0.6,0c0.2,0,0.4,0,0.6,0c0.1,0,0.2,0.1,0.3,0.1c0,0,0.1,0.1,0.1,0.2
			s0,0.1,0,0.3V10.9z"/>
		<path class="st0" d="M199.6,5.9c0,0.9-0.1,1.7-0.4,2.4c-0.2,0.7-0.6,1.3-1,1.8c-0.4,0.5-1,0.9-1.6,1.1c-0.6,0.3-1.3,0.4-2.1,0.4
			c-0.8,0-1.4-0.1-2.1-0.4c-0.6-0.3-1.1-0.6-1.6-1.1s-0.8-1.1-1-1.8c-0.2-0.7-0.4-1.5-0.4-2.5c0-0.9,0.1-1.7,0.4-2.5s0.6-1.3,1-1.8
			c0.4-0.5,1-0.9,1.6-1.2c0.6-0.3,1.3-0.4,2.1-0.4c0.8,0,1.4,0.1,2.1,0.4c0.6,0.3,1.1,0.7,1.6,1.2c0.4,0.5,0.8,1.1,1,1.8
			C199.5,4.1,199.6,4.9,199.6,5.9z M197.5,5.9c0-0.7-0.1-1.3-0.2-1.8c-0.1-0.5-0.3-0.9-0.6-1.3c-0.2-0.3-0.6-0.6-0.9-0.8
			c-0.4-0.2-0.8-0.3-1.2-0.3c-0.5,0-0.9,0.1-1.2,0.3s-0.7,0.4-0.9,0.8c-0.2,0.3-0.4,0.8-0.6,1.3c-0.1,0.5-0.2,1.1-0.2,1.8
			c0,1.4,0.3,2.4,0.8,3.1c0.5,0.7,1.2,1,2.1,1c0.5,0,0.9-0.1,1.2-0.3c0.4-0.2,0.7-0.4,0.9-0.8c0.2-0.3,0.4-0.8,0.6-1.3
			C197.5,7.1,197.5,6.5,197.5,5.9z"/>
		<path class="st0" d="M209.8,10.9c0,0.1,0,0.2,0,0.3c0,0.1-0.1,0.1-0.1,0.1c-0.1,0-0.1,0.1-0.3,0.1s-0.3,0-0.5,0
			c-0.2,0-0.4,0-0.6,0c-0.1,0-0.2-0.1-0.3-0.1c-0.1,0-0.1-0.1-0.1-0.2l-4.4-7v6.8c0,0.1,0,0.2,0,0.3c0,0.1-0.1,0.1-0.1,0.1
			c-0.1,0-0.2,0.1-0.3,0.1c-0.1,0-0.3,0-0.6,0c-0.2,0-0.4,0-0.6,0c-0.1,0-0.2-0.1-0.3-0.1c0-0.1-0.1-0.1-0.1-0.2c0-0.1,0-0.1,0-0.3
			V1.6L201.2,1c0-0.1-0.1-0.2-0.1-0.2c0-0.1-0.1-0.1-0.1-0.2c0-0.1,0-0.2,0.1-0.3c0.1,0,0.2-0.1,0.3-0.1c0.2,0,0.4,0,0.7,0
			c0.2,0,0.4,0,0.5,0s0.2,0.1,0.3,0.1c0.1,0,0.1,0.1,0.2,0.1s0.1,0.1,0.1,0.1l4.5,7.4V0.8c0-0.1,0-0.2,0-0.3c0-0.1,0.1-0.1,0.1-0.1
			c0.1,0,0.2-0.1,0.3-0.1c0.1,0,0.3,0,0.5,0c0.2,0,0.4,0,0.6,0c0.1,0,0.2,0.1,0.3,0.1c0,0,0.1,0.1,0.1,0.2c0,0.1,0,0.1,0,0.3V10.9z"
			/>
	</g>
</g>
</svg>
