<?xml version="1.0" encoding="utf-8"?>
<!-- Generator: Adobe Illustrator 20.0.0, SVG Export Plug-In . SVG Version: 6.00 Build 0)  -->
<svg version="1.1" id="Layer_1" xmlns="http://www.w3.org/2000/svg" xmlns:xlink="http://www.w3.org/1999/xlink" x="0px" y="0px"
	 viewBox="0 0 180.303 202.187" style="enable-background:new 0 0 180.303 202.187;" xml:space="preserve">
<style type="text/css">
	.st0{fill:#FFFFFF;}
</style>
<g>
	<g>
		<g>
			<path class="st0" d="M91.304,202.18c-2.976,0.037-5.906-0.067-8.776-0.308l0.366-4.353c2.744,0.23,5.548,0.33,8.332,0.295
				l0.119,3.795l0.003,0.57C91.334,202.179,91.318,202.18,91.304,202.18z M100.186,201.636l-0.481-4.342
				c2.776-0.306,5.57-0.755,8.308-1.335l0.904,4.275C106.04,200.841,103.102,201.313,100.186,201.636z M73.766,200.703
				c-2.888-0.53-5.784-1.212-8.61-2.027l1.21-4.196c2.687,0.774,5.441,1.422,8.188,1.927L73.766,200.703z M117.467,197.976
				l-1.321-4.164c2.66-0.844,5.312-1.833,7.884-2.938l1.725,4.011C123.052,196.049,120.264,197.088,117.467,197.976z
				 M56.788,195.813c-2.724-1.086-5.431-2.324-8.045-3.677l2.01-3.879c2.486,1.288,5.06,2.465,7.653,3.498L56.788,195.813z
				 M133.697,190.994l-2.113-3.821c2.447-1.355,4.856-2.844,7.157-4.428l2.477,3.598C138.8,188.008,136.27,189.573,133.697,190.994z
				 M41.1,187.687c-2.467-1.603-4.881-3.345-7.172-5.174l2.727-3.413c2.179,1.742,4.476,3.399,6.825,4.926L41.1,187.687z
				 M148.249,180.975l-2.818-3.338c2.135-1.803,4.208-3.731,6.161-5.735l3.127,3.049
				C152.669,177.054,150.492,179.082,148.249,180.975z M27.295,176.663c-2.102-2.046-4.13-4.22-6.029-6.466l3.335-2.82
				c1.809,2.137,3.74,4.208,5.741,6.154L27.295,176.663z M160.577,168.325l-3.413-2.727c1.754-2.193,3.413-4.488,4.931-6.822
				l3.662,2.383C164.161,163.611,162.418,166.023,160.577,168.325z M15.894,163.172c-1.67-2.421-3.239-4.951-4.66-7.518l3.821-2.115
				c1.353,2.443,2.845,4.849,4.434,7.151L15.894,163.172z M170.212,153.52l-3.876-2.013c1.287-2.48,2.466-5.053,3.505-7.65
				l4.056,1.621C172.804,148.208,171.565,150.912,170.212,153.52z M7.336,147.716c-1.161-2.694-2.203-5.481-3.097-8.284l4.161-1.326
				c0.851,2.667,1.841,5.318,2.947,7.882L7.336,147.716z M176.769,137.113l-4.196-1.213c0.776-2.68,1.426-5.434,1.934-8.188
				l4.296,0.794C178.269,131.4,177.584,134.296,176.769,137.113z M1.977,130.884c-0.609-2.862-1.084-5.798-1.412-8.729l4.339-0.487
				c0.314,2.79,0.765,5.584,1.344,8.306L1.977,130.884z M179.98,119.741l-4.353-0.369c0.235-2.773,0.337-5.603,0.301-8.409
				l-0.004-0.326l4.368-0.055l0.004,0.326C180.333,113.855,180.227,116.827,179.98,119.741z M4.377,113.272l-4.368,0.055
				l-0.002-0.162c-0.036-2.895,0.065-5.811,0.302-8.668l4.353,0.361c-0.225,2.719-0.322,5.496-0.288,8.253L4.377,113.272z
				 M175.383,102.245c-0.316-2.785-0.774-5.577-1.36-8.302l4.272-0.918c0.615,2.863,1.095,5.799,1.427,8.727L175.383,102.245z
				 M5.767,96.517l-4.296-0.785c0.526-2.886,1.205-5.783,2.017-8.611l4.199,1.204C6.914,91.015,6.268,93.772,5.767,96.517z
				 M171.857,85.816c-0.854-2.661-1.851-5.312-2.962-7.876l4.008-1.737c1.169,2.696,2.216,5.481,3.113,8.278L171.857,85.816z
				 M10.403,80.363l-4.059-1.613c1.085-2.73,2.319-5.437,3.669-8.049l3.882,2.005C12.61,75.193,11.436,77.768,10.403,80.363z
				 M165.172,70.397c-1.363-2.449-2.859-4.853-4.448-7.145l3.589-2.488c1.67,2.411,3.243,4.936,4.674,7.509L165.172,70.397z
				 M18.12,65.431l-3.664-2.377c1.596-2.462,3.335-4.876,5.167-7.175l3.416,2.722C21.294,60.79,19.639,63.087,18.12,65.431z
				 M155.598,56.574c-1.804-2.129-3.74-4.195-5.751-6.143l3.041-3.138c2.112,2.048,4.144,4.22,6.042,6.456L155.598,56.574z
				 M28.602,52.282l-3.135-3.041c2.045-2.109,4.22-4.14,6.461-6.038l2.823,3.335C32.616,48.344,30.547,50.277,28.602,52.282z
				 M143.523,44.873c-2.185-1.74-4.483-3.392-6.832-4.911l2.371-3.667c2.467,1.596,4.884,3.332,7.182,5.16L143.523,44.873z
				 M41.431,41.419l-2.482-3.592c2.423-1.676,4.952-3.246,7.514-4.667l2.118,3.819C46.145,38.332,43.739,39.825,41.431,41.419z
				 M129.409,35.74c-2.483-1.28-5.06-2.452-7.66-3.482l1.61-4.061c2.732,1.083,5.441,2.315,8.052,3.662L129.409,35.74z
				 M56.129,33.262l-1.734-4.008c2.691-1.164,5.478-2.209,8.281-3.107l1.332,4.161C61.34,31.162,58.689,32.157,56.129,33.262z
				 M113.785,29.547c-2.684-0.767-5.441-1.411-8.193-1.911l0.782-4.298c2.893,0.527,5.791,1.203,8.613,2.011L113.785,29.547z
				 M72.136,28.149l-0.912-4.272c2.863-0.612,5.801-1.089,8.727-1.419l0.489,4.339C77.655,27.111,74.861,27.566,72.136,28.149z
				 M97.251,26.54c-2.703-0.221-5.453-0.316-8.173-0.282l-0.245,0.003l-0.055-4.368l0.245-0.003
				c2.856-0.036,5.744,0.063,8.583,0.296L97.251,26.54z"/>
		</g>
	</g>
	<g>
		<g>
			<path class="st0" d="M13.209,0.711c0,0.093-0.004,0.191-0.013,0.295c-0.009,0.104-0.021,0.206-0.039,0.304
				c-0.018,0.099-0.038,0.191-0.061,0.278c-0.023,0.087-0.049,0.156-0.078,0.208c-0.064,0.11-0.145,0.179-0.243,0.208
				c-0.099,0.029-0.231,0.043-0.399,0.043H9.477v9.563c0,0.133-0.01,0.229-0.03,0.287c-0.02,0.058-0.056,0.11-0.108,0.156
				c-0.063,0.052-0.169,0.094-0.317,0.125c-0.147,0.032-0.351,0.048-0.612,0.048c-0.249,0-0.448-0.015-0.599-0.043
				s-0.257-0.066-0.321-0.113c-0.058-0.058-0.097-0.116-0.117-0.173c-0.021-0.058-0.031-0.147-0.031-0.269V2.048h-3.21
				c-0.127,0-0.22-0.007-0.278-0.021C3.796,2.012,3.752,1.993,3.723,1.97C3.666,1.935,3.63,1.886,3.615,1.822
				C3.6,1.759,3.593,1.678,3.593,1.579c0-0.092,0.004-0.191,0.013-0.295C3.615,1.18,3.628,1.079,3.645,0.98
				c0.018-0.098,0.038-0.189,0.061-0.273c0.023-0.083,0.052-0.152,0.086-0.204c0.064-0.11,0.144-0.18,0.239-0.208
				c0.096-0.029,0.221-0.043,0.377-0.043h8.253c0.122,0,0.212,0.007,0.273,0.022c0.061,0.014,0.105,0.03,0.134,0.047
				C13.162,0.385,13.209,0.515,13.209,0.711z"/>
			<path class="st0" d="M22.094,11.836c0,0.052-0.016,0.1-0.047,0.144c-0.032,0.043-0.065,0.08-0.1,0.108
				c-0.046,0.035-0.14,0.069-0.282,0.104c-0.142,0.035-0.343,0.052-0.604,0.052c-0.295,0-0.504-0.018-0.629-0.052
				s-0.218-0.075-0.282-0.122c-0.092-0.075-0.167-0.205-0.226-0.39l-0.798-2.421h-4.27l-0.764,2.326
				c-0.035,0.116-0.071,0.217-0.108,0.304s-0.08,0.147-0.126,0.182c-0.063,0.052-0.167,0.094-0.312,0.126
				c-0.145,0.032-0.342,0.048-0.59,0.048c-0.26,0-0.454-0.015-0.582-0.043c-0.127-0.029-0.223-0.066-0.286-0.113
				c-0.075-0.069-0.113-0.153-0.113-0.252c0-0.052,0.011-0.121,0.035-0.208c0.023-0.087,0.049-0.17,0.078-0.252l3.766-10.752
				c0.029-0.092,0.062-0.162,0.1-0.208s0.074-0.084,0.109-0.113c0.075-0.046,0.182-0.084,0.321-0.113s0.353-0.043,0.642-0.043
				c0.295,0,0.514,0.015,0.655,0.043s0.25,0.066,0.326,0.113c0.035,0.029,0.071,0.066,0.108,0.113s0.071,0.116,0.1,0.208
				l3.784,10.822c0.029,0.081,0.052,0.153,0.069,0.217C22.086,11.727,22.094,11.785,22.094,11.836z M16.992,2.794l-1.579,4.799
				h3.159L16.992,2.794z"/>
			<path class="st0" d="M31.71,3.766c0,0.521-0.091,1.007-0.273,1.458c-0.182,0.451-0.46,0.842-0.833,1.171s-0.842,0.59-1.406,0.781
				s-1.231,0.286-2,0.286c-0.208,0-0.387-0.001-0.538-0.004c-0.151-0.003-0.287-0.005-0.408-0.009
				c-0.122-0.002-0.234-0.007-0.338-0.013s-0.217-0.015-0.338-0.026v4.2c0,0.133-0.01,0.229-0.03,0.287
				c-0.021,0.058-0.057,0.11-0.108,0.156c-0.064,0.052-0.169,0.094-0.317,0.125s-0.352,0.048-0.612,0.048
				c-0.249,0-0.442-0.015-0.582-0.043c-0.139-0.029-0.24-0.066-0.304-0.113c-0.052-0.058-0.088-0.116-0.108-0.173
				c-0.021-0.058-0.03-0.147-0.03-0.269V0.894c0-0.133,0.013-0.235,0.039-0.308c0.026-0.072,0.065-0.131,0.117-0.178
				c0.052-0.046,0.142-0.084,0.269-0.113c0.127-0.029,0.321-0.043,0.581-0.043h2.777c0.683,0,1.298,0.071,1.848,0.213
				c0.55,0.142,1.017,0.357,1.401,0.646c0.385,0.289,0.68,0.655,0.885,1.098C31.607,2.651,31.71,3.17,31.71,3.766z M29.523,3.714
				c0-0.526-0.19-0.944-0.569-1.254c-0.379-0.309-0.979-0.464-1.8-0.464h-1.58v3.697c0.203,0.011,0.415,0.02,0.638,0.026
				s0.473,0.009,0.751,0.009c0.451,0,0.837-0.048,1.158-0.144c0.321-0.095,0.586-0.231,0.794-0.408
				c0.208-0.176,0.362-0.389,0.46-0.638C29.474,4.29,29.523,4.015,29.523,3.714z"/>
			<path class="st0" d="M46.298,0.711c0,0.093-0.004,0.191-0.013,0.295c-0.009,0.104-0.021,0.206-0.039,0.304
				c-0.018,0.099-0.038,0.191-0.061,0.278c-0.023,0.087-0.049,0.156-0.078,0.208c-0.064,0.11-0.145,0.179-0.243,0.208
				c-0.099,0.029-0.231,0.043-0.399,0.043h-2.898v9.563c0,0.133-0.01,0.229-0.03,0.287c-0.02,0.058-0.056,0.11-0.108,0.156
				c-0.063,0.052-0.169,0.094-0.317,0.125c-0.147,0.032-0.351,0.048-0.612,0.048c-0.249,0-0.448-0.015-0.599-0.043
				s-0.257-0.066-0.321-0.113c-0.058-0.058-0.097-0.116-0.117-0.173c-0.021-0.058-0.031-0.147-0.031-0.269V2.048h-3.21
				c-0.127,0-0.22-0.007-0.278-0.021c-0.058-0.015-0.102-0.033-0.13-0.057c-0.058-0.035-0.094-0.083-0.108-0.147
				c-0.015-0.063-0.021-0.145-0.021-0.243c0-0.092,0.004-0.191,0.013-0.295c0.009-0.104,0.022-0.205,0.039-0.304
				c0.018-0.098,0.038-0.189,0.061-0.273c0.023-0.083,0.052-0.152,0.086-0.204c0.064-0.11,0.144-0.18,0.239-0.208
				c0.096-0.029,0.221-0.043,0.377-0.043h8.253c0.122,0,0.212,0.007,0.273,0.022c0.061,0.014,0.105,0.03,0.134,0.047
				C46.251,0.385,46.298,0.515,46.298,0.711z"/>
			<path class="st0" d="M56.946,6.222c0,0.966-0.127,1.833-0.382,2.599c-0.255,0.767-0.613,1.416-1.076,1.948
				c-0.463,0.533-1.022,0.939-1.679,1.219c-0.657,0.281-1.384,0.421-2.183,0.421c-0.804,0-1.533-0.14-2.187-0.421
				c-0.654-0.28-1.214-0.686-1.679-1.215c-0.466-0.529-0.826-1.177-1.081-1.944c-0.255-0.767-0.382-1.636-0.382-2.607
				c0-0.966,0.126-1.834,0.377-2.604s0.61-1.422,1.076-1.957c0.465-0.535,1.025-0.946,1.679-1.232C50.084,0.143,50.816,0,51.626,0
				c0.798,0,1.526,0.142,2.183,0.425c0.657,0.283,1.216,0.691,1.679,1.224s0.821,1.184,1.076,1.957
				C56.818,4.378,56.946,5.25,56.946,6.222z M54.706,6.222c0-0.717-0.069-1.348-0.208-1.892c-0.139-0.543-0.34-0.999-0.603-1.367
				c-0.264-0.367-0.586-0.645-0.968-0.833s-0.816-0.282-1.302-0.282s-0.92,0.093-1.302,0.278s-0.704,0.461-0.967,0.829
				c-0.264,0.368-0.466,0.825-0.607,1.371c-0.142,0.547-0.213,1.179-0.213,1.896c0,1.435,0.271,2.517,0.812,3.246
				c0.541,0.729,1.3,1.093,2.278,1.093c0.48,0,0.911-0.091,1.293-0.273s0.705-0.456,0.968-0.82c0.263-0.365,0.466-0.817,0.607-1.358
				S54.706,6.939,54.706,6.222z"/>
			<path class="st0" d="M72.322,11.836c0,0.052-0.016,0.1-0.047,0.144c-0.032,0.043-0.065,0.08-0.1,0.108
				c-0.046,0.035-0.14,0.069-0.282,0.104c-0.142,0.035-0.343,0.052-0.604,0.052c-0.295,0-0.504-0.018-0.629-0.052
				s-0.218-0.075-0.282-0.122c-0.092-0.075-0.167-0.205-0.226-0.39l-0.798-2.421h-4.27l-0.764,2.326
				c-0.035,0.116-0.071,0.217-0.108,0.304s-0.08,0.147-0.126,0.182c-0.063,0.052-0.167,0.094-0.312,0.126
				c-0.145,0.032-0.342,0.048-0.59,0.048c-0.26,0-0.454-0.015-0.582-0.043c-0.127-0.029-0.223-0.066-0.286-0.113
				c-0.075-0.069-0.113-0.153-0.113-0.252c0-0.052,0.011-0.121,0.035-0.208c0.023-0.087,0.049-0.17,0.078-0.252l3.766-10.752
				c0.029-0.092,0.062-0.162,0.1-0.208s0.074-0.084,0.109-0.113c0.075-0.046,0.182-0.084,0.321-0.113s0.353-0.043,0.642-0.043
				c0.295,0,0.514,0.015,0.655,0.043s0.25,0.066,0.326,0.113c0.035,0.029,0.071,0.066,0.108,0.113s0.071,0.116,0.1,0.208
				l3.784,10.822c0.029,0.081,0.052,0.153,0.069,0.217C72.314,11.727,72.322,11.785,72.322,11.836z M67.22,2.794l-1.579,4.799H68.8
				L67.22,2.794z"/>
			<path class="st0" d="M83.448,6.17c0,0.937-0.13,1.776-0.391,2.517c-0.26,0.741-0.629,1.368-1.106,1.883
				c-0.478,0.515-1.056,0.908-1.736,1.18s-1.439,0.408-2.278,0.408h-3.22c-0.26,0-0.454-0.014-0.581-0.043
				c-0.127-0.029-0.217-0.066-0.269-0.113c-0.052-0.046-0.091-0.105-0.117-0.178s-0.039-0.175-0.039-0.308V0.911
				c0-0.133,0.013-0.237,0.039-0.313s0.065-0.133,0.117-0.173c0.052-0.052,0.14-0.094,0.265-0.126
				c0.124-0.032,0.319-0.048,0.585-0.048h3.254c0.833,0,1.586,0.132,2.261,0.395c0.674,0.263,1.25,0.646,1.727,1.15
				c0.477,0.503,0.844,1.122,1.102,1.857C83.319,4.388,83.448,5.227,83.448,6.17z M81.192,6.17c0-1.342-0.279-2.365-0.837-3.068
				c-0.559-0.703-1.387-1.054-2.486-1.054h-2.031v8.313h2.135c1.047,0,1.846-0.357,2.395-1.072
				C80.917,8.575,81.192,7.535,81.192,6.17z"/>
			<path class="st0" d="M95.215,6.17c0,0.937-0.129,1.776-0.391,2.517c-0.26,0.741-0.629,1.368-1.105,1.883
				c-0.478,0.515-1.056,0.908-1.736,1.18s-1.439,0.408-2.278,0.408h-3.22c-0.26,0-0.454-0.014-0.581-0.043
				c-0.127-0.029-0.217-0.066-0.269-0.113c-0.052-0.046-0.091-0.105-0.117-0.178s-0.039-0.175-0.039-0.308V0.911
				c0-0.133,0.013-0.237,0.039-0.313s0.065-0.133,0.117-0.173c0.052-0.052,0.14-0.094,0.265-0.126
				c0.124-0.032,0.319-0.048,0.585-0.048h3.254c0.833,0,1.586,0.132,2.261,0.395c0.674,0.263,1.25,0.646,1.727,1.15
				c0.478,0.503,0.845,1.122,1.103,1.857C95.086,4.388,95.215,5.227,95.215,6.17z M92.959,6.17c0-1.342-0.279-2.365-0.837-3.068
				c-0.559-0.703-1.387-1.054-2.486-1.054h-2.031v8.313h2.135c1.047,0,1.846-0.357,2.395-1.072
				C92.684,8.575,92.959,7.535,92.959,6.17z"/>
			<path class="st0" d="M110.679,11.785c0,0.122-0.061,0.211-0.183,0.269c-0.063,0.035-0.176,0.072-0.338,0.113
				s-0.385,0.061-0.668,0.061c-0.168,0-0.318-0.003-0.451-0.009c-0.134-0.006-0.251-0.021-0.352-0.047
				c-0.102-0.026-0.189-0.064-0.265-0.113c-0.075-0.049-0.143-0.117-0.2-0.204l-2.916-4.391c-0.19,0-0.355-0.001-0.494-0.004
				s-0.265-0.005-0.378-0.009c-0.112-0.002-0.22-0.007-0.32-0.013c-0.102-0.006-0.207-0.015-0.317-0.026v4.2
				c0,0.133-0.01,0.229-0.03,0.287s-0.057,0.11-0.108,0.156c-0.063,0.052-0.169,0.094-0.316,0.125s-0.352,0.048-0.612,0.048
				c-0.249,0-0.445-0.015-0.59-0.043s-0.249-0.066-0.313-0.113c-0.052-0.058-0.088-0.116-0.108-0.173s-0.03-0.147-0.03-0.269V0.911
				c0-0.133,0.015-0.236,0.043-0.308c0.029-0.072,0.066-0.131,0.113-0.178c0.052-0.052,0.14-0.094,0.265-0.126
				c0.124-0.032,0.319-0.048,0.586-0.048h2.707c1.412,0,2.495,0.287,3.25,0.859s1.133,1.458,1.133,2.655
				c0,0.37-0.044,0.723-0.131,1.059c-0.086,0.336-0.224,0.646-0.412,0.929c-0.188,0.284-0.427,0.538-0.716,0.764
				s-0.633,0.411-1.032,0.555l2.916,4.166c0.092,0.133,0.16,0.24,0.203,0.321C110.658,11.64,110.679,11.715,110.679,11.785z
				 M107.625,3.731c0-0.26-0.04-0.498-0.121-0.711c-0.081-0.214-0.215-0.398-0.399-0.551c-0.186-0.153-0.425-0.271-0.721-0.352
				c-0.295-0.081-0.659-0.122-1.093-0.122h-1.51v3.697c0.104,0.005,0.199,0.01,0.286,0.013s0.178,0.006,0.273,0.009
				c0.095,0.003,0.204,0.006,0.325,0.009s0.266,0.004,0.434,0.004c0.469,0,0.865-0.048,1.189-0.144
				c0.323-0.095,0.584-0.231,0.78-0.408c0.197-0.176,0.339-0.388,0.426-0.633C107.582,4.297,107.625,4.026,107.625,3.731z"/>
			<path class="st0" d="M122.143,6.222c0,0.966-0.128,1.833-0.382,2.599c-0.255,0.767-0.613,1.416-1.076,1.948
				c-0.463,0.533-1.022,0.939-1.68,1.219c-0.656,0.281-1.384,0.421-2.182,0.421c-0.805,0-1.533-0.14-2.188-0.421
				c-0.653-0.28-1.213-0.686-1.679-1.215s-0.826-1.177-1.081-1.944c-0.254-0.767-0.382-1.636-0.382-2.607
				c0-0.966,0.126-1.834,0.378-2.604s0.61-1.422,1.076-1.957s1.025-0.946,1.679-1.232c0.654-0.287,1.386-0.43,2.196-0.43
				c0.798,0,1.525,0.142,2.182,0.425c0.657,0.283,1.217,0.691,1.68,1.224s0.821,1.184,1.076,1.957
				C122.015,4.378,122.143,5.25,122.143,6.222z M119.904,6.222c0-0.717-0.069-1.348-0.208-1.892
				c-0.139-0.543-0.34-0.999-0.604-1.367c-0.263-0.367-0.585-0.645-0.967-0.833s-0.816-0.282-1.302-0.282
				c-0.486,0-0.92,0.093-1.302,0.278s-0.705,0.461-0.968,0.829c-0.264,0.368-0.466,0.825-0.607,1.371
				c-0.142,0.547-0.213,1.179-0.213,1.896c0,1.435,0.271,2.517,0.812,3.246c0.541,0.729,1.3,1.093,2.278,1.093
				c0.479,0,0.911-0.091,1.293-0.273s0.704-0.456,0.967-0.82c0.264-0.365,0.466-0.817,0.607-1.358
				C119.834,7.568,119.904,6.939,119.904,6.222z"/>
			<path class="st0" d="M134.83,11.611c0,0.133-0.01,0.229-0.03,0.287s-0.057,0.11-0.108,0.156
				c-0.063,0.052-0.162,0.094-0.295,0.125s-0.33,0.048-0.59,0.048c-0.255,0-0.454-0.015-0.6-0.043
				c-0.145-0.029-0.242-0.066-0.295-0.113c-0.052-0.058-0.088-0.116-0.108-0.173s-0.03-0.147-0.03-0.269V3.896l-2.187,3.818
				c-0.035,0.052-0.072,0.098-0.113,0.139c-0.04,0.041-0.092,0.084-0.156,0.13c-0.063,0.035-0.162,0.067-0.295,0.096
				s-0.307,0.043-0.521,0.043c-0.22,0-0.397-0.015-0.533-0.043c-0.137-0.029-0.236-0.061-0.3-0.096
				c-0.063-0.046-0.116-0.089-0.156-0.13s-0.078-0.087-0.112-0.139l-2.152-3.61v7.506c0,0.133-0.011,0.229-0.03,0.287
				c-0.021,0.058-0.057,0.11-0.108,0.156c-0.064,0.052-0.167,0.094-0.309,0.125s-0.343,0.048-0.603,0.048
				c-0.249,0-0.44-0.015-0.573-0.043s-0.231-0.066-0.295-0.113c-0.052-0.058-0.089-0.116-0.108-0.173
				c-0.021-0.058-0.03-0.147-0.03-0.269V1.709l-0.339-0.573c-0.075-0.116-0.13-0.208-0.165-0.278
				c-0.034-0.069-0.052-0.153-0.052-0.251c0-0.11,0.061-0.206,0.183-0.287c0.08-0.046,0.205-0.081,0.373-0.104
				c0.167-0.023,0.367-0.035,0.599-0.035c0.341,0,0.608,0.026,0.803,0.078c0.193,0.052,0.334,0.145,0.421,0.278l3.506,5.45
				l3.185-5.346c0.075-0.133,0.156-0.234,0.243-0.304c0.075-0.052,0.175-0.091,0.299-0.117c0.125-0.026,0.303-0.039,0.534-0.039
				c0.261,0,0.461,0.015,0.604,0.043c0.142,0.029,0.244,0.066,0.308,0.113c0.052,0.052,0.088,0.108,0.108,0.169
				c0.021,0.061,0.03,0.152,0.03,0.273V11.611z"/>
			<path class="st0" d="M146.337,11.836c0,0.052-0.016,0.1-0.048,0.144c-0.031,0.043-0.064,0.08-0.1,0.108
				c-0.046,0.035-0.141,0.069-0.282,0.104s-0.343,0.052-0.603,0.052c-0.295,0-0.505-0.018-0.63-0.052
				c-0.124-0.035-0.218-0.075-0.281-0.122c-0.093-0.075-0.168-0.205-0.226-0.39l-0.799-2.421h-4.27l-0.764,2.326
				c-0.034,0.116-0.071,0.217-0.108,0.304c-0.038,0.087-0.079,0.147-0.126,0.182c-0.063,0.052-0.168,0.094-0.313,0.126
				s-0.341,0.048-0.59,0.048c-0.261,0-0.454-0.015-0.581-0.043c-0.128-0.029-0.223-0.066-0.287-0.113
				c-0.075-0.069-0.112-0.153-0.112-0.252c0-0.052,0.012-0.121,0.034-0.208c0.023-0.087,0.05-0.17,0.078-0.252l3.767-10.752
				c0.029-0.092,0.063-0.162,0.1-0.208c0.038-0.046,0.074-0.084,0.108-0.113c0.075-0.046,0.183-0.084,0.321-0.113
				s0.353-0.043,0.643-0.043c0.295,0,0.513,0.015,0.655,0.043c0.142,0.029,0.25,0.066,0.325,0.113
				c0.034,0.029,0.07,0.066,0.108,0.113c0.037,0.046,0.07,0.116,0.1,0.208l3.783,10.822c0.029,0.081,0.053,0.153,0.07,0.217
				C146.328,11.727,146.337,11.785,146.337,11.836z M141.234,2.794l-1.579,4.799h3.158L141.234,2.794z"/>
			<path class="st0" d="M156.447,11.611c0,0.133-0.012,0.229-0.035,0.287s-0.058,0.11-0.104,0.156
				c-0.063,0.052-0.159,0.094-0.286,0.125s-0.313,0.048-0.556,0.048c-0.26,0-0.455-0.016-0.585-0.048
				c-0.131-0.032-0.23-0.079-0.3-0.143c-0.063-0.052-0.116-0.124-0.156-0.217l-4.625-7.48v7.272c0,0.133-0.011,0.229-0.03,0.287
				c-0.021,0.058-0.057,0.11-0.108,0.156c-0.064,0.052-0.161,0.094-0.291,0.125s-0.325,0.048-0.586,0.048
				c-0.249,0-0.445-0.015-0.59-0.043s-0.249-0.066-0.313-0.113c-0.052-0.058-0.089-0.116-0.108-0.173
				c-0.021-0.058-0.03-0.147-0.03-0.269V1.709l-0.356-0.607c-0.046-0.081-0.091-0.161-0.134-0.239
				c-0.044-0.078-0.065-0.152-0.065-0.221c0-0.116,0.046-0.211,0.139-0.287c0.063-0.052,0.181-0.094,0.352-0.125
				s0.403-0.048,0.698-0.048c0.22,0,0.399,0.013,0.538,0.039c0.14,0.026,0.252,0.058,0.339,0.095c0.087,0.038,0.15,0.082,0.19,0.13
				c0.041,0.049,0.075,0.097,0.104,0.143l4.816,7.819v-7.61c0-0.133,0.012-0.229,0.034-0.287c0.023-0.058,0.062-0.11,0.113-0.156
				c0.063-0.052,0.162-0.094,0.295-0.125s0.324-0.048,0.573-0.048c0.26,0,0.462,0.015,0.607,0.043
				c0.145,0.029,0.245,0.066,0.304,0.113c0.052,0.052,0.091,0.108,0.117,0.169c0.025,0.061,0.039,0.152,0.039,0.273V11.611z"/>
			<path class="st0" d="M167.485,11.143c0,0.092-0.031,0.178-0.095,0.256c-0.064,0.078-0.18,0.172-0.348,0.282
				c-0.069,0.046-0.162,0.095-0.277,0.147c-0.116,0.052-0.237,0.104-0.364,0.156c-0.128,0.052-0.255,0.098-0.382,0.139
				c-0.128,0.041-0.237,0.069-0.33,0.087c-0.243,0.052-0.512,0.098-0.808,0.139c-0.295,0.041-0.633,0.061-1.015,0.061
				c-0.781,0-1.5-0.137-2.156-0.412c-0.657-0.274-1.226-0.674-1.706-1.197c-0.479-0.524-0.854-1.169-1.123-1.936
				c-0.27-0.766-0.404-1.641-0.404-2.625c0-0.983,0.135-1.861,0.404-2.634c0.269-0.772,0.641-1.426,1.115-1.961
				c0.474-0.535,1.035-0.943,1.683-1.224C162.328,0.14,163.031,0,163.789,0c0.394,0,0.739,0.017,1.037,0.052
				c0.298,0.035,0.561,0.078,0.789,0.13s0.43,0.11,0.604,0.173c0.174,0.064,0.33,0.125,0.469,0.183
				c0.277,0.116,0.472,0.221,0.581,0.316c0.11,0.096,0.165,0.195,0.165,0.3c0,0.116-0.021,0.238-0.061,0.369
				c-0.041,0.13-0.11,0.279-0.208,0.447c-0.064,0.116-0.123,0.211-0.179,0.287c-0.055,0.075-0.106,0.134-0.156,0.178
				c-0.049,0.043-0.098,0.072-0.147,0.087c-0.049,0.014-0.1,0.021-0.151,0.021c-0.099,0-0.211-0.026-0.339-0.078
				c-0.127-0.052-0.234-0.098-0.32-0.139c-0.053-0.023-0.138-0.06-0.257-0.108c-0.118-0.049-0.262-0.099-0.43-0.147
				c-0.167-0.049-0.361-0.093-0.581-0.13s-0.46-0.057-0.72-0.057c-0.486,0-0.925,0.091-1.315,0.273s-0.723,0.456-0.998,0.82
				c-0.274,0.364-0.485,0.817-0.633,1.358s-0.222,1.17-0.222,1.888c0,0.711,0.084,1.335,0.252,1.87s0.395,0.982,0.681,1.34
				c0.287,0.359,0.622,0.628,1.007,0.807c0.385,0.18,0.794,0.269,1.229,0.269c0.295,0,0.557-0.017,0.785-0.052
				s0.428-0.078,0.599-0.13s0.318-0.105,0.442-0.161c0.124-0.055,0.23-0.103,0.316-0.143c0.145-0.063,0.254-0.105,0.326-0.126
				c0.072-0.02,0.154-0.03,0.247-0.03c0.104,0,0.21,0.046,0.316,0.139c0.107,0.093,0.21,0.223,0.309,0.391
				C167.398,10.703,167.485,10.952,167.485,11.143z"/>
			<path class="st0" d="M176.71,10.821c0,0.185-0.016,0.382-0.047,0.59c-0.032,0.208-0.08,0.373-0.144,0.495
				c-0.052,0.098-0.129,0.165-0.23,0.199c-0.101,0.035-0.232,0.052-0.395,0.052h-5.918c-0.261,0-0.454-0.014-0.582-0.043
				c-0.127-0.029-0.217-0.066-0.269-0.113s-0.091-0.105-0.117-0.178s-0.039-0.175-0.039-0.308V0.911
				c0-0.133,0.013-0.237,0.039-0.313s0.065-0.133,0.117-0.173c0.052-0.052,0.14-0.094,0.265-0.126
				c0.124-0.032,0.319-0.048,0.586-0.048h6.118c0.121,0,0.212,0.007,0.272,0.022c0.062,0.014,0.105,0.03,0.135,0.047
				c0.052,0.035,0.086,0.084,0.1,0.147c0.015,0.064,0.022,0.145,0.022,0.243c0,0.093-0.005,0.191-0.014,0.295
				c-0.009,0.104-0.021,0.206-0.039,0.304c-0.018,0.099-0.037,0.191-0.061,0.278s-0.049,0.156-0.078,0.208
				c-0.063,0.11-0.144,0.179-0.238,0.208c-0.096,0.029-0.225,0.043-0.387,0.043h-4.712v2.838h4.2c0.121,0,0.211,0.008,0.269,0.026
				c0.059,0.018,0.104,0.041,0.14,0.069c0.052,0.035,0.088,0.081,0.108,0.139c0.02,0.058,0.03,0.142,0.03,0.251
				c0,0.087-0.005,0.182-0.014,0.286c-0.008,0.104-0.021,0.207-0.038,0.308c-0.018,0.102-0.038,0.195-0.062,0.282
				c-0.022,0.087-0.049,0.156-0.078,0.208c-0.063,0.099-0.145,0.161-0.242,0.187c-0.099,0.026-0.231,0.039-0.399,0.039h-3.914v3.679
				h5.085c0.128,0,0.22,0.007,0.278,0.022c0.058,0.014,0.101,0.03,0.13,0.047c0.052,0.041,0.085,0.091,0.1,0.152
				C176.703,10.644,176.71,10.723,176.71,10.821z"/>
		</g>
		<g>
			<path class="st0" d="M13.209,0.711c0,0.093-0.004,0.191-0.013,0.295c-0.009,0.104-0.021,0.206-0.039,0.304
				c-0.018,0.099-0.038,0.191-0.061,0.278c-0.023,0.087-0.049,0.156-0.078,0.208c-0.064,0.11-0.145,0.179-0.243,0.208
				c-0.099,0.029-0.231,0.043-0.399,0.043H9.477v9.563c0,0.133-0.01,0.229-0.03,0.287c-0.02,0.058-0.056,0.11-0.108,0.156
				c-0.063,0.052-0.169,0.094-0.317,0.125c-0.147,0.032-0.351,0.048-0.612,0.048c-0.249,0-0.448-0.015-0.599-0.043
				s-0.257-0.066-0.321-0.113c-0.058-0.058-0.097-0.116-0.117-0.173c-0.021-0.058-0.031-0.147-0.031-0.269V2.048h-3.21
				c-0.127,0-0.22-0.007-0.278-0.021C3.796,2.012,3.752,1.993,3.723,1.97C3.666,1.935,3.63,1.886,3.615,1.822
				C3.6,1.759,3.593,1.678,3.593,1.579c0-0.092,0.004-0.191,0.013-0.295C3.615,1.18,3.628,1.079,3.645,0.98
				c0.018-0.098,0.038-0.189,0.061-0.273c0.023-0.083,0.052-0.152,0.086-0.204c0.064-0.11,0.144-0.18,0.239-0.208
				c0.096-0.029,0.221-0.043,0.377-0.043h8.253c0.122,0,0.212,0.007,0.273,0.022c0.061,0.014,0.105,0.03,0.134,0.047
				C13.162,0.385,13.209,0.515,13.209,0.711z"/>
			<path class="st0" d="M22.094,11.836c0,0.052-0.016,0.1-0.047,0.144c-0.032,0.043-0.065,0.08-0.1,0.108
				c-0.046,0.035-0.14,0.069-0.282,0.104c-0.142,0.035-0.343,0.052-0.604,0.052c-0.295,0-0.504-0.018-0.629-0.052
				s-0.218-0.075-0.282-0.122c-0.092-0.075-0.167-0.205-0.226-0.39l-0.798-2.421h-4.27l-0.764,2.326
				c-0.035,0.116-0.071,0.217-0.108,0.304s-0.08,0.147-0.126,0.182c-0.063,0.052-0.167,0.094-0.312,0.126
				c-0.145,0.032-0.342,0.048-0.59,0.048c-0.26,0-0.454-0.015-0.582-0.043c-0.127-0.029-0.223-0.066-0.286-0.113
				c-0.075-0.069-0.113-0.153-0.113-0.252c0-0.052,0.011-0.121,0.035-0.208c0.023-0.087,0.049-0.17,0.078-0.252l3.766-10.752
				c0.029-0.092,0.062-0.162,0.1-0.208s0.074-0.084,0.109-0.113c0.075-0.046,0.182-0.084,0.321-0.113s0.353-0.043,0.642-0.043
				c0.295,0,0.514,0.015,0.655,0.043s0.25,0.066,0.326,0.113c0.035,0.029,0.071,0.066,0.108,0.113s0.071,0.116,0.1,0.208
				l3.784,10.822c0.029,0.081,0.052,0.153,0.069,0.217C22.086,11.727,22.094,11.785,22.094,11.836z M16.992,2.794l-1.579,4.799
				h3.159L16.992,2.794z"/>
			<path class="st0" d="M31.71,3.766c0,0.521-0.091,1.007-0.273,1.458c-0.182,0.451-0.46,0.842-0.833,1.171s-0.842,0.59-1.406,0.781
				s-1.231,0.286-2,0.286c-0.208,0-0.387-0.001-0.538-0.004c-0.151-0.003-0.287-0.005-0.408-0.009
				c-0.122-0.002-0.234-0.007-0.338-0.013s-0.217-0.015-0.338-0.026v4.2c0,0.133-0.01,0.229-0.03,0.287
				c-0.021,0.058-0.057,0.11-0.108,0.156c-0.064,0.052-0.169,0.094-0.317,0.125s-0.352,0.048-0.612,0.048
				c-0.249,0-0.442-0.015-0.582-0.043c-0.139-0.029-0.24-0.066-0.304-0.113c-0.052-0.058-0.088-0.116-0.108-0.173
				c-0.021-0.058-0.03-0.147-0.03-0.269V0.894c0-0.133,0.013-0.235,0.039-0.308c0.026-0.072,0.065-0.131,0.117-0.178
				c0.052-0.046,0.142-0.084,0.269-0.113c0.127-0.029,0.321-0.043,0.581-0.043h2.777c0.683,0,1.298,0.071,1.848,0.213
				c0.55,0.142,1.017,0.357,1.401,0.646c0.385,0.289,0.68,0.655,0.885,1.098C31.607,2.651,31.71,3.17,31.71,3.766z M29.523,3.714
				c0-0.526-0.19-0.944-0.569-1.254c-0.379-0.309-0.979-0.464-1.8-0.464h-1.58v3.697c0.203,0.011,0.415,0.02,0.638,0.026
				s0.473,0.009,0.751,0.009c0.451,0,0.837-0.048,1.158-0.144c0.321-0.095,0.586-0.231,0.794-0.408
				c0.208-0.176,0.362-0.389,0.46-0.638C29.474,4.29,29.523,4.015,29.523,3.714z"/>
			<path class="st0" d="M46.298,0.711c0,0.093-0.004,0.191-0.013,0.295c-0.009,0.104-0.021,0.206-0.039,0.304
				c-0.018,0.099-0.038,0.191-0.061,0.278c-0.023,0.087-0.049,0.156-0.078,0.208c-0.064,0.11-0.145,0.179-0.243,0.208
				c-0.099,0.029-0.231,0.043-0.399,0.043h-2.898v9.563c0,0.133-0.01,0.229-0.03,0.287c-0.02,0.058-0.056,0.11-0.108,0.156
				c-0.063,0.052-0.169,0.094-0.317,0.125c-0.147,0.032-0.351,0.048-0.612,0.048c-0.249,0-0.448-0.015-0.599-0.043
				s-0.257-0.066-0.321-0.113c-0.058-0.058-0.097-0.116-0.117-0.173c-0.021-0.058-0.031-0.147-0.031-0.269V2.048h-3.21
				c-0.127,0-0.22-0.007-0.278-0.021c-0.058-0.015-0.102-0.033-0.13-0.057c-0.058-0.035-0.094-0.083-0.108-0.147
				c-0.015-0.063-0.021-0.145-0.021-0.243c0-0.092,0.004-0.191,0.013-0.295c0.009-0.104,0.022-0.205,0.039-0.304
				c0.018-0.098,0.038-0.189,0.061-0.273c0.023-0.083,0.052-0.152,0.086-0.204c0.064-0.11,0.144-0.18,0.239-0.208
				c0.096-0.029,0.221-0.043,0.377-0.043h8.253c0.122,0,0.212,0.007,0.273,0.022c0.061,0.014,0.105,0.03,0.134,0.047
				C46.251,0.385,46.298,0.515,46.298,0.711z"/>
			<path class="st0" d="M56.946,6.222c0,0.966-0.127,1.833-0.382,2.599c-0.255,0.767-0.613,1.416-1.076,1.948
				c-0.463,0.533-1.022,0.939-1.679,1.219c-0.657,0.281-1.384,0.421-2.183,0.421c-0.804,0-1.533-0.14-2.187-0.421
				c-0.654-0.28-1.214-0.686-1.679-1.215c-0.466-0.529-0.826-1.177-1.081-1.944c-0.255-0.767-0.382-1.636-0.382-2.607
				c0-0.966,0.126-1.834,0.377-2.604s0.61-1.422,1.076-1.957c0.465-0.535,1.025-0.946,1.679-1.232C50.084,0.143,50.816,0,51.626,0
				c0.798,0,1.526,0.142,2.183,0.425c0.657,0.283,1.216,0.691,1.679,1.224s0.821,1.184,1.076,1.957
				C56.818,4.378,56.946,5.25,56.946,6.222z M54.706,6.222c0-0.717-0.069-1.348-0.208-1.892c-0.139-0.543-0.34-0.999-0.603-1.367
				c-0.264-0.367-0.586-0.645-0.968-0.833s-0.816-0.282-1.302-0.282s-0.92,0.093-1.302,0.278s-0.704,0.461-0.967,0.829
				c-0.264,0.368-0.466,0.825-0.607,1.371c-0.142,0.547-0.213,1.179-0.213,1.896c0,1.435,0.271,2.517,0.812,3.246
				c0.541,0.729,1.3,1.093,2.278,1.093c0.48,0,0.911-0.091,1.293-0.273s0.705-0.456,0.968-0.82c0.263-0.365,0.466-0.817,0.607-1.358
				S54.706,6.939,54.706,6.222z"/>
			<path class="st0" d="M72.322,11.836c0,0.052-0.016,0.1-0.047,0.144c-0.032,0.043-0.065,0.08-0.1,0.108
				c-0.046,0.035-0.14,0.069-0.282,0.104c-0.142,0.035-0.343,0.052-0.604,0.052c-0.295,0-0.504-0.018-0.629-0.052
				s-0.218-0.075-0.282-0.122c-0.092-0.075-0.167-0.205-0.226-0.39l-0.798-2.421h-4.27l-0.764,2.326
				c-0.035,0.116-0.071,0.217-0.108,0.304s-0.08,0.147-0.126,0.182c-0.063,0.052-0.167,0.094-0.312,0.126
				c-0.145,0.032-0.342,0.048-0.59,0.048c-0.26,0-0.454-0.015-0.582-0.043c-0.127-0.029-0.223-0.066-0.286-0.113
				c-0.075-0.069-0.113-0.153-0.113-0.252c0-0.052,0.011-0.121,0.035-0.208c0.023-0.087,0.049-0.17,0.078-0.252l3.766-10.752
				c0.029-0.092,0.062-0.162,0.1-0.208s0.074-0.084,0.109-0.113c0.075-0.046,0.182-0.084,0.321-0.113s0.353-0.043,0.642-0.043
				c0.295,0,0.514,0.015,0.655,0.043s0.25,0.066,0.326,0.113c0.035,0.029,0.071,0.066,0.108,0.113s0.071,0.116,0.1,0.208
				l3.784,10.822c0.029,0.081,0.052,0.153,0.069,0.217C72.314,11.727,72.322,11.785,72.322,11.836z M67.22,2.794l-1.579,4.799H68.8
				L67.22,2.794z"/>
			<path class="st0" d="M83.448,6.17c0,0.937-0.13,1.776-0.391,2.517c-0.26,0.741-0.629,1.368-1.106,1.883
				c-0.478,0.515-1.056,0.908-1.736,1.18s-1.439,0.408-2.278,0.408h-3.22c-0.26,0-0.454-0.014-0.581-0.043
				c-0.127-0.029-0.217-0.066-0.269-0.113c-0.052-0.046-0.091-0.105-0.117-0.178s-0.039-0.175-0.039-0.308V0.911
				c0-0.133,0.013-0.237,0.039-0.313s0.065-0.133,0.117-0.173c0.052-0.052,0.14-0.094,0.265-0.126
				c0.124-0.032,0.319-0.048,0.585-0.048h3.254c0.833,0,1.586,0.132,2.261,0.395c0.674,0.263,1.25,0.646,1.727,1.15
				c0.477,0.503,0.844,1.122,1.102,1.857C83.319,4.388,83.448,5.227,83.448,6.17z M81.192,6.17c0-1.342-0.279-2.365-0.837-3.068
				c-0.559-0.703-1.387-1.054-2.486-1.054h-2.031v8.313h2.135c1.047,0,1.846-0.357,2.395-1.072
				C80.917,8.575,81.192,7.535,81.192,6.17z"/>
			<path class="st0" d="M95.215,6.17c0,0.937-0.129,1.776-0.391,2.517c-0.26,0.741-0.629,1.368-1.105,1.883
				c-0.478,0.515-1.056,0.908-1.736,1.18s-1.439,0.408-2.278,0.408h-3.22c-0.26,0-0.454-0.014-0.581-0.043
				c-0.127-0.029-0.217-0.066-0.269-0.113c-0.052-0.046-0.091-0.105-0.117-0.178s-0.039-0.175-0.039-0.308V0.911
				c0-0.133,0.013-0.237,0.039-0.313s0.065-0.133,0.117-0.173c0.052-0.052,0.14-0.094,0.265-0.126
				c0.124-0.032,0.319-0.048,0.585-0.048h3.254c0.833,0,1.586,0.132,2.261,0.395c0.674,0.263,1.25,0.646,1.727,1.15
				c0.478,0.503,0.845,1.122,1.103,1.857C95.086,4.388,95.215,5.227,95.215,6.17z M92.959,6.17c0-1.342-0.279-2.365-0.837-3.068
				c-0.559-0.703-1.387-1.054-2.486-1.054h-2.031v8.313h2.135c1.047,0,1.846-0.357,2.395-1.072
				C92.684,8.575,92.959,7.535,92.959,6.17z"/>
			<path class="st0" d="M110.679,11.785c0,0.122-0.061,0.211-0.183,0.269c-0.063,0.035-0.176,0.072-0.338,0.113
				s-0.385,0.061-0.668,0.061c-0.168,0-0.318-0.003-0.451-0.009c-0.134-0.006-0.251-0.021-0.352-0.047
				c-0.102-0.026-0.189-0.064-0.265-0.113c-0.075-0.049-0.143-0.117-0.2-0.204l-2.916-4.391c-0.19,0-0.355-0.001-0.494-0.004
				s-0.265-0.005-0.378-0.009c-0.112-0.002-0.22-0.007-0.32-0.013c-0.102-0.006-0.207-0.015-0.317-0.026v4.2
				c0,0.133-0.01,0.229-0.03,0.287s-0.057,0.11-0.108,0.156c-0.063,0.052-0.169,0.094-0.316,0.125s-0.352,0.048-0.612,0.048
				c-0.249,0-0.445-0.015-0.59-0.043s-0.249-0.066-0.313-0.113c-0.052-0.058-0.088-0.116-0.108-0.173s-0.03-0.147-0.03-0.269V0.911
				c0-0.133,0.015-0.236,0.043-0.308c0.029-0.072,0.066-0.131,0.113-0.178c0.052-0.052,0.14-0.094,0.265-0.126
				c0.124-0.032,0.319-0.048,0.586-0.048h2.707c1.412,0,2.495,0.287,3.25,0.859s1.133,1.458,1.133,2.655
				c0,0.37-0.044,0.723-0.131,1.059c-0.086,0.336-0.224,0.646-0.412,0.929c-0.188,0.284-0.427,0.538-0.716,0.764
				s-0.633,0.411-1.032,0.555l2.916,4.166c0.092,0.133,0.16,0.24,0.203,0.321C110.658,11.64,110.679,11.715,110.679,11.785z
				 M107.625,3.731c0-0.26-0.04-0.498-0.121-0.711c-0.081-0.214-0.215-0.398-0.399-0.551c-0.186-0.153-0.425-0.271-0.721-0.352
				c-0.295-0.081-0.659-0.122-1.093-0.122h-1.51v3.697c0.104,0.005,0.199,0.01,0.286,0.013s0.178,0.006,0.273,0.009
				c0.095,0.003,0.204,0.006,0.325,0.009s0.266,0.004,0.434,0.004c0.469,0,0.865-0.048,1.189-0.144
				c0.323-0.095,0.584-0.231,0.78-0.408c0.197-0.176,0.339-0.388,0.426-0.633C107.582,4.297,107.625,4.026,107.625,3.731z"/>
			<path class="st0" d="M122.143,6.222c0,0.966-0.128,1.833-0.382,2.599c-0.255,0.767-0.613,1.416-1.076,1.948
				c-0.463,0.533-1.022,0.939-1.68,1.219c-0.656,0.281-1.384,0.421-2.182,0.421c-0.805,0-1.533-0.14-2.188-0.421
				c-0.653-0.28-1.213-0.686-1.679-1.215s-0.826-1.177-1.081-1.944c-0.254-0.767-0.382-1.636-0.382-2.607
				c0-0.966,0.126-1.834,0.378-2.604s0.61-1.422,1.076-1.957s1.025-0.946,1.679-1.232c0.654-0.287,1.386-0.43,2.196-0.43
				c0.798,0,1.525,0.142,2.182,0.425c0.657,0.283,1.217,0.691,1.68,1.224s0.821,1.184,1.076,1.957
				C122.015,4.378,122.143,5.25,122.143,6.222z M119.904,6.222c0-0.717-0.069-1.348-0.208-1.892
				c-0.139-0.543-0.34-0.999-0.604-1.367c-0.263-0.367-0.585-0.645-0.967-0.833s-0.816-0.282-1.302-0.282
				c-0.486,0-0.92,0.093-1.302,0.278s-0.705,0.461-0.968,0.829c-0.264,0.368-0.466,0.825-0.607,1.371
				c-0.142,0.547-0.213,1.179-0.213,1.896c0,1.435,0.271,2.517,0.812,3.246c0.541,0.729,1.3,1.093,2.278,1.093
				c0.479,0,0.911-0.091,1.293-0.273s0.704-0.456,0.967-0.82c0.264-0.365,0.466-0.817,0.607-1.358
				C119.834,7.568,119.904,6.939,119.904,6.222z"/>
			<path class="st0" d="M134.83,11.611c0,0.133-0.01,0.229-0.03,0.287s-0.057,0.11-0.108,0.156
				c-0.063,0.052-0.162,0.094-0.295,0.125s-0.33,0.048-0.59,0.048c-0.255,0-0.454-0.015-0.6-0.043
				c-0.145-0.029-0.242-0.066-0.295-0.113c-0.052-0.058-0.088-0.116-0.108-0.173s-0.03-0.147-0.03-0.269V3.896l-2.187,3.818
				c-0.035,0.052-0.072,0.098-0.113,0.139c-0.04,0.041-0.092,0.084-0.156,0.13c-0.063,0.035-0.162,0.067-0.295,0.096
				s-0.307,0.043-0.521,0.043c-0.22,0-0.397-0.015-0.533-0.043c-0.137-0.029-0.236-0.061-0.3-0.096
				c-0.063-0.046-0.116-0.089-0.156-0.13s-0.078-0.087-0.112-0.139l-2.152-3.61v7.506c0,0.133-0.011,0.229-0.03,0.287
				c-0.021,0.058-0.057,0.11-0.108,0.156c-0.064,0.052-0.167,0.094-0.309,0.125s-0.343,0.048-0.603,0.048
				c-0.249,0-0.44-0.015-0.573-0.043s-0.231-0.066-0.295-0.113c-0.052-0.058-0.089-0.116-0.108-0.173
				c-0.021-0.058-0.03-0.147-0.03-0.269V1.709l-0.339-0.573c-0.075-0.116-0.13-0.208-0.165-0.278
				c-0.034-0.069-0.052-0.153-0.052-0.251c0-0.11,0.061-0.206,0.183-0.287c0.08-0.046,0.205-0.081,0.373-0.104
				c0.167-0.023,0.367-0.035,0.599-0.035c0.341,0,0.608,0.026,0.803,0.078c0.193,0.052,0.334,0.145,0.421,0.278l3.506,5.45
				l3.185-5.346c0.075-0.133,0.156-0.234,0.243-0.304c0.075-0.052,0.175-0.091,0.299-0.117c0.125-0.026,0.303-0.039,0.534-0.039
				c0.261,0,0.461,0.015,0.604,0.043c0.142,0.029,0.244,0.066,0.308,0.113c0.052,0.052,0.088,0.108,0.108,0.169
				c0.021,0.061,0.03,0.152,0.03,0.273V11.611z"/>
			<path class="st0" d="M146.337,11.836c0,0.052-0.016,0.1-0.048,0.144c-0.031,0.043-0.064,0.08-0.1,0.108
				c-0.046,0.035-0.141,0.069-0.282,0.104s-0.343,0.052-0.603,0.052c-0.295,0-0.505-0.018-0.63-0.052
				c-0.124-0.035-0.218-0.075-0.281-0.122c-0.093-0.075-0.168-0.205-0.226-0.39l-0.799-2.421h-4.27l-0.764,2.326
				c-0.034,0.116-0.071,0.217-0.108,0.304c-0.038,0.087-0.079,0.147-0.126,0.182c-0.063,0.052-0.168,0.094-0.313,0.126
				s-0.341,0.048-0.59,0.048c-0.261,0-0.454-0.015-0.581-0.043c-0.128-0.029-0.223-0.066-0.287-0.113
				c-0.075-0.069-0.112-0.153-0.112-0.252c0-0.052,0.012-0.121,0.034-0.208c0.023-0.087,0.05-0.17,0.078-0.252l3.767-10.752
				c0.029-0.092,0.063-0.162,0.1-0.208c0.038-0.046,0.074-0.084,0.108-0.113c0.075-0.046,0.183-0.084,0.321-0.113
				s0.353-0.043,0.643-0.043c0.295,0,0.513,0.015,0.655,0.043c0.142,0.029,0.25,0.066,0.325,0.113
				c0.034,0.029,0.07,0.066,0.108,0.113c0.037,0.046,0.07,0.116,0.1,0.208l3.783,10.822c0.029,0.081,0.053,0.153,0.07,0.217
				C146.328,11.727,146.337,11.785,146.337,11.836z M141.234,2.794l-1.579,4.799h3.158L141.234,2.794z"/>
			<path class="st0" d="M156.447,11.611c0,0.133-0.012,0.229-0.035,0.287s-0.058,0.11-0.104,0.156
				c-0.063,0.052-0.159,0.094-0.286,0.125s-0.313,0.048-0.556,0.048c-0.26,0-0.455-0.016-0.585-0.048
				c-0.131-0.032-0.23-0.079-0.3-0.143c-0.063-0.052-0.116-0.124-0.156-0.217l-4.625-7.48v7.272c0,0.133-0.011,0.229-0.03,0.287
				c-0.021,0.058-0.057,0.11-0.108,0.156c-0.064,0.052-0.161,0.094-0.291,0.125s-0.325,0.048-0.586,0.048
				c-0.249,0-0.445-0.015-0.59-0.043s-0.249-0.066-0.313-0.113c-0.052-0.058-0.089-0.116-0.108-0.173
				c-0.021-0.058-0.03-0.147-0.03-0.269V1.709l-0.356-0.607c-0.046-0.081-0.091-0.161-0.134-0.239
				c-0.044-0.078-0.065-0.152-0.065-0.221c0-0.116,0.046-0.211,0.139-0.287c0.063-0.052,0.181-0.094,0.352-0.125
				s0.403-0.048,0.698-0.048c0.22,0,0.399,0.013,0.538,0.039c0.14,0.026,0.252,0.058,0.339,0.095c0.087,0.038,0.15,0.082,0.19,0.13
				c0.041,0.049,0.075,0.097,0.104,0.143l4.816,7.819v-7.61c0-0.133,0.012-0.229,0.034-0.287c0.023-0.058,0.062-0.11,0.113-0.156
				c0.063-0.052,0.162-0.094,0.295-0.125s0.324-0.048,0.573-0.048c0.26,0,0.462,0.015,0.607,0.043
				c0.145,0.029,0.245,0.066,0.304,0.113c0.052,0.052,0.091,0.108,0.117,0.169c0.025,0.061,0.039,0.152,0.039,0.273V11.611z"/>
			<path class="st0" d="M167.485,11.143c0,0.092-0.031,0.178-0.095,0.256c-0.064,0.078-0.18,0.172-0.348,0.282
				c-0.069,0.046-0.162,0.095-0.277,0.147c-0.116,0.052-0.237,0.104-0.364,0.156c-0.128,0.052-0.255,0.098-0.382,0.139
				c-0.128,0.041-0.237,0.069-0.33,0.087c-0.243,0.052-0.512,0.098-0.808,0.139c-0.295,0.041-0.633,0.061-1.015,0.061
				c-0.781,0-1.5-0.137-2.156-0.412c-0.657-0.274-1.226-0.674-1.706-1.197c-0.479-0.524-0.854-1.169-1.123-1.936
				c-0.27-0.766-0.404-1.641-0.404-2.625c0-0.983,0.135-1.861,0.404-2.634c0.269-0.772,0.641-1.426,1.115-1.961
				c0.474-0.535,1.035-0.943,1.683-1.224C162.328,0.14,163.031,0,163.789,0c0.394,0,0.739,0.017,1.037,0.052
				c0.298,0.035,0.561,0.078,0.789,0.13s0.43,0.11,0.604,0.173c0.174,0.064,0.33,0.125,0.469,0.183
				c0.277,0.116,0.472,0.221,0.581,0.316c0.11,0.096,0.165,0.195,0.165,0.3c0,0.116-0.021,0.238-0.061,0.369
				c-0.041,0.13-0.11,0.279-0.208,0.447c-0.064,0.116-0.123,0.211-0.179,0.287c-0.055,0.075-0.106,0.134-0.156,0.178
				c-0.049,0.043-0.098,0.072-0.147,0.087c-0.049,0.014-0.1,0.021-0.151,0.021c-0.099,0-0.211-0.026-0.339-0.078
				c-0.127-0.052-0.234-0.098-0.32-0.139c-0.053-0.023-0.138-0.06-0.257-0.108c-0.118-0.049-0.262-0.099-0.43-0.147
				c-0.167-0.049-0.361-0.093-0.581-0.13s-0.46-0.057-0.72-0.057c-0.486,0-0.925,0.091-1.315,0.273s-0.723,0.456-0.998,0.82
				c-0.274,0.364-0.485,0.817-0.633,1.358s-0.222,1.17-0.222,1.888c0,0.711,0.084,1.335,0.252,1.87s0.395,0.982,0.681,1.34
				c0.287,0.359,0.622,0.628,1.007,0.807c0.385,0.18,0.794,0.269,1.229,0.269c0.295,0,0.557-0.017,0.785-0.052
				s0.428-0.078,0.599-0.13s0.318-0.105,0.442-0.161c0.124-0.055,0.23-0.103,0.316-0.143c0.145-0.063,0.254-0.105,0.326-0.126
				c0.072-0.02,0.154-0.03,0.247-0.03c0.104,0,0.21,0.046,0.316,0.139c0.107,0.093,0.21,0.223,0.309,0.391
				C167.398,10.703,167.485,10.952,167.485,11.143z"/>
			<path class="st0" d="M176.71,10.821c0,0.185-0.016,0.382-0.047,0.59c-0.032,0.208-0.08,0.373-0.144,0.495
				c-0.052,0.098-0.129,0.165-0.23,0.199c-0.101,0.035-0.232,0.052-0.395,0.052h-5.918c-0.261,0-0.454-0.014-0.582-0.043
				c-0.127-0.029-0.217-0.066-0.269-0.113s-0.091-0.105-0.117-0.178s-0.039-0.175-0.039-0.308V0.911
				c0-0.133,0.013-0.237,0.039-0.313s0.065-0.133,0.117-0.173c0.052-0.052,0.14-0.094,0.265-0.126
				c0.124-0.032,0.319-0.048,0.586-0.048h6.118c0.121,0,0.212,0.007,0.272,0.022c0.062,0.014,0.105,0.03,0.135,0.047
				c0.052,0.035,0.086,0.084,0.1,0.147c0.015,0.064,0.022,0.145,0.022,0.243c0,0.093-0.005,0.191-0.014,0.295
				c-0.009,0.104-0.021,0.206-0.039,0.304c-0.018,0.099-0.037,0.191-0.061,0.278s-0.049,0.156-0.078,0.208
				c-0.063,0.11-0.144,0.179-0.238,0.208c-0.096,0.029-0.225,0.043-0.387,0.043h-4.712v2.838h4.2c0.121,0,0.211,0.008,0.269,0.026
				c0.059,0.018,0.104,0.041,0.14,0.069c0.052,0.035,0.088,0.081,0.108,0.139c0.02,0.058,0.03,0.142,0.03,0.251
				c0,0.087-0.005,0.182-0.014,0.286c-0.008,0.104-0.021,0.207-0.038,0.308c-0.018,0.102-0.038,0.195-0.062,0.282
				c-0.022,0.087-0.049,0.156-0.078,0.208c-0.063,0.099-0.145,0.161-0.242,0.187c-0.099,0.026-0.231,0.039-0.399,0.039h-3.914v3.679
				h5.085c0.128,0,0.22,0.007,0.278,0.022c0.058,0.014,0.101,0.03,0.13,0.047c0.052,0.041,0.085,0.091,0.1,0.152
				C176.703,10.644,176.71,10.723,176.71,10.821z"/>
		</g>
	</g>
</g>
</svg>
