<?xml version="1.0" encoding="utf-8"?>
<!-- Generator: Adobe Illustrator 18.1.1, SVG Export Plug-In . SVG Version: 6.00 Build 0)  -->
<svg version="1.1" id="Layer_1" xmlns="http://www.w3.org/2000/svg" xmlns:xlink="http://www.w3.org/1999/xlink" x="0px" y="0px"
	 viewBox="68.745 259.687 1179.96 310.134" enable-background="new 68.745 259.687 1179.96 310.134" xml:space="preserve">
<path fill="#DA2128" d="M398.878,432.834c0,1.796-0.513,3.078-1.283,3.591c-1.283,1.283-4.104,1.283-7.695,1.283
	c-4.104,0-7.182-0.513-8.465-1.283c-1.283-0.513-1.283-1.796-1.283-3.591v-60.281h-1.283l-10.26,0.513
	c-7.182,0.513-7.695-5.387-7.695-9.491c0-7.695,3.078-10.261,7.182-10.261h42.581c3.591,0,5.9,1.283,7.182,6.669
	c1.283,6.669,0.513,9.491-5.387,10.261l-12.569,0.513h-0.513v62.333L398.878,432.834L398.878,432.834z"/>
<path fill="#DA2128" d="M475.062,437.194c-1.283,1.283-3.591,1.283-7.695,1.283s-6.669-0.513-7.695-1.283
	c-1.283-0.513-1.283-1.796-1.283-3.591v-28.729c0-5.387-2.309-7.182-6.669-7.182c-5.387,0-9.491,4.874-9.491,9.491v26.421
	c0,1.796-0.513,3.078-1.796,4.104c-1.283,1.283-3.591,1.283-7.695,1.283s-6.669-0.513-7.695-1.283
	c-1.283-0.513-1.283-1.796-1.283-3.591v-71.824c0-2.309,0-4.104,1.283-5.387c1.283-1.283,4.104-1.796,5.9-2.309
	c1.796-0.513,4.874-0.513,6.669-0.513c1.283,0,2.309,0,3.078,0.513c0.513,0.513,0.513,1.283,1.283,1.796c0,0.513,0,0.513,0,1.283
	c0,0.77,0,1.283,0,1.796v30.012c3.078-3.591,7.695-6.669,15.647-6.669c11.287,0,19.238,6.669,19.238,19.751v31.808
	C476.088,435.399,476.088,436.681,475.062,437.194L475.062,437.194z"/>
<path fill="#DA2128" d="M516.874,439.503c-17.443,0-29.242-11.287-29.242-28.729c0-17.443,12.056-28.729,29.242-28.729
	c16.673,0,29.242,12.056,29.242,28.729C545.603,428.216,533.547,439.503,516.874,439.503L516.874,439.503z M516.874,396.922
	c-6.669,0-10.773,5.387-10.773,13.852s3.591,13.852,10.773,13.852c6.669,0,10.261-5.387,10.261-13.852
	S523.543,396.922,516.874,396.922L516.874,396.922z"/>
<path fill="#DA2128" d="M638.974,437.194c-1.283,1.283-3.591,1.283-7.695,1.283s-6.669-0.513-7.695-1.283
	c-1.283-0.513-1.283-1.796-1.283-3.591v-29.242c0-4.874-1.796-6.669-5.9-6.669c-4.104,0-7.695,3.591-7.695,8.465v27.447
	c0,1.796-0.513,3.078-1.796,4.104c-1.283,1.283-3.591,1.283-7.695,1.283c-4.104,0-6.669-0.513-7.695-1.283
	c-1.283-0.513-1.283-1.796-1.283-3.591v-29.242c0-4.874-1.796-6.669-5.9-6.669c-4.104,0-8.465,3.591-8.465,8.465v27.447
	c0,1.796-0.513,3.078-1.796,4.104c-1.283,1.283-3.591,1.283-7.695,1.283c-4.104,0-6.669-0.513-7.695-1.283
	c-1.283-0.513-1.283-1.796-1.283-3.591v-42.325c0-2.309,0-4.104,1.283-5.387c1.283-1.283,3.591-1.796,5.9-2.309
	c1.796-0.513,4.874-0.513,6.669-0.513c1.283,0,2.309,0,3.078,0.513c0.513,0.513,0.513,1.283,1.283,1.796c0,0.513,0,0.513,0,1.283
	c0,0.513,0,1.283,0,1.796v1.283c2.309-3.591,8.465-7.182,15.647-7.182c6.669,0,12.056,2.309,14.878,7.695
	c3.591-4.104,9.491-7.695,16.673-7.695c9.491,0,17.956,5.387,17.956,17.956v33.603C640.257,435.399,640.257,436.681,638.974,437.194
	L638.974,437.194z"/>
<path fill="#DA2128" d="M676.681,439.503c-10.774,0-19.752-3.078-22.83-4.874s-3.078-3.078-3.078-4.874s0.513-3.591,1.796-5.387
	c1.283-1.283,2.309-3.078,4.104-3.078c1.283,0,2.309,0.513,4.104,1.283c1.283,0.513,3.078,1.283,4.104,1.796
	c3.078,1.283,7.695,1.796,12.056,1.796c5.387,0,7.182-1.796,7.182-3.591c0-2.309-1.796-3.078-7.695-4.104l-5.9-1.283
	c-8.978-1.796-17.956-5.9-17.956-16.673c0-12.056,10.774-17.956,24.625-17.956c7.182,0,14.365,1.796,18.469,3.078
	c3.078,1.283,3.591,2.309,3.591,4.104c0,0.513,0,1.796-0.513,2.309c0,0.513-0.513,1.796-0.513,2.309
	c-0.513,1.796-2.309,4.104-4.104,4.104c-1.283,0-2.309,0-3.591-0.513c-1.283-0.513-2.309-0.513-4.104-1.283
	c-2.309-0.513-5.387-1.283-9.491-1.283c-4.104,0-5.9,1.283-5.9,3.591c0,1.796,3.078,3.078,7.182,3.591l5.9,1.283
	c9.491,1.796,18.469,5.387,18.469,17.443C702.589,433.603,691.816,439.503,676.681,439.503L676.681,439.503z"/>
<path fill="#DA2128" d="M739.014,439.503c-17.443,0-29.242-11.287-29.242-28.729c0-17.443,12.056-28.729,29.242-28.729
	c16.673,0,29.242,12.056,29.242,28.729C768.257,428.216,755.687,439.503,739.014,439.503L739.014,439.503z M739.014,396.922
	c-6.669,0-10.774,5.387-10.774,13.852s3.591,13.852,10.774,13.852c6.669,0,10.26-5.387,10.26-13.852
	S745.683,396.922,739.014,396.922L739.014,396.922z"/>
<path fill="#DA2128" d="M831.102,437.194c-1.283,1.283-3.591,1.283-7.695,1.283c-4.104,0-6.669-0.513-7.695-1.283
	c-1.283-0.513-1.283-1.796-1.283-3.591v-28.729c0-5.387-2.309-7.182-6.669-7.182c-5.387,0-9.491,4.874-9.491,9.491v26.421
	c0,1.796-0.513,3.078-1.796,4.104c-1.283,1.283-3.591,1.283-7.695,1.283s-6.669-0.513-7.695-1.283
	c-1.283-0.513-1.283-1.796-1.283-3.591v-42.325c0-2.309,0-4.104,1.283-5.387c1.283-1.283,3.591-1.796,5.9-2.309
	c1.796-0.513,4.874-0.513,6.669-0.513c1.283,0,2.309,0,3.078,0.513c0.513,0.513,0.513,1.283,1.283,1.796c0,0.513,0,0.513,0,1.283
	c0,0.513,0,1.283,0,1.796v0.77c2.309-3.591,7.695-7.182,16.16-7.182c11.287,0,19.238,6.669,19.238,19.751v31.808
	C832.385,435.399,832.385,436.681,831.102,437.194L831.102,437.194z"/>
<path fill="#DA2128" d="M81.315,317.146h60.794c5.9,0,10.261,2.052,12.313,10.26c2.052,9.748,1.283,16.16-9.747,16.93l-19.495,1.283
	c14.365,89.267,96.449,118.509,141.852,22.06c7.695-16.16,9.747-18.725,18.212-16.93c11.03,2.565,12.313,8.465,7.182,24.625
	c-38.477,118.509-169.042,130.309-194.95-27.703l-15.647,1.283c-13.082,0.77-13.082-9.748-13.082-15.647
	C69.002,321.251,73.363,317.146,81.315,317.146L81.315,317.146z"/>
<path fill="#DA2128" d="M303.198,259.687c12.313,0,22.573,10.261,22.573,22.573s-10.261,22.573-22.573,22.573
	c-12.313,0-22.573-10.261-22.573-22.573C280.369,269.948,290.886,259.687,303.198,259.687L303.198,259.687z"/>
<g>
	<path fill="#FFFFFF" d="M1037.852,524.665c-0.256,3.848,3.078,5.9,6.926,6.156c5.643,0.513,9.491-3.591,9.747-8.721
		c0.257-3.335-1.283-6.669-1.026-8.208c0.256-2.052,7.182-2.052,11.8-2.052c0.77,0,1.283,0.513,1.283,1.026
		c-0.256,1.796-3.078,6.156-3.335,9.747c-0.257,2.565,1.283,4.361,3.848,4.617c4.617,0.257,9.491-4.874,12.569-7.182
		c0.513-0.513,0.513-0.513,0.77-0.257c1.283,0,0.77,6.926,3.848,7.182c1.796,0.257,2.565-1.026,2.822-2.052
		c0.256-2.565-2.052-0.513-1.796-4.104c0-1.283,0.256-3.335,0.256-4.617c0-0.77,0.77-3.078-1.026-3.078
		c-2.052-0.257-5.13,3.848-7.439,5.9c-3.848,3.078-6.926,5.13-9.491,4.874c-0.769,0-1.796-0.513-1.539-2.309
		c0.257-3.078,4.361-6.669,4.617-9.234c0.257-2.052-1.539-3.591-2.822-3.591h-0.769c-7.439,1.026-17.443,0.257-17.699,4.104
		c-0.256,2.052,2.052,5.9,1.796,8.465c-0.257,3.335-3.078,6.156-6.413,5.9c-1.796-0.257-4.361-0.77-4.104-3.335
		c0-1.283,0.513-2.565,1.796-2.309c0.77,0,1.796,0.513,2.565,0.513c0.769,0,1.796-0.77,1.796-2.052
		c0.257-1.796-2.052-1.796-2.822-2.052C1040.93,518.253,1038.108,521.074,1037.852,524.665L1037.852,524.665z M1007.327,567.503
		c0,1.283,0.77,2.309,2.309,2.309c5.13,0.513,14.621-19.752,23.856-43.094c1.026-2.052,3.335-4.617,3.591-7.182
		c0-0.77-0.77-1.796-2.052-1.796c-1.796-0.257-2.309,3.335-3.335,4.874c-2.565,4.104-7.695,8.465-11.8,8.208
		c-1.796-0.257-2.052-1.796-1.796-3.078c0.257-2.565,1.283-5.13,2.822-7.182c1.026-1.283,2.822-2.052,2.822-4.104
		c0-1.283-0.769-1.796-1.539-1.796c-3.078-0.257-7.182,7.695-7.695,13.595c-0.257,3.078,1.283,5.387,4.361,5.643
		c2.565,0.257,6.156-1.539,8.465-3.335c0.513-0.513,0.769-0.257,0.769-0.257s0.513,0,0.513,0.513c0,0.513,0,0.77-0.513,1.796
		c-5.13,14.365-10.517,23.343-15.391,30.269C1010.918,565.194,1007.327,564.938,1007.327,567.503L1007.327,567.503z
		 M1110.958,510.557c0-1.283-0.77-1.796-1.539-1.796c-1.283,0-7.439,2.052-11.03,1.796c-1.796-0.257-2.052-1.539-3.335-1.539
		c-1.796-0.257-2.565,1.026-2.822,3.335c-0.513,5.13-2.565,11.543-2.822,12.313c-0.257,1.796,1.026,2.309,1.539,2.309
		c2.052,0.257,2.822-4.617,4.361-11.287c0.257-1.796,0.513-1.796,1.796-2.052C1101.98,513.635,1110.701,513.892,1110.958,510.557
		L1110.958,510.557z M959.102,525.178c0.257-3.335,3.848-6.156,5.643-6.156c0.513,0,0.77,0,0.77,1.026
		c-0.257,2.565-4.361,5.643-5.643,5.643C959.359,526.204,959.102,525.691,959.102,525.178L959.102,525.178z M1222.798,502.349
		c-0.513,0-0.256-0.77-0.256-2.052c0.256-2.565,2.052-4.617,3.335-4.617c0.77,0,0.77,0.513,0.77,1.283
		C1226.389,499.271,1223.567,502.605,1222.798,502.349L1222.798,502.349z M1209.202,487.471c0.513,0,0.513,0,0.256,0.77
		c-0.256,2.565-5.9,8.721-6.669,8.465c0,0-0.513,0-0.513-0.513C1202.79,493.114,1207.15,487.214,1209.202,487.471L1209.202,487.471z
		 M821.355,558.782c2.565,0.257,2.822-2.052,3.335-3.591c0.513-1.283,1.026-1.539,2.822-2.052
		c21.291-6.156,31.295-13.595,31.808-20.264c0.77-10.261-18.212-16.16-33.347-17.443c-22.83-1.796-42.581,1.796-54.894,5.643
		c-2.309,0.77-3.591,1.539-3.591,2.822c0,0.77,0.257,1.796,1.539,1.796c1.283,0,3.591-0.513,6.156-1.539
		c9.234-3.078,31.295-6.926,49.764-5.643c3.078,0.257,6.413,1.026,7.695,1.539c1.796,0.513,1.539,1.026,1.026,2.565
		c-2.309,6.669-6.413,16.673-10.774,25.651c-2.052,3.848-2.052,3.848-4.617,4.361c-7.952,2.052-21.034,3.848-25.908,3.591
		c-0.77,0-2.565-0.257-2.309-1.796c0.257-1.796,1.796-2.309,3.335-2.822c0.769-0.257,1.796-0.77,1.796-1.539
		c0-0.77-0.257-1.796-1.539-1.796c-2.565-0.257-6.669,2.052-6.926,5.9c-0.257,3.078,1.283,5.387,5.13,5.643
		c5.643,0.513,19.752-1.796,27.447-3.848c1.283-0.257,1.283,0,0.256,1.796C819.816,558.269,820.585,558.782,821.355,558.782
		L821.355,558.782z M828.281,547.238c2.565-6.669,6.926-16.673,10.261-24.369c0.513-1.283,1.026-1.539,3.591-1.026
		c6.413,1.796,13.852,5.387,13.339,11.03c-0.513,5.9-12.569,12.056-25.395,15.647C827.255,549.291,827.255,549.291,828.281,547.238
		L828.281,547.238z M1210.741,483.367c-4.361-0.257-8.465,4.104-12.056,14.621c0,1.283-0.513,1.796-2.309,2.309
		c-0.77,0.257-3.078,0.513-3.848,0.513s-1.796,0.77-1.796,1.539c0,0.77,0.257,1.796,1.539,1.796c1.283,0,2.565-0.77,4.361-1.026
		c1.796-0.77,2.309-0.77,2.052,0.513c0.513,4.874,2.565,10.261,8.721,10.774c5.13,0.513,8.978-2.309,12.569-5.387
		c1.026-0.77,1.283-0.77,1.796,0.257c2.309,3.591,6.413,5.643,11.543,6.156c5.643,0.513,10.517-1.796,13.339-4.617
		c1.283-1.283,1.796-2.309,2.052-3.335c0-0.513-0.256-0.77-0.769-1.026c-0.77,0-1.283,1.283-3.335,2.822
		c-2.309,2.052-5.9,3.335-9.747,3.078c-4.361-0.257-7.952-2.822-10.004-5.643c-0.513-0.513-0.77-1.026,0.257-1.796
		c2.309-2.052,4.617-4.874,4.874-8.208c0.257-3.078-1.796-4.361-3.591-4.617c-3.078-0.257-6.669,2.052-7.182,7.695
		c-0.257,1.796,0.256,3.591,0.513,4.361c0,0.513,0,0.77-1.026,2.052c-2.309,2.309-6.156,5.13-10.004,4.874
		c-4.361-0.257-6.156-3.848-6.413-6.926c-0.257-2.052-0.257-2.052,2.565-4.617c4.617-3.848,7.952-7.695,8.208-12.313
		C1213.307,485.162,1212.537,483.367,1210.741,483.367L1210.741,483.367z M1173.804,517.996c1.283,0,3.078-0.513,4.104-2.309
		c1.796-2.309,3.848-4.874,4.874-6.413c1.282-1.283,1.796-1.539,2.052,0.257c-0.256,3.335-0.513,6.413,1.539,6.669
		c1.283,0,2.309-0.77,2.309-2.052c0-1.283-0.513-3.078-0.257-6.413c0-1.283,0.77-5.13-1.796-5.387c-1.282,0-2.309,0.77-3.078,1.796
		c-2.565,3.591-4.361,6.156-6.669,8.465c-1.282,1.283-1.796,1.026-1.796-0.257c0.256-2.052,1.026-6.926,1.026-8.978
		c0.256-3.078-1.796-4.361-2.565-4.617c-1.282,0-2.052,0.257-3.078,1.796c-2.309,2.822-6.156,7.182-8.465,9.234
		c-0.513,0.513-1.282,0.257-1.539-1.026c-0.256-1.283-0.77-6.156-1.026-7.952c-0.257-1.796-0.77-2.309-2.052-2.309
		c-0.769,0-1.796,0.257-2.309,1.026c-2.309,3.335-5.13,9.234-6.156,11.543c-0.513,0.77-0.513,0.77-0.513,0
		c0.256-2.052,1.026-7.182,1.026-8.978c0-1.283-0.256-1.796-1.026-1.796c-1.796-0.257-2.822,4.617-3.848,14.878
		c-0.257,4.361,0.513,5.13,0.769,5.387c1.283,0,2.309-0.77,2.309-2.052c2.565-5.9,5.387-12.569,6.669-14.621
		c0.513-0.513,0.77-0.257,0.77,0c0.769,2.309,0.769,5.387,1.539,9.234c0.256,1.796,1.026,2.309,1.539,2.309
		c0.77,0,1.796-0.257,2.822-1.539c2.309-3.335,4.874-6.413,8.208-9.234c1.026-0.77,1.796-0.77,1.796,0.513
		c-0.257,2.565-0.513,6.413-0.77,9.491C1171.495,516.97,1172.265,517.996,1173.804,517.996L1173.804,517.996z M904.721,535.182
		c-0.257,3.335,2.052,5.9,5.13,6.156c5.13,0.513,9.747-3.591,11.543-8.208c0.513-2.052,1.283-3.848,1.283-5.643
		c0-0.77,0.257-1.796,1.026-1.539c1.796-0.77,4.361-1.283,6.156-1.539c0.513,0,1.283,0,1.283,1.283
		c0.257,1.796-0.257,7.695-0.257,10.004c-0.257,2.052,0.257,2.565,1.539,2.822c3.078,0.257,10.26-5.13,17.186-13.339
		c1.796-2.052,2.565-3.591,2.565-4.104c0-0.77-0.257-1.283-1.283-1.283c-1.283,0-1.796,2.052-4.361,4.874
		c-2.822,3.335-7.952,8.465-11.03,9.491c-0.513,0-0.77,0-0.77-1.026c0.257-1.796,0.513-5.643,1.026-8.208
		c0.257-1.796,0.513-2.052,0.769-3.848c0-0.513-0.257-2.052-1.026-1.796c-1.283,0-2.309,0.77-3.591,1.539s-6.669,2.565-9.234,2.309
		c-0.769,0-1.539-1.026-2.565-1.026c-0.77,0-2.052,0.257-2.309,1.026c-0.257,3.078,2.822,3.335,2.565,6.156
		c-0.257,3.848-3.848,9.234-8.465,8.978c-2.052-0.257-2.822-1.539-2.822-3.335c0.257-2.052,0.77-5.13,2.565-6.156
		c1.283-0.77,3.848,0,4.104-2.822c0-0.77-0.77-2.309-2.052-2.309C909.595,523.126,904.978,529.539,904.721,535.182L904.721,535.182z
		 M948.842,530.565c0,1.283,0.769,1.796,1.539,1.796c1.283,0,2.565-0.257,4.104-1.026c0.77-0.257,1.283,0,1.539,1.026
		c1.539,3.591,4.104,6.926,8.465,7.182c1.796,0.257,5.13-0.513,5.387-3.078c0-0.77-0.257-1.796-1.026-1.796
		c-1.283,0-2.309,2.052-4.104,1.796c-3.078-0.257-5.387-3.078-5.13-6.156c0-0.513,0-1.283,1.026-1.539
		c4.617-2.309,7.695-5.387,8.208-9.234c0.257-2.052-1.026-3.591-3.078-3.848c-6.413-0.513-9.234,6.156-10.261,10.517
		c0,0.77-1.539,1.539-2.309,2.052C951.92,529.026,948.842,528.77,948.842,530.565L948.842,530.565z M1123.014,520.048
		c-0.257,2.565,2.309,4.104,5.643,4.361c4.617,0.257,11.543-2.052,11.8-6.926c0.513-5.643-8.465-7.952-8.208-11.8
		c0.257-1.796,2.309-2.822,4.874-2.565c2.052,0.257,2.052,1.796,3.335,2.052c0.513,0,1.283-0.257,1.539-1.539
		c0.256-1.796-1.796-3.591-4.361-3.848c-5.13-0.513-8.465,2.309-8.721,5.9c-0.513,5.643,7.952,7.952,7.695,11.8
		c-0.256,2.565-4.104,4.104-6.669,3.848c-1.796-0.257-3.078-0.257-2.822-1.539c0-0.513,0.513-0.77,0.513-1.796
		c0-0.77-0.77-1.283-1.283-1.283C1124.553,516.713,1123.271,518.253,1123.014,520.048L1123.014,520.048z M999.375,515.431
		c-2.052-0.257-10.26,3.591-16.16,3.078c-1.283,0-1.539-1.026-3.078-1.026c-0.77,0-1.796,0.257-1.796,2.052
		c-0.769,4.617-3.591,13.595-4.361,17.699c0,1.283-0.257,1.796,1.026,1.796c1.283,0,1.796-0.77,1.796-2.052
		c1.283-3.848,2.822-9.747,4.104-13.082c0.513-2.052,1.539-2.565,2.309-2.309c3.591-1.026,11.287-1.283,15.391-2.309
		c1.283-0.257,2.309-1.026,2.309-2.052C1001.427,515.687,1000.144,515.431,999.375,515.431L999.375,515.431z M870.862,541.082
		c-0.257,2.052,2.052,2.822,4.104,2.822c3.848,0.257,6.669-2.565,6.926-5.387c0.257-3.848-3.335-8.465-2.822-12.313
		c0-0.77,0.513-1.283,1.283-1.283c1.283,0,1.283,1.026,2.565,1.026c0.513,0,1.796-0.257,1.796-2.052
		c0-1.283-1.026-2.565-3.335-2.822c-3.078-0.257-5.643,1.796-5.9,4.617c-0.257,3.848,3.078,8.978,2.822,12.826
		c-0.257,1.796-1.539,2.052-2.309,2.052c-1.796-0.257-2.052-1.796-3.335-2.052C871.375,539.543,870.862,540.313,870.862,541.082
		L870.862,541.082z M900.361,529.539c1.283,0,2.309-2.052,2.309-3.335c0.257-1.796-0.513-3.848-2.822-4.104
		c-4.617-0.257-11.287,6.926-11.8,12.056c-0.257,4.361,3.078,6.413,8.208,6.669c2.052,0.257,3.591-0.257,3.591-1.026
		c0-0.513-0.257-0.77-1.283-1.026c-3.848-0.257-6.926-1.026-6.413-4.874c0.257-3.848,5.13-8.721,7.182-8.465
		c0.77,0,0,1.283-0.257,2.565C899.078,529.026,899.848,529.539,900.361,529.539L900.361,529.539z M867.271,530.822
		c-0.77,0-1.796,0.257-2.309,2.052c-1.026,2.565-2.822,7.952-3.078,10.26c0,1.283,0.257,2.052,1.539,2.309
		c0.513,0,1.283-0.77,1.796-2.052c0.769-3.335,1.796-7.182,2.565-10.517C868.553,531.848,868.297,531.078,867.271,530.822
		L867.271,530.822z M1189.194,489.01c-1.282,0-3.591,1.026-3.848,4.104c0,0.77,0.77,2.309,1.539,2.309
		c1.796,0.257,3.591-1.796,3.848-3.591C1190.99,490.036,1189.964,489.01,1189.194,489.01L1189.194,489.01z M868.297,519.792
		c-0.257,1.796,1.539,2.309,2.822,2.309c1.283,0,1.796-0.77,1.796-1.539c0-1.283-0.77-2.565-2.309-2.822
		C869.579,517.739,868.297,518.509,868.297,519.792z"/>
</g>
<path fill="#FFFFFF" d="M925.755,436.938c-1.796,1.026-8.721,4.104-20.008,4.104c-18.982,0-33.86-14.878-33.86-40.786
	c0-26.164,15.391-41.042,34.373-41.042c12.056,0,17.186,3.078,18.469,3.591c3.078,1.283,3.591,2.309,3.591,2.822
	c0,0.77-0.513,2.565-1.283,4.104c-1.539,2.822-2.309,3.335-3.078,3.335c-0.513,0-1.026-0.257-1.796-0.513
	c-0.77-0.257-5.13-3.848-15.647-3.848c-14.108,0-22.83,11.287-22.83,31.295c0,20.008,10.004,31.038,23.086,31.038
	c9.491,0,14.365-3.335,15.647-3.848c1.283-0.513,1.539-0.77,2.309-0.77s1.796,0.77,3.078,2.822c1.283,2.052,1.796,3.335,1.796,4.361
	C929.347,434.629,928.834,435.142,925.755,436.938"/>
<path fill="#FFFFFF" d="M972.184,395.383c-0.77,1.539-1.283,3.078-2.565,3.078c-1.026,0-1.796-0.77-3.335-1.283
	c-1.283-0.513-2.309-0.77-4.104-0.77c-5.643,0-11.03,7.439-11.03,15.904v24.112c0,1.283,0,1.796-0.769,2.309
	c-0.513,0.513-1.796,1.026-4.361,1.026c-2.309,0-3.591-0.257-4.104-0.77s-0.769-1.026-0.769-2.309v-44.377
	c0-1.539,0.257-2.309,0.769-2.822c0.513-0.513,1.539-1.026,4.104-1.283c1.283-0.257,2.052-0.257,2.822-0.257
	c0.77,0,1.283,0,1.796,0.257c0.513,0.513,0.769,1.026,0.769,2.309v5.643c2.052-4.104,7.439-8.208,12.569-8.208
	c2.309,0,4.361,0.513,6.156,1.283c2.052,0.77,3.591,1.796,3.591,3.078C973.21,392.818,972.697,394.357,972.184,395.383"/>
<path fill="#FFFFFF" d="M1026.822,439.246c-0.513,0.513-1.283,0.77-3.848,0.77c-2.565,0-3.591-0.257-4.104-0.77
	c-0.513-0.513-0.77-1.026-0.77-2.565v-4.617c-3.078,5.13-9.747,8.465-16.417,8.465c-12.056,0-18.469-8.208-18.469-19.495v-30.012
	c0-1.283,0-1.796,0.769-2.309c0.513-0.513,1.796-1.026,4.361-1.026c2.309,0,3.591,0.257,4.104,0.77s0.77,1.026,0.77,2.309v29.242
	c0,7.952,4.361,11.8,11.03,11.8c6.926,0,13.339-6.413,13.339-13.595v-27.19c0-1.283,0-1.796,0.77-2.309
	c0.513-0.513,1.796-1.026,4.361-1.026c2.309,0,3.591,0.257,4.104,0.77s0.769,1.026,0.769,2.309v45.916
	C1027.591,437.964,1027.335,438.477,1026.822,439.246"/>
<path fill="#FFFFFF" d="M1049.908,375.631c-3.335,0-6.156-2.822-6.156-6.156s2.822-6.413,6.156-6.413
	c3.335,0,6.156,2.822,6.156,6.413C1056.064,372.81,1053.242,375.631,1049.908,375.631 M1054.269,438.99
	c-0.513,0.513-1.796,1.026-4.361,1.026c-2.309,0-3.591-0.257-4.104-0.77s-0.77-1.026-0.77-2.309v-44.633
	c0-1.539,0.256-2.309,0.77-2.822s1.539-1.026,4.104-1.283c1.282-0.257,2.052-0.257,2.822-0.257c0.769,0,1.282,0,1.796,0.257
	c0.513,0.513,0.77,1.026,0.77,2.309v46.429C1055.038,437.964,1054.782,438.477,1054.269,438.99"/>
<path fill="#FFFFFF" d="M1088.128,440.786c-9.491,0-14.621-2.565-17.443-4.104c-2.309-1.283-3.078-2.052-3.078-2.822
	c0-0.77,0.513-2.309,1.283-3.848c1.283-1.796,2.052-2.052,2.822-2.052c1.283,0,3.078,1.283,4.361,1.539
	c2.052,1.026,6.669,2.565,11.8,2.565c5.643,0,10.26-1.796,10.26-6.669c0-4.104-2.822-6.156-10.004-7.439l-4.104-0.77
	c-8.208-1.283-15.904-5.387-15.904-14.621c0-9.747,8.208-15.391,19.495-15.391c4.874,0,9.234,0.77,13.852,2.565
	c2.822,1.026,3.591,1.796,3.591,2.822c0,0.77-0.256,1.796-0.769,3.335c-0.513,1.283-1.026,2.822-2.822,2.822
	c-1.283,0-2.822-1.026-4.617-1.283c-2.822-0.77-6.413-1.539-10.004-1.539c-5.643,0-8.978,2.309-8.978,6.413
	c0,3.591,3.591,5.643,9.491,6.669l5.13,1.026c9.234,1.539,15.647,4.874,15.647,15.134
	C1108.393,434.886,1099.671,440.786,1088.128,440.786"/>
<path fill="#FFFFFF" d="M1162.774,416.16c-0.513,0.513-1.283,0.77-4.104,0.77h-30.269c1.026,8.465,6.413,14.365,14.365,14.365
	c4.874,0,6.926-1.026,8.978-1.539c1.796-0.77,3.335-1.796,4.874-1.796s2.309,1.283,3.078,2.822c0.513,1.283,1.282,2.309,1.282,3.078
	c0,1.026-0.769,2.052-3.335,3.335c-3.848,1.796-8.208,3.591-15.391,3.591c-14.621,0-24.369-10.774-24.369-26.934
	c0-16.16,9.234-26.677,23.343-26.677c14.365,0,22.317,10.004,22.317,26.421C1164.056,414.878,1163.543,415.647,1162.774,416.16
	 M1141.483,395.126c-7.182,0-11.286,5.13-12.569,13.595h24.625C1153.026,400.513,1148.665,395.126,1141.483,395.126"/>
<path fill="#FFFFFF" d="M1194.068,440.786c-9.491,0-14.621-2.565-17.443-4.104c-2.309-1.283-3.078-2.052-3.078-2.822
	c0-0.77,0.513-2.309,1.282-3.848c1.283-1.796,2.052-2.052,2.822-2.052c1.282,0,3.078,1.283,4.361,1.539
	c2.052,1.026,6.669,2.565,11.8,2.565c5.643,0,10.26-1.796,10.26-6.669c0-4.104-2.822-6.156-10.004-7.439l-4.104-0.77
	c-8.208-1.283-15.904-5.387-15.904-14.621c0-9.747,8.208-15.391,19.495-15.391c4.874,0,9.234,0.77,13.852,2.565
	c2.822,1.026,3.591,1.796,3.591,2.822c0,0.77-0.257,1.796-0.77,3.335c-0.513,1.283-1.026,2.822-2.822,2.822
	c-1.283,0-2.822-1.026-4.617-1.283c-2.822-0.77-6.413-1.539-10.004-1.539c-5.643,0-8.978,2.309-8.978,6.413
	c0,3.591,3.591,5.643,9.491,6.669l5.13,1.026c9.234,1.539,15.647,4.874,15.647,15.134
	C1214.333,434.886,1205.611,440.786,1194.068,440.786"/>
</svg>
