<svg id="Layer_1" data-name="Layer 1" xmlns="http://www.w3.org/2000/svg" viewBox="0 0 1179.96 310.13"><defs><style>.cls-1{fill:#da2128;}.cls-2{fill:#092a5e;}</style></defs><title>logo</title><path class="cls-1" d="M398.88,432.83c0,1.8-.51,3.08-1.28,3.59-1.28,1.28-4.1,1.28-7.7,1.28-4.1,0-7.18-.51-8.46-1.28-1.28-.51-1.28-1.8-1.28-3.59V372.55h-1.28l-10.26.51c-7.18.51-7.7-5.39-7.7-9.49,0-7.7,3.08-10.26,7.18-10.26h42.58c3.59,0,5.9,1.28,7.18,6.67,1.28,6.67.51,9.49-5.39,10.26l-12.57.51h-.51v62.33l-.51-.26Z" transform="translate(-68.75 -259.69)"/><path class="cls-1" d="M475.06,437.19c-1.28,1.28-3.59,1.28-7.7,1.28s-6.67-.51-7.7-1.28c-1.28-.51-1.28-1.8-1.28-3.59V404.87c0-5.39-2.31-7.18-6.67-7.18a9.81,9.81,0,0,0-9.49,9.49V433.6a4.78,4.78,0,0,1-1.8,4.1c-1.28,1.28-3.59,1.28-7.7,1.28s-6.67-.51-7.7-1.28c-1.28-.51-1.28-1.8-1.28-3.59V362.29c0-2.31,0-4.1,1.28-5.39s4.1-1.8,5.9-2.31a29.25,29.25,0,0,1,6.67-.51,5.55,5.55,0,0,1,3.08.51c.51.51.51,1.28,1.28,1.8v33.09c3.08-3.59,7.7-6.67,15.65-6.67,11.29,0,19.24,6.67,19.24,19.75v31.81c-.77,1-.77,2.31-1.8,2.82Z" transform="translate(-68.75 -259.69)"/><path class="cls-1" d="M516.87,439.5c-17.44,0-29.24-11.29-29.24-28.73S499.69,382,516.87,382c16.67,0,29.24,12.06,29.24,28.73-.51,17.44-12.57,28.73-29.24,28.73Zm0-42.58c-6.67,0-10.77,5.39-10.77,13.85s3.59,13.85,10.77,13.85c6.67,0,10.26-5.39,10.26-13.85s-3.59-13.85-10.26-13.85Z" transform="translate(-68.75 -259.69)"/><path class="cls-1" d="M639,437.19c-1.28,1.28-3.59,1.28-7.7,1.28s-6.67-.51-7.7-1.28c-1.28-.51-1.28-1.8-1.28-3.59V404.36c0-4.87-1.8-6.67-5.9-6.67s-7.7,3.59-7.7,8.46V433.6a4.78,4.78,0,0,1-1.8,4.1c-1.28,1.28-3.59,1.28-7.7,1.28s-6.67-.51-7.7-1.28c-1.28-.51-1.28-1.8-1.28-3.59V404.87c0-4.87-1.8-6.67-5.9-6.67a8.71,8.71,0,0,0-8.46,8.46v27.45a4.78,4.78,0,0,1-1.8,4.1c-1.28,1.28-3.59,1.28-7.7,1.28s-6.67-.51-7.7-1.28c-1.28-.51-1.28-1.8-1.28-3.59V392.3c0-2.31,0-4.1,1.28-5.39s3.59-1.8,5.9-2.31a29.25,29.25,0,0,1,6.67-.51,5.55,5.55,0,0,1,3.08.51c.51.51.51,1.28,1.28,1.8v4.36c2.31-3.59,8.46-7.18,15.65-7.18,6.67,0,12.06,2.31,14.88,7.7a22.39,22.39,0,0,1,16.67-7.7c9.49,0,18,5.39,18,18v33.6c-.51.26-.51,1.54-1.8,2.05Z" transform="translate(-68.75 -259.69)"/><path class="cls-1" d="M676.68,439.5c-10.77,0-19.75-3.08-22.83-4.87s-3.08-3.08-3.08-4.87a9,9,0,0,1,1.8-5.39c1.28-1.28,2.31-3.08,4.1-3.08,1.28,0,2.31.51,4.1,1.28,1.28.51,3.08,1.28,4.1,1.8,3.08,1.28,7.7,1.8,12.06,1.8,5.39,0,7.18-1.8,7.18-3.59,0-2.31-1.8-3.08-7.7-4.1l-5.9-1.28c-9-1.8-18-5.9-18-16.67,0-12.06,10.77-18,24.63-18a65.47,65.47,0,0,1,18.47,3.08c3.08,1.28,3.59,2.31,3.59,4.1a3.81,3.81,0,0,1-.51,2.31c0,.51-.51,1.8-.51,2.31-.51,1.8-2.31,4.1-4.1,4.1a8.73,8.73,0,0,1-3.59-.51c-1.28-.51-2.31-.51-4.1-1.28a40.24,40.24,0,0,0-9.49-1.28c-4.1,0-5.9,1.28-5.9,3.59,0,1.8,3.08,3.08,7.18,3.59l5.9,1.28c9.49,1.8,18.47,5.39,18.47,17.44,0,12.31-10.77,18.21-25.91,18.21Z" transform="translate(-68.75 -259.69)"/><path class="cls-1" d="M739,439.5c-17.44,0-29.24-11.29-29.24-28.73S721.83,382,739,382c16.67,0,29.24,12.06,29.24,28.73,0,17.44-12.57,28.73-29.24,28.73Zm0-42.58c-6.67,0-10.77,5.39-10.77,13.85s3.59,13.85,10.77,13.85c6.67,0,10.26-5.39,10.26-13.85s-3.59-13.85-10.26-13.85Z" transform="translate(-68.75 -259.69)"/><path class="cls-1" d="M831.1,437.19c-1.28,1.28-3.59,1.28-7.7,1.28s-6.67-.51-7.7-1.28c-1.28-.51-1.28-1.8-1.28-3.59V404.87c0-5.39-2.31-7.18-6.67-7.18a9.81,9.81,0,0,0-9.49,9.49V433.6a4.78,4.78,0,0,1-1.8,4.1c-1.28,1.28-3.59,1.28-7.7,1.28s-6.67-.51-7.7-1.28c-1.28-.51-1.28-1.8-1.28-3.59V391.79c0-2.31,0-4.1,1.28-5.39s3.59-1.8,5.9-2.31a29.25,29.25,0,0,1,6.67-.51,5.55,5.55,0,0,1,3.08.51c.51.51.51,1.28,1.28,1.8v3.85c2.31-3.59,7.7-7.18,16.16-7.18,11.29,0,19.24,6.67,19.24,19.75v31.81c-1,1.28-1,2.57-2.31,3.08Z" transform="translate(-68.75 -259.69)"/><path class="cls-1" d="M81.31,317.15h60.79c5.9,0,10.26,2.05,12.31,10.26,2.05,9.75,1.28,16.16-9.75,16.93l-19.49,1.28c14.36,89.27,96.45,118.51,141.85,22.06,7.7-16.16,9.75-18.73,18.21-16.93,11,2.57,12.31,8.46,7.18,24.63-38.48,118.51-169,130.31-194.95-27.7L81.83,349c-13.08.77-13.08-9.75-13.08-15.65.26-12.06,4.62-16.16,12.57-16.16Z" transform="translate(-68.75 -259.69)"/><path class="cls-1" d="M303.2,259.69a22.57,22.57,0,1,1-22.57,22.57c-.26-12.31,10.26-22.57,22.57-22.57Z" transform="translate(-68.75 -259.69)"/><path class="cls-2" d="M1037.85,524.67c-.26,3.85,3.08,5.9,6.93,6.16,5.64.51,9.49-3.59,9.75-8.72.26-3.33-1.28-6.67-1-8.21.26-2.05,7.18-2.05,11.8-2.05a1.17,1.17,0,0,1,1.28,1c-.26,1.8-3.08,6.16-3.33,9.75a4,4,0,0,0,3.85,4.62c4.62.26,9.49-4.87,12.57-7.18.51-.51.51-.51.77-.26,1.28,0,.77,6.93,3.85,7.18a2.44,2.44,0,0,0,2.82-2.05c.26-2.57-2.05-.51-1.8-4.1,0-1.28.26-3.33.26-4.62,0-.77.77-3.08-1-3.08-2.05-.26-5.13,3.85-7.44,5.9-3.85,3.08-6.93,5.13-9.49,4.87-.77,0-1.8-.51-1.54-2.31.26-3.08,4.36-6.67,4.62-9.23a3.25,3.25,0,0,0-2.82-3.59h-.77c-7.44,1-17.44.26-17.7,4.1-.26,2.05,2.05,5.9,1.8,8.46a6.24,6.24,0,0,1-6.41,5.9c-1.8-.26-4.36-.77-4.1-3.33,0-1.28.51-2.57,1.8-2.31.77,0,1.8.51,2.57.51a2,2,0,0,0,1.8-2.05c.26-1.8-2.05-1.8-2.82-2.05a7.14,7.14,0,0,0-6.16,6.67Zm-30.53,42.84a2.15,2.15,0,0,0,2.31,2.31c5.13.51,14.62-19.75,23.86-43.09,1-2.05,3.33-4.62,3.59-7.18a2,2,0,0,0-2.05-1.8c-1.8-.26-2.31,3.33-3.33,4.87-2.57,4.1-7.7,8.46-11.8,8.21-1.8-.26-2.05-1.8-1.8-3.08a14.63,14.63,0,0,1,2.82-7.18c1-1.28,2.82-2.05,2.82-4.1,0-1.28-.77-1.8-1.54-1.8-3.08-.26-7.18,7.7-7.7,13.6-.26,3.08,1.28,5.39,4.36,5.64,2.57.26,6.16-1.54,8.46-3.33.51-.51.77-.26.77-.26a.5.5,0,0,1,.51.51,3.16,3.16,0,0,1-.51,1.8,120.19,120.19,0,0,1-15.39,30.27c-1.8,2.31-5.39,2.05-5.39,4.62ZM1111,510.56c0-1.28-.77-1.8-1.54-1.8-1.28,0-7.44,2.05-11,1.8-1.8-.26-2.05-1.54-3.33-1.54-1.8-.26-2.57,1-2.82,3.33a68.81,68.81,0,0,1-2.82,12.31,1.79,1.79,0,0,0,1.54,2.31c2.05.26,2.82-4.62,4.36-11.29.26-1.8.51-1.8,1.8-2.05,4.87,0,13.6.26,13.85-3.08ZM959.1,525.18c.26-3.33,3.85-6.16,5.64-6.16.51,0,.77,0,.77,1-.26,2.57-4.36,5.64-5.64,5.64-.51.51-.77,0-.77-.51Zm263.7-22.83c-.51,0-.26-.77-.26-2.05.26-2.57,2.05-4.62,3.33-4.62.77,0,.77.51.77,1.28-.26,2.31-3.08,5.64-3.85,5.39Zm-13.6-14.88c.51,0,.51,0,.26.77-.26,2.57-5.9,8.72-6.67,8.46a.5.5,0,0,1-.51-.51c.51-3.08,4.87-9,6.93-8.72ZM821.35,558.78c2.57.26,2.82-2.05,3.33-3.59.51-1.28,1-1.54,2.82-2.05,21.29-6.16,31.29-13.6,31.81-20.26.77-10.26-18.21-16.16-33.35-17.44-22.83-1.8-42.58,1.8-54.89,5.64-2.31.77-3.59,1.54-3.59,2.82,0,.77.26,1.8,1.54,1.8a19.14,19.14,0,0,0,6.16-1.54c9.23-3.08,31.29-6.93,49.76-5.64a33.22,33.22,0,0,1,7.7,1.54c1.8.51,1.54,1,1,2.57a257.1,257.1,0,0,1-10.77,25.65c-2.05,3.85-2.05,3.85-4.62,4.36-8,2.05-21,3.85-25.91,3.59-.77,0-2.57-.26-2.31-1.8.26-1.8,1.8-2.31,3.33-2.82.77-.26,1.8-.77,1.8-1.54s-.26-1.8-1.54-1.8c-2.57-.26-6.67,2.05-6.93,5.9-.26,3.08,1.28,5.39,5.13,5.64,5.64.51,19.75-1.8,27.45-3.85,1.28-.26,1.28,0,.26,1.8a2.16,2.16,0,0,0,1.8,1Zm6.93-11.54c2.57-6.67,6.93-16.67,10.26-24.37.51-1.28,1-1.54,3.59-1,6.41,1.8,13.85,5.39,13.34,11-.51,5.9-12.57,12.06-25.39,15.65-2.82.77-2.82.77-1.8-1.28Zm382.46-63.87c-4.36-.26-8.46,4.1-12.06,14.62,0,1.28-.51,1.8-2.31,2.31a19.8,19.8,0,0,1-3.85.51c-.77,0-1.8.77-1.8,1.54s.26,1.8,1.54,1.8,2.57-.77,4.36-1c1.8-.77,2.31-.77,2.05.51.51,4.87,2.57,10.26,8.72,10.77,5.13.51,9-2.31,12.57-5.39,1-.77,1.28-.77,1.8.26,2.31,3.59,6.41,5.64,11.54,6.16a17,17,0,0,0,13.34-4.62,6.91,6.91,0,0,0,2.05-3.33c0-.51-.26-.77-.77-1-.77,0-1.28,1.28-3.33,2.82a13.63,13.63,0,0,1-19.75-2.57c-.51-.51-.77-1,.26-1.8,2.31-2.05,4.62-4.87,4.87-8.21a4,4,0,0,0-3.59-4.62c-3.08-.26-6.67,2.05-7.18,7.7a10.06,10.06,0,0,0,.51,4.36c0,.51,0,.77-1,2.05-2.31,2.31-6.16,5.13-10,4.87-4.36-.26-6.16-3.85-6.41-6.93-.26-2.05-.26-2.05,2.57-4.62,4.62-3.85,8-7.7,8.21-12.31.26-2.05-.51-3.85-2.31-3.85ZM1173.8,518a4.65,4.65,0,0,0,4.1-2.31c1.8-2.31,3.85-4.87,4.87-6.41,1.28-1.28,1.8-1.54,2.05.26-.26,3.33-.51,6.41,1.54,6.67a2.1,2.1,0,0,0,2.31-2.05,38.34,38.34,0,0,1-.26-6.41c0-1.28.77-5.13-1.8-5.39a3.91,3.91,0,0,0-3.08,1.8,65,65,0,0,1-6.67,8.46c-1.28,1.28-1.8,1-1.8-.26.26-2.05,1-6.93,1-9a4.27,4.27,0,0,0-2.57-4.62c-1.28,0-2.05.26-3.08,1.8a100.58,100.58,0,0,1-8.46,9.23c-.51.51-1.28.26-1.54-1s-.77-6.16-1-8-.77-2.31-2.05-2.31a2.79,2.79,0,0,0-2.31,1,87.39,87.39,0,0,0-6.16,11.54c-.51.77-.51.77-.51,0,.26-2.05,1-7.18,1-9,0-1.28-.26-1.8-1-1.8-1.8-.26-2.82,4.62-3.85,14.88-.26,4.36.51,5.13.77,5.39a2.1,2.1,0,0,0,2.31-2.05c2.57-5.9,5.39-12.57,6.67-14.62.51-.51.77-.26.77,0,.77,2.31.77,5.39,1.54,9.23.26,1.8,1,2.31,1.54,2.31a3.5,3.5,0,0,0,2.82-1.54,46.13,46.13,0,0,1,8.21-9.23c1-.77,1.8-.77,1.8.51-.26,2.57-.51,6.41-.77,9.49,1.28,2.31,2.05,3.33,3.59,3.33ZM904.72,535.18a5.57,5.57,0,0,0,5.13,6.16c5.13.51,9.75-3.59,11.54-8.21.51-2.05,1.28-3.85,1.28-5.64,0-.77.26-1.8,1-1.54a27.06,27.06,0,0,1,6.16-1.54c.51,0,1.28,0,1.28,1.28.26,1.8-.26,7.7-.26,10-.26,2.05.26,2.57,1.54,2.82,3.08.26,10.26-5.13,17.19-13.34,1.8-2.05,2.57-3.59,2.57-4.1,0-.77-.26-1.28-1.28-1.28-1.28,0-1.8,2.05-4.36,4.87-2.82,3.33-8,8.46-11,9.49-.51,0-.77,0-.77-1,.26-1.8.51-5.64,1-8.21.26-1.8.51-2.05.77-3.85,0-.51-.26-2.05-1-1.8-1.28,0-2.31.77-3.59,1.54s-6.67,2.57-9.23,2.31c-.77,0-1.54-1-2.57-1-.77,0-2.05.26-2.31,1-.26,3.08,2.82,3.33,2.57,6.16-.26,3.85-3.85,9.23-8.46,9a3,3,0,0,1-2.82-3.33c.26-2.05.77-5.13,2.57-6.16,1.28-.77,3.85,0,4.1-2.82,0-.77-.77-2.31-2.05-2.31-4.1-.51-8.72,5.9-9,11.54Zm44.12-4.62c0,1.28.77,1.8,1.54,1.8a8.8,8.8,0,0,0,4.1-1c.77-.26,1.28,0,1.54,1,1.54,3.59,4.1,6.93,8.46,7.18,1.8.26,5.13-.51,5.39-3.08,0-.77-.26-1.8-1-1.8-1.28,0-2.31,2.05-4.1,1.8a5.72,5.72,0,0,1-5.13-6.16,1.31,1.31,0,0,1,1-1.54c4.62-2.31,7.7-5.39,8.21-9.23a3.32,3.32,0,0,0-3.08-3.85c-6.41-.51-9.23,6.16-10.26,10.52,0,.77-1.54,1.54-2.31,2.05-1.28.77-4.36.51-4.36,2.31ZM1123,520c-.26,2.57,2.31,4.1,5.64,4.36,4.62.26,11.54-2.05,11.8-6.93.51-5.64-8.46-8-8.21-11.8.26-1.8,2.31-2.82,4.87-2.57,2.05.26,2.05,1.8,3.33,2.05.51,0,1.28-.26,1.54-1.54.26-1.8-1.8-3.59-4.36-3.85-5.13-.51-8.46,2.31-8.72,5.9-.51,5.64,8,8,7.7,11.8-.26,2.57-4.1,4.1-6.67,3.85-1.8-.26-3.08-.26-2.82-1.54,0-.51.51-.77.51-1.8a1.37,1.37,0,0,0-1.28-1.28A3.58,3.58,0,0,0,1123,520Zm-123.64-4.62c-2.05-.26-10.26,3.59-16.16,3.08-1.28,0-1.54-1-3.08-1-.77,0-1.8.26-1.8,2.05-.77,4.62-3.59,13.6-4.36,17.7,0,1.28-.26,1.8,1,1.8s1.8-.77,1.8-2.05c1.28-3.85,2.82-9.75,4.1-13.08.51-2.05,1.54-2.57,2.31-2.31,3.59-1,11.29-1.28,15.39-2.31,1.28-.26,2.31-1,2.31-2.05.51-1.54-.77-1.8-1.54-1.8ZM870.86,541.08c-.26,2.05,2.05,2.82,4.1,2.82a6.38,6.38,0,0,0,6.93-5.39c.26-3.85-3.33-8.46-2.82-12.31a1.21,1.21,0,0,1,1.28-1.28c1.28,0,1.28,1,2.57,1a1.79,1.79,0,0,0,1.8-2.05c0-1.28-1-2.57-3.33-2.82a5.27,5.27,0,0,0-5.9,4.62c-.26,3.85,3.08,9,2.82,12.83a2.15,2.15,0,0,1-2.31,2.05c-1.8-.26-2.05-1.8-3.33-2.05-1.28,1-1.8,1.8-1.8,2.57Zm29.5-11.54c1.28,0,2.31-2.05,2.31-3.33.26-1.8-.51-3.85-2.82-4.1-4.62-.26-11.29,6.93-11.8,12.06-.26,4.36,3.08,6.41,8.21,6.67,2.05.26,3.59-.26,3.59-1,0-.51-.26-.77-1.28-1-3.85-.26-6.93-1-6.41-4.87.26-3.85,5.13-8.72,7.18-8.46.77,0,0,1.28-.26,2.57a1.44,1.44,0,0,0,1.28,1.54Zm-33.09,1.28c-.77,0-1.8.26-2.31,2.05a57.73,57.73,0,0,0-3.08,10.26c0,1.28.26,2.05,1.54,2.31.51,0,1.28-.77,1.8-2.05.77-3.33,1.8-7.18,2.57-10.52.77-1,.51-1.8-.51-2.05ZM1189.19,489a4.12,4.12,0,0,0-3.85,4.1c0,.77.77,2.31,1.54,2.31,1.8.26,3.59-1.8,3.85-3.59s-.77-2.82-1.54-2.82ZM868.3,519.79c-.26,1.8,1.54,2.31,2.82,2.31s1.8-.77,1.8-1.54a2.75,2.75,0,0,0-2.31-2.82A2.25,2.25,0,0,0,868.3,519.79Z" transform="translate(-68.75 -259.69)"/><path class="cls-2" d="M925.76,436.94c-1.8,1-8.72,4.1-20,4.1-19,0-33.86-14.88-33.86-40.79,0-26.16,15.39-41,34.37-41,12.06,0,17.19,3.08,18.47,3.59,3.08,1.28,3.59,2.31,3.59,2.82a12,12,0,0,1-1.28,4.1c-1.54,2.82-2.31,3.33-3.08,3.33a6.53,6.53,0,0,1-1.8-.51c-.77-.26-5.13-3.85-15.65-3.85-14.11,0-22.83,11.29-22.83,31.29s10,31,23.09,31a31.11,31.11,0,0,0,15.65-3.85c1.28-.51,1.54-.77,2.31-.77s1.8.77,3.08,2.82,1.8,3.33,1.8,4.36c-.26,1-.77,1.54-3.85,3.33" transform="translate(-68.75 -259.69)"/><path class="cls-2" d="M972.18,395.38c-.77,1.54-1.28,3.08-2.57,3.08-1,0-1.8-.77-3.33-1.28a9.77,9.77,0,0,0-4.1-.77c-5.64,0-11,7.44-11,15.9v24.11c0,1.28,0,1.8-.77,2.31-.51.51-1.8,1-4.36,1-2.31,0-3.59-.26-4.1-.77a2.77,2.77,0,0,1-.77-2.31V392.3c0-1.54.26-2.31.77-2.82s1.54-1,4.1-1.28a12.59,12.59,0,0,1,2.82-.26,3.8,3.8,0,0,1,1.8.26,2.77,2.77,0,0,1,.77,2.31v5.64c2.05-4.1,7.44-8.21,12.57-8.21a15.5,15.5,0,0,1,6.16,1.28c2.05.77,3.59,1.8,3.59,3.08a17.08,17.08,0,0,0-1.54,3.08" transform="translate(-68.75 -259.69)"/><path class="cls-2" d="M1026.82,439.25c-.51.51-1.28.77-3.85.77s-3.59-.26-4.1-.77-.77-1-.77-2.57v-4.62c-3.08,5.13-9.75,8.46-16.42,8.46-12.06,0-18.47-8.21-18.47-19.49V391c0-1.28,0-1.8.77-2.31.51-.51,1.8-1,4.36-1,2.31,0,3.59.26,4.1.77a2.77,2.77,0,0,1,.77,2.31V420c0,8,4.36,11.8,11,11.8,6.93,0,13.34-6.41,13.34-13.6V391c0-1.28,0-1.8.77-2.31.51-.51,1.8-1,4.36-1,2.31,0,3.59.26,4.1.77a2.77,2.77,0,0,1,.77,2.31v45.92a3.83,3.83,0,0,1-.77,2.57" transform="translate(-68.75 -259.69)"/><path class="cls-2" d="M1049.91,375.63a6.24,6.24,0,0,1-6.16-6.16,6.47,6.47,0,0,1,6.16-6.41,6.29,6.29,0,0,1,0,12.57m4.36,63.36c-.51.51-1.8,1-4.36,1-2.31,0-3.59-.26-4.1-.77a2.77,2.77,0,0,1-.77-2.31V392.3c0-1.54.26-2.31.77-2.82s1.54-1,4.1-1.28a12.59,12.59,0,0,1,2.82-.26,3.8,3.8,0,0,1,1.8.26,2.77,2.77,0,0,1,.77,2.31v46.43a3.86,3.86,0,0,1-1,2.05" transform="translate(-68.75 -259.69)"/><path class="cls-2" d="M1088.13,440.79c-9.49,0-14.62-2.57-17.44-4.1-2.31-1.28-3.08-2.05-3.08-2.82a11,11,0,0,1,1.28-3.85c1.28-1.8,2.05-2.05,2.82-2.05,1.28,0,3.08,1.28,4.36,1.54a28.79,28.79,0,0,0,11.8,2.57c5.64,0,10.26-1.8,10.26-6.67,0-4.1-2.82-6.16-10-7.44l-4.1-.77c-8.21-1.28-15.9-5.39-15.9-14.62,0-9.75,8.21-15.39,19.5-15.39a36.84,36.84,0,0,1,13.85,2.57c2.82,1,3.59,1.8,3.59,2.82a11.58,11.58,0,0,1-.77,3.33c-.51,1.28-1,2.82-2.82,2.82-1.28,0-2.82-1-4.62-1.28a39,39,0,0,0-10-1.54c-5.64,0-9,2.31-9,6.41,0,3.59,3.59,5.64,9.49,6.67l5.13,1c9.23,1.54,15.65,4.87,15.65,15.13.26,9.75-8.47,15.65-20,15.65" transform="translate(-68.75 -259.69)"/><path class="cls-2" d="M1162.77,416.16c-.51.51-1.28.77-4.1.77H1128.4c1,8.46,6.41,14.36,14.36,14.36a27,27,0,0,0,9-1.54c1.8-.77,3.33-1.8,4.87-1.8s2.31,1.28,3.08,2.82c.51,1.28,1.28,2.31,1.28,3.08,0,1-.77,2.05-3.33,3.33a33.1,33.1,0,0,1-15.39,3.59c-14.62,0-24.37-10.77-24.37-26.93s9.23-26.68,23.34-26.68c14.36,0,22.32,10,22.32,26.42a1.91,1.91,0,0,1-.77,2.57m-21.29-21c-7.18,0-11.29,5.13-12.57,13.6h24.63c-.51-8.21-4.87-13.6-12.06-13.6" transform="translate(-68.75 -259.69)"/><path class="cls-2" d="M1194.07,440.79c-9.49,0-14.62-2.57-17.44-4.1-2.31-1.28-3.08-2.05-3.08-2.82a11,11,0,0,1,1.28-3.85c1.28-1.8,2.05-2.05,2.82-2.05,1.28,0,3.08,1.28,4.36,1.54a28.79,28.79,0,0,0,11.8,2.57c5.64,0,10.26-1.8,10.26-6.67,0-4.1-2.82-6.16-10-7.44l-4.1-.77c-8.21-1.28-15.9-5.39-15.9-14.62,0-9.75,8.21-15.39,19.5-15.39a36.84,36.84,0,0,1,13.85,2.57c2.82,1,3.59,1.8,3.59,2.82a11.58,11.58,0,0,1-.77,3.33c-.51,1.28-1,2.82-2.82,2.82-1.28,0-2.82-1-4.62-1.28a39,39,0,0,0-10-1.54c-5.64,0-9,2.31-9,6.41,0,3.59,3.59,5.64,9.49,6.67l5.13,1c9.23,1.54,15.65,4.87,15.65,15.13.26,9.75-8.47,15.65-20,15.65" transform="translate(-68.75 -259.69)"/></svg>