<?xml version="1.0" encoding="utf-8"?>
<!-- Generator: Adobe Illustrator 20.0.0, SVG Export Plug-In . SVG Version: 6.00 Build 0)  -->
<svg version="1.1" id="Layer_1" xmlns="http://www.w3.org/2000/svg" xmlns:xlink="http://www.w3.org/1999/xlink" x="0px" y="0px"
	 viewBox="0 0 125.866 203.797" enable-background="new 0 0 125.866 203.797" xml:space="preserve">
<g>
	<rect x="61.433" y="114.518" fill="#FFFFFF" width="3" height="6.056"/>
	<g>
		<rect x="61.433" y="175.075" fill="#FFFFFF" width="3" height="6.056"/>
		<rect x="61.433" y="41.85" fill="#FFFFFF" width="3" height="6.056"/>
		<rect x="61.433" y="53.962" fill="#FFFFFF" width="3" height="6.056"/>
		<rect x="61.433" y="66.073" fill="#FFFFFF" width="3" height="6.056"/>
		<rect x="61.433" y="150.852" fill="#FFFFFF" width="3" height="6.056"/>
		<rect x="61.433" y="29.739" fill="#FFFFFF" width="3" height="6.056"/>
		<rect x="61.433" y="162.964" fill="#FFFFFF" width="3" height="6.056"/>
		<rect x="61.433" y="138.741" fill="#FFFFFF" width="3" height="6.056"/>
		<rect x="61.433" y="126.63" fill="#FFFFFF" width="3" height="6.056"/>
		<rect x="61.433" y="78.184" fill="#FFFFFF" width="3" height="6.056"/>
		<rect x="61.433" y="187.186" fill="#FFFFFF" width="3" height="6.056"/>
		<polygon fill="#FFFFFF" points="64.433,199.298 61.433,199.298 61.433,200.797 53.183,200.797 53.183,203.797 72.683,203.797 
			72.683,200.797 64.433,200.797 		"/>
		<path fill="#FFFFFF" d="M61.433,17.912v5.771h3v-5.771c4.268-0.716,7.524-4.418,7.524-8.889C71.956,4.041,67.916,0,62.933,0
			c-4.983,0-9.023,4.041-9.023,9.024C53.909,13.494,57.165,17.196,61.433,17.912z"/>
	</g>
	<g>
		<path fill="#FFFFFF" d="M6.989,97.706c-0.343-0.364-0.758-0.639-1.244-0.829c-0.486-0.19-1.028-0.285-1.629-0.285H1.77
			c-0.191,0-0.332,0.011-0.422,0.034c-0.089,0.023-0.153,0.054-0.19,0.092c-0.038,0.029-0.066,0.071-0.085,0.125
			c-0.019,0.054-0.029,0.129-0.029,0.225v7.642c0,0.096,0.009,0.17,0.029,0.222c0.018,0.053,0.047,0.095,0.085,0.129
			c0.037,0.033,0.102,0.059,0.193,0.081c0.092,0.021,0.231,0.031,0.419,0.031h2.321c0.604,0,1.152-0.098,1.641-0.294
			c0.491-0.196,0.907-0.479,1.251-0.851c0.344-0.371,0.61-0.822,0.797-1.357c0.188-0.534,0.281-1.138,0.281-1.814
			c0-0.679-0.093-1.283-0.278-1.813C7.598,98.515,7.334,98.069,6.989,97.706z M5.842,103.106c-0.396,0.515-0.971,0.772-1.726,0.772
			H2.578v-5.991h1.463c0.793,0,1.39,0.254,1.792,0.76c0.401,0.507,0.603,1.244,0.603,2.211
			C6.436,101.842,6.238,102.591,5.842,103.106z"/>
		<path fill="#FFFFFF" d="M15.811,104.51l-2.101-3.001c0.288-0.104,0.535-0.238,0.745-0.4c0.208-0.162,0.38-0.347,0.516-0.55
			c0.135-0.205,0.234-0.428,0.297-0.669c0.062-0.242,0.094-0.496,0.094-0.763c0-0.864-0.272-1.502-0.817-1.914
			c-0.544-0.413-1.325-0.62-2.343-0.62H10.25c-0.191,0-0.332,0.011-0.422,0.034c-0.089,0.023-0.153,0.054-0.19,0.092
			c-0.034,0.033-0.061,0.075-0.081,0.128c-0.022,0.051-0.032,0.126-0.032,0.222v7.723c0,0.088,0.007,0.153,0.022,0.194
			s0.041,0.084,0.079,0.125c0.046,0.034,0.12,0.061,0.224,0.081c0.105,0.022,0.247,0.032,0.426,0.032
			c0.188,0,0.335-0.011,0.442-0.034c0.106-0.023,0.182-0.054,0.228-0.092c0.038-0.033,0.064-0.071,0.079-0.112
			c0.014-0.041,0.022-0.111,0.022-0.206v-3.028c0.079,0.008,0.156,0.015,0.228,0.019c0.073,0.003,0.151,0.007,0.232,0.009
			c0.081,0.002,0.172,0.003,0.272,0.006c0.1,0.002,0.218,0.003,0.356,0.003l2.101,3.165c0.042,0.062,0.09,0.111,0.144,0.146
			c0.054,0.035,0.118,0.063,0.191,0.081c0.073,0.019,0.157,0.031,0.253,0.034c0.096,0.005,0.205,0.007,0.326,0.007
			c0.204,0,0.365-0.015,0.482-0.045c0.117-0.029,0.198-0.056,0.244-0.081c0.087-0.041,0.132-0.106,0.132-0.193
			c0-0.05-0.016-0.104-0.047-0.162C15.926,104.683,15.878,104.606,15.811,104.51z M12.84,100.435
			c-0.233,0.069-0.519,0.103-0.857,0.103c-0.121,0-0.225,0-0.312-0.002c-0.088-0.002-0.166-0.005-0.234-0.007
			c-0.07-0.002-0.135-0.003-0.198-0.006c-0.062-0.002-0.13-0.006-0.206-0.009v-2.665h1.088c0.313,0,0.575,0.03,0.788,0.088
			s0.385,0.143,0.519,0.253c0.134,0.111,0.229,0.244,0.288,0.397c0.058,0.154,0.087,0.326,0.087,0.514
			c0,0.213-0.031,0.407-0.094,0.584c-0.063,0.177-0.165,0.329-0.307,0.456C13.261,100.268,13.073,100.367,12.84,100.435z"/>
		<path fill="#FFFFFF" d="M23.391,104.66l-2.727-7.8c-0.021-0.066-0.045-0.117-0.072-0.15c-0.027-0.033-0.053-0.061-0.078-0.081
			c-0.055-0.033-0.133-0.061-0.234-0.081c-0.103-0.021-0.26-0.031-0.472-0.031c-0.208,0-0.363,0.01-0.463,0.031
			c-0.1,0.021-0.177,0.048-0.231,0.081c-0.025,0.021-0.051,0.048-0.078,0.081c-0.027,0.033-0.051,0.084-0.072,0.15l-2.714,7.749
			c-0.022,0.058-0.04,0.119-0.056,0.181c-0.017,0.063-0.025,0.113-0.025,0.151c0,0.071,0.026,0.132,0.081,0.181
			c0.046,0.033,0.114,0.061,0.206,0.081c0.092,0.022,0.232,0.032,0.42,0.032c0.178,0,0.32-0.011,0.424-0.034
			c0.104-0.023,0.18-0.054,0.225-0.092c0.033-0.025,0.064-0.069,0.09-0.132c0.027-0.062,0.054-0.135,0.079-0.218l0.55-1.676h3.077
			l0.575,1.744c0.042,0.134,0.096,0.228,0.162,0.281c0.046,0.034,0.114,0.063,0.204,0.088c0.089,0.025,0.241,0.038,0.453,0.038
			c0.188,0,0.333-0.013,0.435-0.038c0.103-0.025,0.17-0.05,0.204-0.075c0.025-0.021,0.049-0.047,0.072-0.078
			s0.034-0.066,0.034-0.103c0-0.038-0.006-0.08-0.018-0.126S23.411,104.719,23.391,104.66z M18.644,101.883l1.138-3.459l1.138,3.459
			H18.644z"/>
		<path fill="#FFFFFF" d="M30.646,100.713c-0.041-0.037-0.109-0.067-0.2-0.09c-0.092-0.023-0.231-0.034-0.419-0.034H28.02
			c-0.121,0-0.217,0.011-0.288,0.034c-0.071,0.023-0.129,0.07-0.175,0.141c-0.025,0.042-0.047,0.094-0.065,0.157
			c-0.019,0.063-0.034,0.129-0.045,0.2c-0.01,0.071-0.018,0.144-0.025,0.218c-0.006,0.075-0.009,0.144-0.009,0.207
			c0,0.079,0.011,0.141,0.034,0.184s0.047,0.077,0.072,0.097c0.025,0.021,0.057,0.038,0.097,0.049
			c0.04,0.013,0.105,0.019,0.197,0.019h1.457v1.932c-0.142,0.047-0.321,0.088-0.538,0.126c-0.217,0.038-0.499,0.056-0.844,0.056
			c-0.347,0-0.668-0.066-0.967-0.2s-0.558-0.332-0.779-0.594c-0.221-0.263-0.395-0.588-0.522-0.976s-0.191-0.836-0.191-1.345
			s0.054-0.957,0.162-1.347s0.264-0.716,0.466-0.979c0.202-0.263,0.452-0.462,0.748-0.597c0.296-0.136,0.631-0.204,1.007-0.204
			c0.326,0,0.598,0.029,0.819,0.085c0.222,0.056,0.43,0.122,0.626,0.197c0.104,0.042,0.212,0.087,0.323,0.135
			c0.11,0.048,0.205,0.072,0.285,0.072c0.074,0,0.148-0.029,0.218-0.085c0.071-0.056,0.15-0.17,0.238-0.341
			c0.071-0.125,0.12-0.232,0.15-0.323c0.029-0.089,0.043-0.174,0.043-0.253c0-0.075-0.039-0.148-0.119-0.216
			c-0.079-0.069-0.218-0.144-0.419-0.228c-0.109-0.046-0.229-0.093-0.359-0.141c-0.132-0.048-0.281-0.092-0.451-0.129
			c-0.169-0.037-0.363-0.069-0.582-0.094c-0.218-0.024-0.471-0.037-0.76-0.037c-0.583,0-1.121,0.102-1.611,0.307
			c-0.49,0.204-0.913,0.498-1.27,0.882c-0.356,0.383-0.634,0.853-0.832,1.41c-0.198,0.556-0.297,1.185-0.297,1.885
			c0,0.7,0.097,1.327,0.292,1.879c0.193,0.552,0.468,1.019,0.822,1.401c0.353,0.381,0.78,0.674,1.279,0.875
			c0.498,0.202,1.049,0.304,1.654,0.304c0.337,0,0.638-0.016,0.9-0.047c0.263-0.032,0.492-0.07,0.685-0.113
			c0.194-0.043,0.356-0.089,0.485-0.137c0.129-0.048,0.229-0.087,0.3-0.116c0.092-0.038,0.172-0.08,0.238-0.128
			c0.066-0.048,0.121-0.095,0.162-0.141c0.038-0.046,0.067-0.098,0.09-0.157c0.023-0.058,0.034-0.137,0.034-0.238v-3.214
			c0-0.096-0.009-0.17-0.027-0.222C30.711,100.79,30.684,100.747,30.646,100.713z"/>
		<path fill="#FFFFFF" d="M41.534,96.642c-0.021-0.013-0.053-0.024-0.096-0.034c-0.045-0.01-0.11-0.016-0.198-0.016h-5.947
			c-0.113,0-0.204,0.01-0.272,0.032c-0.069,0.021-0.126,0.071-0.173,0.15c-0.024,0.038-0.046,0.087-0.062,0.146
			c-0.017,0.061-0.032,0.127-0.045,0.198c-0.011,0.071-0.022,0.143-0.027,0.218c-0.007,0.075-0.009,0.146-0.009,0.213
			c0,0.071,0.005,0.129,0.015,0.175c0.01,0.046,0.037,0.081,0.079,0.106c0.021,0.016,0.051,0.03,0.094,0.04
			c0.041,0.011,0.108,0.016,0.2,0.016h2.314v6.904c0,0.088,0.007,0.153,0.022,0.194s0.042,0.084,0.085,0.125
			c0.046,0.034,0.122,0.061,0.231,0.081c0.109,0.022,0.253,0.032,0.431,0.032c0.188,0,0.335-0.011,0.442-0.034
			c0.106-0.023,0.182-0.054,0.228-0.092c0.038-0.033,0.064-0.071,0.079-0.112c0.014-0.041,0.022-0.111,0.022-0.206v-6.893h2.089
			c0.121,0,0.217-0.01,0.288-0.031c0.071-0.021,0.129-0.071,0.175-0.15c0.021-0.038,0.039-0.088,0.056-0.151
			c0.016-0.062,0.031-0.129,0.043-0.2c0.013-0.071,0.022-0.143,0.029-0.218c0.006-0.075,0.009-0.146,0.009-0.213
			C41.635,96.782,41.602,96.688,41.534,96.642z"/>
		<path fill="#FFFFFF" d="M48.259,97.6c-0.334-0.384-0.738-0.678-1.21-0.882c-0.474-0.205-0.997-0.307-1.574-0.307
			c-0.583,0-1.111,0.103-1.582,0.309c-0.471,0.207-0.874,0.503-1.21,0.889c-0.335,0.385-0.594,0.856-0.776,1.41
			c-0.181,0.555-0.272,1.179-0.272,1.876c0,0.7,0.092,1.327,0.276,1.879c0.183,0.552,0.443,1.019,0.779,1.401
			c0.335,0.381,0.739,0.674,1.21,0.875c0.47,0.202,0.996,0.304,1.575,0.304c0.576,0,1.1-0.102,1.574-0.304
			c0.472-0.201,0.876-0.494,1.21-0.878c0.333-0.383,0.591-0.851,0.776-1.403c0.183-0.552,0.275-1.177,0.275-1.874
			c0-0.7-0.092-1.329-0.275-1.885C48.85,98.453,48.592,97.983,48.259,97.6z M47.543,102.255c-0.103,0.39-0.248,0.716-0.438,0.979
			c-0.19,0.263-0.422,0.46-0.698,0.591c-0.275,0.132-0.586,0.197-0.932,0.197c-0.705,0-1.251-0.263-1.641-0.788
			c-0.39-0.525-0.584-1.305-0.584-2.339c0-0.517,0.051-0.972,0.153-1.367c0.102-0.393,0.248-0.723,0.438-0.988
			c0.19-0.264,0.422-0.463,0.697-0.597c0.276-0.133,0.588-0.2,0.938-0.2c0.351,0,0.663,0.069,0.939,0.204
			c0.275,0.136,0.507,0.335,0.697,0.601c0.19,0.264,0.335,0.593,0.435,0.985c0.101,0.392,0.151,0.846,0.151,1.363
			C47.696,101.412,47.645,101.865,47.543,102.255z"/>
		<path fill="#FFFFFF" d="M58.963,101.054c-0.207-0.189-0.45-0.348-0.729-0.475c-0.28-0.127-0.582-0.239-0.907-0.335l-0.651-0.193
			c-0.246-0.075-0.475-0.148-0.687-0.218c-0.213-0.071-0.397-0.152-0.55-0.241c-0.154-0.089-0.276-0.193-0.364-0.312
			c-0.087-0.119-0.13-0.264-0.13-0.435c0-0.154,0.027-0.3,0.083-0.435c0.057-0.136,0.142-0.255,0.254-0.357s0.254-0.183,0.426-0.244
			c0.17-0.061,0.373-0.091,0.606-0.091c0.15,0,0.284,0.003,0.4,0.01c0.117,0.006,0.224,0.016,0.323,0.031
			c0.097,0.015,0.189,0.032,0.275,0.053c0.086,0.022,0.173,0.047,0.26,0.075c0.213,0.071,0.4,0.137,0.563,0.2
			c0.162,0.063,0.286,0.094,0.369,0.094c0.096,0,0.172-0.027,0.228-0.081c0.057-0.054,0.114-0.129,0.173-0.225
			s0.108-0.201,0.146-0.316c0.04-0.114,0.059-0.212,0.059-0.291c0-0.063-0.027-0.126-0.085-0.188
			c-0.056-0.063-0.169-0.136-0.341-0.22c-0.079-0.037-0.185-0.082-0.318-0.134c-0.134-0.053-0.294-0.102-0.482-0.15
			c-0.189-0.048-0.4-0.088-0.638-0.119c-0.238-0.032-0.501-0.047-0.788-0.047c-0.454,0-0.867,0.057-1.239,0.172
			c-0.371,0.114-0.687,0.281-0.951,0.5c-0.262,0.22-0.464,0.486-0.606,0.801c-0.142,0.316-0.213,0.67-0.213,1.067
			c0,0.342,0.054,0.639,0.162,0.893c0.109,0.255,0.26,0.474,0.453,0.658c0.194,0.183,0.424,0.339,0.692,0.466
			c0.267,0.127,0.556,0.234,0.869,0.323l0.7,0.206c0.259,0.075,0.496,0.152,0.713,0.231c0.217,0.08,0.403,0.169,0.557,0.269
			c0.154,0.101,0.275,0.217,0.359,0.351c0.086,0.133,0.128,0.294,0.128,0.482c0,0.212-0.043,0.396-0.13,0.55
			c-0.088,0.154-0.209,0.279-0.363,0.375c-0.154,0.096-0.339,0.167-0.551,0.213s-0.442,0.069-0.687,0.069
			c-0.238,0-0.452-0.018-0.642-0.054c-0.189-0.035-0.365-0.082-0.528-0.141c-0.162-0.058-0.316-0.124-0.459-0.197
			c-0.144-0.073-0.287-0.149-0.429-0.228c-0.071-0.038-0.128-0.062-0.172-0.072c-0.045-0.01-0.089-0.016-0.135-0.016
			c-0.079,0-0.149,0.03-0.209,0.088c-0.061,0.058-0.125,0.135-0.191,0.231c-0.063,0.096-0.119,0.205-0.168,0.325
			c-0.05,0.121-0.075,0.223-0.075,0.307c0,0.129,0.142,0.273,0.426,0.431c0.104,0.063,0.233,0.13,0.388,0.204
			c0.154,0.073,0.339,0.143,0.554,0.209c0.214,0.067,0.463,0.122,0.747,0.166c0.284,0.043,0.609,0.066,0.976,0.066
			c0.479,0,0.915-0.057,1.307-0.169c0.391-0.112,0.727-0.28,1.007-0.503s0.495-0.501,0.647-0.835s0.229-0.724,0.229-1.17
			c0-0.366-0.059-0.682-0.176-0.944C59.33,101.47,59.169,101.244,58.963,101.054z"/>
		<path fill="#FFFFFF" d="M66.42,103.928c-0.021-0.013-0.053-0.024-0.094-0.034c-0.042-0.01-0.109-0.016-0.2-0.016h-3.665v-2.651
			h2.821c0.12,0,0.216-0.009,0.287-0.029c0.071-0.018,0.129-0.063,0.175-0.134c0.022-0.038,0.04-0.088,0.057-0.151
			c0.016-0.062,0.031-0.129,0.043-0.202c0.013-0.073,0.022-0.148,0.027-0.222c0.007-0.075,0.01-0.144,0.01-0.207
			c0-0.079-0.008-0.14-0.023-0.181c-0.014-0.042-0.04-0.075-0.078-0.101c-0.025-0.021-0.058-0.038-0.1-0.05
			c-0.042-0.013-0.106-0.018-0.194-0.018h-3.027v-2.045h3.396c0.117,0,0.209-0.01,0.278-0.031c0.069-0.021,0.126-0.071,0.172-0.15
			c0.022-0.038,0.04-0.088,0.057-0.151c0.016-0.062,0.031-0.129,0.043-0.2c0.013-0.071,0.022-0.143,0.029-0.218
			c0.006-0.075,0.009-0.146,0.009-0.213c0-0.071-0.006-0.129-0.016-0.175c-0.01-0.046-0.034-0.081-0.072-0.106
			c-0.021-0.013-0.053-0.024-0.097-0.034c-0.043-0.01-0.109-0.016-0.197-0.016h-4.409c-0.191,0-0.332,0.011-0.422,0.034
			c-0.089,0.023-0.153,0.054-0.19,0.092c-0.038,0.029-0.066,0.071-0.085,0.125c-0.019,0.054-0.029,0.129-0.029,0.225v7.642
			c0,0.096,0.009,0.17,0.029,0.222c0.018,0.053,0.047,0.095,0.085,0.129c0.037,0.033,0.102,0.059,0.193,0.081
			c0.092,0.021,0.231,0.031,0.419,0.031h4.265c0.117,0,0.212-0.013,0.285-0.038c0.073-0.025,0.128-0.073,0.166-0.144
			c0.046-0.087,0.08-0.206,0.103-0.356c0.023-0.15,0.034-0.292,0.034-0.425c0-0.071-0.005-0.128-0.015-0.172
			C66.482,103.994,66.458,103.957,66.42,103.928z"/>
		<path fill="#FFFFFF" d="M73.434,96.608c-0.045-0.01-0.11-0.016-0.198-0.016H67.29c-0.113,0-0.204,0.01-0.272,0.032
			c-0.069,0.021-0.126,0.071-0.173,0.15c-0.024,0.038-0.046,0.087-0.062,0.146c-0.017,0.061-0.032,0.127-0.045,0.198
			c-0.011,0.071-0.022,0.143-0.027,0.218c-0.007,0.075-0.009,0.146-0.009,0.213c0,0.071,0.005,0.129,0.015,0.175
			c0.01,0.046,0.037,0.081,0.079,0.106c0.021,0.016,0.051,0.03,0.094,0.04c0.041,0.011,0.108,0.016,0.2,0.016h2.314v6.904
			c0,0.088,0.007,0.153,0.022,0.194s0.042,0.084,0.085,0.125c0.046,0.034,0.122,0.061,0.231,0.081
			c0.109,0.022,0.253,0.032,0.431,0.032c0.188,0,0.335-0.011,0.442-0.034c0.106-0.023,0.182-0.054,0.228-0.092
			c0.038-0.033,0.064-0.071,0.079-0.112c0.014-0.041,0.022-0.111,0.022-0.206v-6.893h2.089c0.121,0,0.217-0.01,0.288-0.031
			c0.071-0.021,0.129-0.071,0.175-0.15c0.021-0.038,0.039-0.088,0.056-0.151c0.016-0.062,0.031-0.129,0.043-0.2
			c0.013-0.071,0.022-0.143,0.029-0.218c0.006-0.075,0.009-0.146,0.009-0.213c0-0.142-0.033-0.236-0.101-0.281
			C73.51,96.63,73.478,96.618,73.434,96.608z"/>
		<path fill="#FFFFFF" d="M83.691,96.608c-0.045-0.01-0.11-0.016-0.198-0.016h-5.947c-0.113,0-0.204,0.01-0.272,0.032
			c-0.069,0.021-0.126,0.071-0.173,0.15c-0.024,0.038-0.046,0.087-0.062,0.146c-0.017,0.061-0.032,0.127-0.045,0.198
			c-0.011,0.071-0.022,0.143-0.027,0.218c-0.007,0.075-0.009,0.146-0.009,0.213c0,0.071,0.005,0.129,0.015,0.175
			c0.01,0.046,0.037,0.081,0.079,0.106c0.021,0.016,0.051,0.03,0.094,0.04c0.041,0.011,0.108,0.016,0.2,0.016h2.314v6.904
			c0,0.088,0.007,0.153,0.022,0.194s0.042,0.084,0.085,0.125c0.046,0.034,0.122,0.061,0.231,0.081
			c0.109,0.022,0.253,0.032,0.431,0.032c0.188,0,0.335-0.011,0.442-0.034c0.106-0.023,0.182-0.054,0.228-0.092
			c0.038-0.033,0.064-0.071,0.079-0.112c0.014-0.041,0.022-0.111,0.022-0.206v-6.893h2.089c0.121,0,0.217-0.01,0.288-0.031
			c0.071-0.021,0.129-0.071,0.175-0.15c0.021-0.038,0.039-0.088,0.056-0.151c0.016-0.062,0.031-0.129,0.043-0.2
			c0.013-0.071,0.022-0.143,0.029-0.218c0.006-0.075,0.009-0.146,0.009-0.213c0-0.142-0.033-0.236-0.101-0.281
			C83.767,96.63,83.735,96.618,83.691,96.608z"/>
		<path fill="#FFFFFF" d="M91.356,96.655c-0.046-0.033-0.125-0.061-0.234-0.081c-0.111-0.021-0.26-0.032-0.447-0.032
			c-0.18,0-0.321,0.013-0.426,0.035c-0.104,0.023-0.18,0.053-0.225,0.09c-0.041,0.033-0.07,0.071-0.085,0.112
			c-0.014,0.042-0.022,0.111-0.022,0.207v2.92h-3.496v-2.933c0-0.088-0.008-0.153-0.022-0.197c-0.015-0.045-0.041-0.085-0.079-0.122
			c-0.046-0.033-0.122-0.061-0.231-0.081c-0.109-0.021-0.254-0.032-0.438-0.032c-0.188,0-0.333,0.013-0.438,0.035
			c-0.104,0.023-0.178,0.053-0.224,0.09c-0.038,0.033-0.064,0.071-0.079,0.112c-0.015,0.042-0.022,0.111-0.022,0.207v7.804
			c0,0.088,0.007,0.153,0.022,0.194s0.041,0.084,0.079,0.125c0.046,0.034,0.122,0.061,0.231,0.081
			c0.109,0.022,0.252,0.032,0.431,0.032c0.188,0,0.335-0.011,0.442-0.034c0.106-0.023,0.182-0.054,0.228-0.092
			c0.038-0.033,0.064-0.071,0.079-0.112c0.014-0.041,0.022-0.111,0.022-0.206v-3.578h3.496v3.589c0,0.088,0.008,0.153,0.022,0.194
			c0.015,0.041,0.043,0.084,0.085,0.125c0.046,0.034,0.124,0.061,0.231,0.081c0.109,0.022,0.253,0.032,0.432,0.032
			c0.188,0,0.334-0.011,0.44-0.034c0.106-0.023,0.183-0.054,0.229-0.092c0.038-0.033,0.063-0.071,0.078-0.112
			c0.015-0.041,0.022-0.111,0.022-0.206v-7.805c0-0.088-0.007-0.153-0.022-0.197C91.419,96.733,91.394,96.693,91.356,96.655z"/>
		<path fill="#FFFFFF" d="M98.823,103.928c-0.021-0.013-0.053-0.024-0.094-0.034c-0.042-0.01-0.109-0.016-0.2-0.016h-3.665v-2.651
			h2.821c0.12,0,0.216-0.009,0.287-0.029c0.071-0.018,0.129-0.063,0.175-0.134c0.022-0.038,0.04-0.088,0.057-0.151
			c0.016-0.062,0.031-0.129,0.043-0.202c0.013-0.073,0.022-0.148,0.027-0.222c0.007-0.075,0.01-0.144,0.01-0.207
			c0-0.079-0.008-0.14-0.023-0.181c-0.014-0.042-0.04-0.075-0.078-0.101c-0.025-0.021-0.058-0.038-0.1-0.05
			c-0.042-0.013-0.106-0.018-0.194-0.018h-3.027v-2.045h3.396c0.117,0,0.209-0.01,0.278-0.031c0.069-0.021,0.126-0.071,0.172-0.15
			c0.022-0.038,0.04-0.088,0.057-0.151c0.016-0.062,0.031-0.129,0.043-0.2c0.013-0.071,0.022-0.143,0.029-0.218
			c0.006-0.075,0.009-0.146,0.009-0.213c0-0.071-0.006-0.129-0.016-0.175c-0.01-0.046-0.034-0.081-0.072-0.106
			c-0.021-0.013-0.053-0.024-0.097-0.034c-0.043-0.01-0.109-0.016-0.197-0.016h-4.409c-0.191,0-0.332,0.011-0.422,0.034
			c-0.089,0.023-0.153,0.054-0.19,0.092c-0.038,0.029-0.066,0.071-0.085,0.125c-0.019,0.054-0.029,0.129-0.029,0.225v7.642
			c0,0.096,0.009,0.17,0.029,0.222c0.018,0.053,0.047,0.095,0.085,0.129c0.037,0.033,0.102,0.059,0.193,0.081
			c0.092,0.021,0.231,0.031,0.419,0.031h4.265c0.117,0,0.212-0.013,0.285-0.038c0.073-0.025,0.128-0.073,0.166-0.144
			c0.046-0.087,0.08-0.206,0.103-0.356c0.023-0.15,0.034-0.292,0.034-0.425c0-0.071-0.005-0.128-0.015-0.172
			C98.885,103.994,98.861,103.957,98.823,103.928z"/>
		<path fill="#FFFFFF" d="M108.17,101.054c-0.207-0.189-0.45-0.348-0.729-0.475c-0.28-0.127-0.582-0.239-0.907-0.335l-0.651-0.193
			c-0.246-0.075-0.475-0.148-0.687-0.218s-0.397-0.152-0.55-0.241c-0.154-0.089-0.276-0.193-0.364-0.312
			c-0.087-0.119-0.13-0.264-0.13-0.435c0-0.154,0.027-0.3,0.083-0.435c0.057-0.136,0.142-0.255,0.254-0.357
			c0.112-0.102,0.254-0.183,0.426-0.244c0.17-0.061,0.373-0.091,0.606-0.091c0.15,0,0.284,0.003,0.4,0.01
			c0.117,0.006,0.224,0.016,0.323,0.031c0.097,0.015,0.189,0.032,0.275,0.053c0.086,0.022,0.173,0.047,0.26,0.075
			c0.213,0.071,0.4,0.137,0.563,0.2c0.162,0.063,0.286,0.094,0.369,0.094c0.096,0,0.172-0.027,0.228-0.081
			c0.057-0.054,0.114-0.129,0.173-0.225s0.108-0.201,0.146-0.316c0.04-0.114,0.059-0.212,0.059-0.291
			c0-0.063-0.027-0.126-0.085-0.188c-0.056-0.063-0.169-0.136-0.341-0.22c-0.079-0.037-0.185-0.082-0.318-0.134
			c-0.134-0.053-0.294-0.102-0.482-0.15c-0.189-0.048-0.4-0.088-0.638-0.119c-0.238-0.032-0.501-0.047-0.788-0.047
			c-0.454,0-0.867,0.057-1.239,0.172c-0.371,0.114-0.687,0.281-0.951,0.5c-0.262,0.22-0.464,0.486-0.606,0.801
			c-0.142,0.316-0.213,0.67-0.213,1.067c0,0.342,0.054,0.639,0.162,0.893c0.109,0.255,0.26,0.474,0.453,0.658
			c0.194,0.183,0.424,0.339,0.692,0.466c0.267,0.127,0.556,0.234,0.869,0.323l0.7,0.206c0.259,0.075,0.496,0.152,0.713,0.231
			c0.217,0.08,0.403,0.169,0.557,0.269c0.154,0.101,0.275,0.217,0.359,0.351c0.086,0.133,0.128,0.294,0.128,0.482
			c0,0.212-0.043,0.396-0.13,0.55c-0.088,0.154-0.209,0.279-0.363,0.375c-0.154,0.096-0.339,0.167-0.551,0.213
			s-0.442,0.069-0.687,0.069c-0.238,0-0.452-0.018-0.642-0.054c-0.189-0.035-0.365-0.082-0.528-0.141
			c-0.162-0.058-0.316-0.124-0.459-0.197c-0.144-0.073-0.287-0.149-0.429-0.228c-0.071-0.038-0.128-0.062-0.172-0.072
			c-0.045-0.01-0.089-0.016-0.135-0.016c-0.079,0-0.149,0.03-0.209,0.088c-0.061,0.058-0.125,0.135-0.191,0.231
			c-0.063,0.096-0.119,0.205-0.168,0.325c-0.05,0.121-0.075,0.223-0.075,0.307c0,0.129,0.142,0.273,0.426,0.431
			c0.104,0.063,0.233,0.13,0.388,0.204s0.339,0.143,0.554,0.209c0.214,0.067,0.463,0.122,0.747,0.166
			c0.284,0.043,0.609,0.066,0.976,0.066c0.479,0,0.915-0.057,1.307-0.169c0.391-0.112,0.727-0.28,1.007-0.503
			c0.279-0.223,0.495-0.501,0.647-0.835s0.229-0.724,0.229-1.17c0-0.366-0.059-0.682-0.176-0.944
			C108.537,101.47,108.376,101.244,108.17,101.054z"/>
		<path fill="#FFFFFF" d="M116.629,96.655c-0.046-0.033-0.124-0.061-0.232-0.081c-0.108-0.021-0.254-0.032-0.437-0.032
			c-0.188,0-0.334,0.013-0.438,0.035c-0.104,0.023-0.18,0.053-0.225,0.09c-0.038,0.033-0.064,0.071-0.081,0.112
			c-0.017,0.042-0.025,0.111-0.025,0.207v5.497c0,0.216-0.034,0.42-0.103,0.61c-0.069,0.19-0.176,0.356-0.323,0.498
			c-0.145,0.142-0.331,0.253-0.556,0.334c-0.225,0.081-0.494,0.122-0.808,0.122c-0.312,0-0.582-0.041-0.81-0.122
			c-0.226-0.081-0.414-0.192-0.559-0.334c-0.146-0.142-0.254-0.308-0.323-0.498s-0.103-0.393-0.103-0.61v-5.51
			c0-0.088-0.007-0.153-0.022-0.197c-0.015-0.045-0.041-0.085-0.078-0.122c-0.047-0.033-0.124-0.061-0.232-0.081
			c-0.109-0.021-0.249-0.032-0.426-0.032c-0.191,0-0.341,0.013-0.446,0.035c-0.106,0.023-0.183,0.053-0.229,0.09
			c-0.042,0.033-0.07,0.071-0.085,0.112c-0.015,0.042-0.022,0.111-0.022,0.207v5.447c0,0.421,0.062,0.811,0.184,1.17
			c0.124,0.358,0.319,0.667,0.588,0.925c0.269,0.258,0.614,0.461,1.035,0.606c0.421,0.146,0.93,0.22,1.526,0.22
			c0.597,0,1.105-0.074,1.526-0.223c0.422-0.148,0.765-0.352,1.033-0.612c0.267-0.261,0.461-0.571,0.584-0.929
			c0.122-0.359,0.184-0.749,0.184-1.17v-5.447c0-0.088-0.007-0.153-0.022-0.197C116.692,96.733,116.665,96.693,116.629,96.655z"/>
		<path fill="#FFFFFF" d="M124.793,96.777c-0.019-0.045-0.047-0.085-0.085-0.122c-0.042-0.033-0.114-0.061-0.22-0.081
			c-0.104-0.021-0.249-0.032-0.437-0.032c-0.18,0-0.317,0.013-0.413,0.035c-0.096,0.023-0.167,0.053-0.213,0.09
			c-0.038,0.033-0.065,0.071-0.081,0.112c-0.017,0.042-0.025,0.111-0.025,0.207v5.485l-3.472-5.636
			c-0.021-0.033-0.046-0.067-0.074-0.103c-0.03-0.035-0.075-0.066-0.138-0.094c-0.062-0.026-0.143-0.049-0.244-0.069
			c-0.1-0.018-0.229-0.029-0.388-0.029c-0.213,0-0.38,0.013-0.503,0.035c-0.122,0.023-0.207,0.053-0.253,0.09
			c-0.067,0.054-0.101,0.122-0.101,0.206c0,0.05,0.016,0.104,0.047,0.16c0.032,0.056,0.064,0.113,0.097,0.172l0.256,0.438v7.148
			c0,0.088,0.007,0.153,0.022,0.194s0.041,0.084,0.079,0.125c0.046,0.034,0.12,0.061,0.224,0.081
			c0.104,0.022,0.246,0.032,0.425,0.032c0.188,0,0.328-0.011,0.422-0.034c0.094-0.023,0.164-0.054,0.209-0.092
			c0.038-0.033,0.064-0.071,0.079-0.112s0.022-0.111,0.022-0.206v-5.241l3.333,5.391c0.03,0.066,0.067,0.119,0.113,0.156
			c0.049,0.047,0.121,0.081,0.215,0.104c0.094,0.023,0.234,0.034,0.422,0.034c0.175,0,0.309-0.011,0.4-0.034
			c0.092-0.023,0.161-0.054,0.207-0.092c0.033-0.033,0.058-0.071,0.074-0.112c0.017-0.041,0.025-0.111,0.025-0.206v-7.805
			C124.821,96.886,124.812,96.821,124.793,96.777z"/>
	</g>
</g>
</svg>
